Besley-Regular.ufo
<glyph name="dollar" format="2">
	<advance width="1320" height="0"/>
	<unicode hex="0024"/>
	<outline>
		<contour>
			<point x="660" y="1670" type="line"/>
			<point x="770" y="1670" type="line"/>
			<point x="760" y="1513" type="line"/>
			<point x="967" y="1489"/>
			<point x="1148" y="1393"/>
			<point x="1148" y="1158" type="curve" smooth="yes"/>
			<point x="1148" y="1062"/>
			<point x="1078" y="1026"/>
			<point x="1020" y="1026" type="curve" smooth="yes"/>
			<point x="966" y="1026"/>
			<point x="906" y="1068"/>
			<point x="906" y="1142" type="curve" smooth="yes"/>
			<point x="906" y="1214"/>
			<point x="970" y="1224"/>
			<point x="970" y="1270" type="curve" smooth="yes"/>
			<point x="970" y="1319"/>
			<point x="911" y="1391"/>
			<point x="753" y="1412" type="curve"/>
			<point x="720" y="896" type="line"/>
			<point x="958" y="842"/>
			<point x="1220" y="779"/>
			<point x="1220" y="430" type="curve" smooth="yes"/>
			<point x="1220" y="150"/>
			<point x="1022" y="-20"/>
			<point x="660" y="-20" type="curve"/>
			<point x="650" y="-170" type="line"/>
			<point x="540" y="-170" type="line"/>
			<point x="550" y="-15" type="line"/>
			<point x="249" y="16"/>
			<point x="92" y="175"/>
			<point x="92" y="372" type="curve" smooth="yes"/>
			<point x="92" y="468"/>
			<point x="162" y="504"/>
			<point x="220" y="504" type="curve" smooth="yes"/>
			<point x="274" y="504"/>
			<point x="334" y="462"/>
			<point x="334" y="388" type="curve" smooth="yes"/>
			<point x="334" y="316"/>
			<point x="270" y="306"/>
			<point x="270" y="260" type="curve" smooth="yes"/>
			<point x="270" y="210"/>
			<point x="347" y="112"/>
			<point x="557" y="88" type="curve"/>
			<point x="597" y="701" type="line"/>
			<point x="378" y="753"/>
			<point x="160" y="821"/>
			<point x="160" y="1110" type="curve" smooth="yes"/>
			<point x="160" y="1395"/>
			<point x="402" y="1520"/>
			<point x="650" y="1520" type="curve"/>
		</contour>
		<contour>
			<point x="1040" y="380" type="curve" smooth="yes"/>
			<point x="1040" y="573"/>
			<point x="885" y="630"/>
			<point x="705" y="675" type="curve"/>
			<point x="666" y="82" type="line"/>
			<point x="933" y="85"/>
			<point x="1040" y="243"/>
		</contour>
		<contour>
			<point x="340" y="1170" type="curve" smooth="yes"/>
			<point x="340" y="1015"/>
			<point x="460" y="961"/>
			<point x="611" y="922" type="curve"/>
			<point x="644" y="1418" type="line"/>
			<point x="443" y="1412"/>
			<point x="340" y="1304"/>
		</contour>
	</outline>
</glyph>
<glyph name="ampersand" format="2">
	<advance width="1740" height="0"/>
	<unicode hex="0026"/>
	<outline>
		<contour>
			<point x="1117" y="920" type="curve" smooth="yes"/>
			<point x="1540" y="920" type="line" smooth="yes"/>
			<point x="1561" y="920"/>
			<point x="1570" y="915"/>
			<point x="1570" y="892" type="curve" smooth="yes"/>
			<point x="1570" y="834" type="line" smooth="yes"/>
			<point x="1570" y="810"/>
			<point x="1570" y="810"/>
			<point x="1546" y="810" type="curve" smooth="yes"/>
			<point x="1414" y="810" type="line" smooth="yes"/>
			<point x="1389" y="810"/>
			<point x="1390" y="808"/>
			<point x="1387" y="787" type="curve" smooth="yes"/>
			<point x="1358" y="607"/>
			<point x="1290" y="434"/>
			<point x="1176" y="293" type="curve" smooth="yes"/>
			<point x="1154" y="266"/>
			<point x="1139" y="273"/>
			<point x="1161" y="238" type="curve" smooth="yes"/>
			<point x="1228" y="132" type="line" smooth="yes"/>
			<point x="1240" y="113"/>
			<point x="1243" y="110"/>
			<point x="1275" y="110" type="curve" smooth="yes"/>
			<point x="1510" y="110" type="line" smooth="yes"/>
			<point x="1537" y="110"/>
			<point x="1540" y="103"/>
			<point x="1540" y="75" type="curve" smooth="yes"/>
			<point x="1540" y="35" type="line" smooth="yes"/>
			<point x="1540" y="8"/>
			<point x="1538" y="0"/>
			<point x="1512" y="0" type="curve" smooth="yes"/>
			<point x="1120" y="0" type="line" smooth="yes"/>
			<point x="1074" y="0"/>
			<point x="1069" y="4"/>
			<point x="1052" y="31" type="curve" smooth="yes"/>
			<point x="1010" y="97" type="line" smooth="yes"/>
			<point x="989" y="130"/>
			<point x="988" y="122"/>
			<point x="957" y="102" type="curve" smooth="yes"/>
			<point x="837" y="25"/>
			<point x="696" y="-20"/>
			<point x="540" y="-20" type="curve" smooth="yes"/>
			<point x="274" y="-20"/>
			<point x="42" y="114"/>
			<point x="42" y="400" type="curve" smooth="yes"/>
			<point x="42" y="686"/>
			<point x="261" y="787"/>
			<point x="483" y="873" type="curve" smooth="yes"/>
			<point x="520" y="887"/>
			<point x="504" y="894"/>
			<point x="486" y="923" type="curve" smooth="yes"/>
			<point x="450" y="980" type="line" smooth="yes"/>
			<point x="400" y="1058"/>
			<point x="358" y="1156"/>
			<point x="358" y="1226" type="curve" smooth="yes"/>
			<point x="358" y="1406"/>
			<point x="528" y="1520"/>
			<point x="760" y="1520" type="curve" smooth="yes"/>
			<point x="974" y="1520"/>
			<point x="1132" y="1430"/>
			<point x="1132" y="1270" type="curve" smooth="yes"/>
			<point x="1132" y="1064"/>
			<point x="972" y="970"/>
			<point x="789" y="892" type="curve" smooth="yes"/>
			<point x="754" y="877"/>
			<point x="761" y="870"/>
			<point x="781" y="839" type="curve" smooth="yes"/>
			<point x="1053" y="408" type="line" smooth="yes"/>
			<point x="1080" y="365"/>
			<point x="1080" y="359"/>
			<point x="1111" y="401" type="curve" smooth="yes"/>
			<point x="1195" y="516"/>
			<point x="1254" y="652"/>
			<point x="1276" y="781" type="curve" smooth="yes"/>
			<point x="1280" y="807"/>
			<point x="1273" y="810"/>
			<point x="1242" y="810" type="curve" smooth="yes"/>
			<point x="1128" y="810" type="line" smooth="yes"/>
			<point x="1093" y="810"/>
			<point x="1090" y="817"/>
			<point x="1090" y="853" type="curve" smooth="yes"/>
			<point x="1090" y="888" type="line" smooth="yes"/>
			<point x="1090" y="913"/>
			<point x="1093" y="920"/>
		</contour>
		<contour>
			<point x="529" y="783" type="curve" smooth="yes"/>
			<point x="380" y="711"/>
			<point x="262" y="617"/>
			<point x="262" y="440" type="curve" smooth="yes"/>
			<point x="262" y="216"/>
			<point x="422" y="110"/>
			<point x="610" y="110" type="curve" smooth="yes"/>
			<point x="716" y="110"/>
			<point x="816" y="144"/>
			<point x="905" y="202" type="curve" smooth="yes"/>
			<point x="935" y="221"/>
			<point x="930" y="224"/>
			<point x="912" y="253" type="curve" smooth="yes"/>
			<point x="585" y="769" type="line" smooth="yes"/>
			<point x="565" y="800"/>
			<point x="563" y="800"/>
		</contour>
		<contour>
			<point x="944" y="1280" type="curve" smooth="yes"/>
			<point x="944" y="1374"/>
			<point x="868" y="1440"/>
			<point x="758" y="1440" type="curve" smooth="yes"/>
			<point x="644" y="1440"/>
			<point x="554" y="1386"/>
			<point x="554" y="1280" type="curve" smooth="yes"/>
			<point x="554" y="1210"/>
			<point x="608" y="1110"/>
			<point x="690" y="980" type="curve" smooth="yes"/>
			<point x="703" y="960"/>
			<point x="706" y="965"/>
			<point x="727" y="976" type="curve" smooth="yes"/>
			<point x="852" y="1041"/>
			<point x="944" y="1127"/>
		</contour>
	</outline>
</glyph>
<glyph name="seven" format="2">
	<advance width="1048" height="2310"/>
	<unicode hex="0037"/>
	<outline>
		<contour>
			<point x="80" y="1162" type="curve" smooth="yes"/>
			<point x="84" y="1439"/>
			<point x="185" y="1520"/>
			<point x="360" y="1520" type="curve" smooth="yes"/>
			<point x="554" y="1520"/>
			<point x="624" y="1400"/>
			<point x="790" y="1400" type="curve" smooth="yes"/>
			<point x="864" y="1400"/>
			<point x="896" y="1433"/>
			<point x="916" y="1483" type="curve" smooth="yes"/>
			<point x="921" y="1496"/>
			<point x="922" y="1500"/>
			<point x="941" y="1500" type="curve" smooth="yes"/>
			<point x="1010" y="1500" type="line" smooth="yes"/>
			<point x="1033" y="1500"/>
			<point x="1029" y="1494"/>
			<point x="1026" y="1473" type="curve" smooth="yes"/>
			<point x="1002" y="1323"/>
			<point x="805" y="997"/>
			<point x="676" y="736" type="curve" smooth="yes"/>
			<point x="584" y="548"/>
			<point x="568" y="472"/>
			<point x="568" y="384" type="curve" smooth="yes"/>
			<point x="568" y="238"/>
			<point x="634" y="208"/>
			<point x="634" y="116" type="curve" smooth="yes"/>
			<point x="634" y="42"/>
			<point x="594" y="-20"/>
			<point x="506" y="-20" type="curve" smooth="yes"/>
			<point x="428" y="-20"/>
			<point x="374" y="54"/>
			<point x="374" y="192" type="curve" smooth="yes"/>
			<point x="374" y="370"/>
			<point x="426" y="554"/>
			<point x="558" y="762" type="curve" smooth="yes"/>
			<point x="649" y="906"/>
			<point x="760" y="1097"/>
			<point x="833" y="1254" type="curve" smooth="yes"/>
			<point x="843" y="1275"/>
			<point x="855" y="1291"/>
			<point x="850" y="1296" type="curve" smooth="yes"/>
			<point x="845" y="1301"/>
			<point x="833" y="1283"/>
			<point x="812" y="1277" type="curve" smooth="yes"/>
			<point x="786" y="1269"/>
			<point x="756" y="1266"/>
			<point x="720" y="1266" type="curve" smooth="yes"/>
			<point x="520" y="1266"/>
			<point x="500" y="1334"/>
			<point x="348" y="1334" type="curve" smooth="yes"/>
			<point x="227" y="1334"/>
			<point x="178" y="1281"/>
			<point x="174" y="1166" type="curve" smooth="yes"/>
			<point x="174" y="1151"/>
			<point x="173" y="1146"/>
			<point x="158" y="1146" type="curve" smooth="yes"/>
			<point x="102" y="1146" type="line" smooth="yes"/>
			<point x="87" y="1146"/>
			<point x="80" y="1147"/>
		</contour>
	</outline>
</glyph>
<glyph name="at" format="2">
	<advance width="2120" height="2310"/>
	<unicode hex="0040"/>
	<outline>
		<contour>
			<point x="1328" y="692" type="curve" smooth="yes"/>
			<point x="1328" y="776"/>
			<point x="1300" y="956"/>
			<point x="1168" y="956" type="curve" smooth="yes"/>
			<point x="1020" y="956"/>
			<point x="870" y="728"/>
			<point x="870" y="480" type="curve" smooth="yes"/>
			<point x="870" y="346"/>
			<point x="900" y="244"/>
			<point x="1028" y="244" type="curve" smooth="yes"/>
			<point x="1150" y="244"/>
			<point x="1328" y="436"/>
		</contour>
		<contour>
			<point x="1640" y="-161" type="curve" smooth="yes"/>
			<point x="1474" y="-336"/>
			<point x="1245" y="-428"/>
			<point x="938" y="-428" type="curve" smooth="yes"/>
			<point x="652" y="-428"/>
			<point x="130" y="-224"/>
			<point x="130" y="442" type="curve" smooth="yes"/>
			<point x="130" y="1108"/>
			<point x="624" y="1580"/>
			<point x="1170" y="1580" type="curve" smooth="yes"/>
			<point x="1716" y="1580"/>
			<point x="2010" y="1208"/>
			<point x="2010" y="842" type="curve" smooth="yes"/>
			<point x="2010" y="522"/>
			<point x="1824" y="140"/>
			<point x="1482" y="140" type="curve" smooth="yes"/>
			<point x="1376" y="140"/>
			<point x="1322" y="198"/>
			<point x="1289" y="267" type="curve" smooth="yes"/>
			<point x="1269" y="309"/>
			<point x="1272" y="325"/>
			<point x="1223" y="271" type="curve" smooth="yes"/>
			<point x="1148" y="188"/>
			<point x="1057" y="140"/>
			<point x="968" y="140" type="curve" smooth="yes"/>
			<point x="810" y="140"/>
			<point x="668" y="251"/>
			<point x="668" y="460" type="curve" smooth="yes"/>
			<point x="668" y="760"/>
			<point x="898" y="1058"/>
			<point x="1136" y="1058" type="curve" smooth="yes"/>
			<point x="1239" y="1058"/>
			<point x="1311" y="1004"/>
			<point x="1351" y="912" type="curve" smooth="yes"/>
			<point x="1379" y="848"/>
			<point x="1378" y="841"/>
			<point x="1393" y="905" type="curve" smooth="yes"/>
			<point x="1417" y="1010" type="line" smooth="yes"/>
			<point x="1422" y="1033"/>
			<point x="1429" y="1040"/>
			<point x="1459" y="1040" type="curve" smooth="yes"/>
			<point x="1550" y="1040" type="line" smooth="yes"/>
			<point x="1596" y="1040"/>
			<point x="1601" y="1027"/>
			<point x="1591" y="986" type="curve" smooth="yes"/>
			<point x="1460" y="420" type="line" smooth="yes"/>
			<point x="1456" y="394"/>
			<point x="1432" y="264"/>
			<point x="1526" y="264" type="curve" smooth="yes"/>
			<point x="1728" y="264"/>
			<point x="1884" y="542"/>
			<point x="1884" y="850" type="curve" smooth="yes"/>
			<point x="1884" y="1204"/>
			<point x="1572" y="1474"/>
			<point x="1204" y="1474" type="curve" smooth="yes"/>
			<point x="716" y="1474"/>
			<point x="340" y="1006"/>
			<point x="340" y="462" type="curve" smooth="yes"/>
			<point x="340" y="-142"/>
			<point x="702" y="-318"/>
			<point x="990" y="-318" type="curve" smooth="yes"/>
			<point x="1185" y="-318"/>
			<point x="1385" y="-255"/>
			<point x="1557" y="-86" type="curve" smooth="yes"/>
			<point x="1588" y="-56"/>
			<point x="1588" y="-46"/>
			<point x="1620" y="-78" type="curve" smooth="yes"/>
			<point x="1649" y="-107" type="line" smooth="yes"/>
			<point x="1674" y="-132"/>
			<point x="1664" y="-136"/>
		</contour>
	</outline>
</glyph>
<glyph name="N" format="2">
	<advance width="1750" height="0"/>
	<unicode hex="004E"/>
	<anchor x="896" y="1500" name="Anchor-0"/>
	<anchor x="826" y="0" name="Anchor-1"/>
	<anchor x="826" y="0" name="Anchor-2"/>
	<outline>
		<contour>
			<point x="234" y="1390" type="curve" smooth="yes"/>
			<point x="114" y="1390" type="line" smooth="yes"/>
			<point x="85" y="1390"/>
			<point x="80" y="1398"/>
			<point x="80" y="1425" type="curve" smooth="yes"/>
			<point x="80" y="1455" type="line" smooth="yes"/>
			<point x="80" y="1490"/>
			<point x="81" y="1500"/>
			<point x="116" y="1500" type="curve" smooth="yes"/>
			<point x="420" y="1500" type="line" smooth="yes"/>
			<point x="497" y="1500"/>
			<point x="501" y="1486"/>
			<point x="532" y="1445" type="curve" smooth="yes"/>
			<point x="1322" y="408" type="line" smooth="yes"/>
			<point x="1349" y="373"/>
			<point x="1370" y="377"/>
			<point x="1370" y="457" type="curve" smooth="yes"/>
			<point x="1370" y="1343" type="line" smooth="yes"/>
			<point x="1370" y="1387"/>
			<point x="1360" y="1390"/>
			<point x="1318" y="1390" type="curve" smooth="yes"/>
			<point x="1220" y="1390" type="line" smooth="yes"/>
			<point x="1190" y="1390"/>
			<point x="1150" y="1387"/>
			<point x="1150" y="1421" type="curve" smooth="yes"/>
			<point x="1150" y="1443" type="line" smooth="yes"/>
			<point x="1150" y="1483"/>
			<point x="1157" y="1500"/>
			<point x="1198" y="1500" type="curve" smooth="yes"/>
			<point x="1660" y="1500" type="line" smooth="yes"/>
			<point x="1685" y="1500"/>
			<point x="1710" y="1500"/>
			<point x="1710" y="1471" type="curve" smooth="yes"/>
			<point x="1710" y="1434" type="line" smooth="yes"/>
			<point x="1710" y="1400"/>
			<point x="1708" y="1390"/>
			<point x="1674" y="1390" type="curve" smooth="yes"/>
			<point x="1548" y="1390" type="line" smooth="yes"/>
			<point x="1506" y="1390"/>
			<point x="1500" y="1383"/>
			<point x="1500" y="1339" type="curve" smooth="yes"/>
			<point x="1500" y="25" type="line" smooth="yes"/>
			<point x="1500" y="1"/>
			<point x="1499" y="-20"/>
			<point x="1472" y="-20" type="curve" smooth="yes"/>
			<point x="1466" y="-20" type="line" smooth="yes"/>
			<point x="1435" y="-20"/>
			<point x="1424" y="-12"/>
			<point x="1411" y="5" type="curve" smooth="yes"/>
			<point x="472" y="1225" type="line" smooth="yes"/>
			<point x="443" y="1263"/>
			<point x="420" y="1266"/>
			<point x="420" y="1167" type="curve" smooth="yes"/>
			<point x="420" y="153" type="line" smooth="yes"/>
			<point x="420" y="116"/>
			<point x="425" y="110"/>
			<point x="464" y="110" type="curve" smooth="yes"/>
			<point x="616" y="110" type="line" smooth="yes"/>
			<point x="647" y="110"/>
			<point x="650" y="98"/>
			<point x="650" y="69" type="curve" smooth="yes"/>
			<point x="650" y="39" type="line" smooth="yes"/>
			<point x="650" y="4"/>
			<point x="641" y="0"/>
			<point x="608" y="0" type="curve" smooth="yes"/>
			<point x="122" y="0" type="line" smooth="yes"/>
			<point x="87" y="0"/>
			<point x="80" y="3"/>
			<point x="80" y="37" type="curve" smooth="yes"/>
			<point x="80" y="73" type="line" smooth="yes"/>
			<point x="80" y="107"/>
			<point x="95" y="110"/>
			<point x="126" y="110" type="curve" smooth="yes"/>
			<point x="235" y="110" type="line" smooth="yes"/>
			<point x="282" y="110"/>
			<point x="290" y="116"/>
			<point x="290" y="161" type="curve" smooth="yes"/>
			<point x="290" y="1341" type="line" smooth="yes"/>
			<point x="290" y="1387"/>
			<point x="281" y="1390"/>
		</contour>
	</outline>
</glyph>
<glyph name="P" format="2">
	<advance width="1380" height="0"/>
	<unicode hex="0050"/>
	<anchor x="676" y="1500" name="Anchor-0"/>
	<anchor x="392" y="0" name="Anchor-1"/>
	<anchor x="392" y="0" name="Anchor-2"/>
	<outline>
		<contour>
			<point x="263" y="1390" type="curve" smooth="yes"/>
			<point x="100" y="1390" type="line" smooth="yes"/>
			<point x="76" y="1390"/>
			<point x="75" y="1399"/>
			<point x="75" y="1423" type="curve" smooth="yes"/>
			<point x="75" y="1464" type="line" smooth="yes"/>
			<point x="75" y="1495"/>
			<point x="83" y="1500"/>
			<point x="112" y="1500" type="curve" smooth="yes"/>
			<point x="785" y="1500" type="line" smooth="yes"/>
			<point x="1147" y="1500"/>
			<point x="1305" y="1340"/>
			<point x="1305" y="1080" type="curve" smooth="yes"/>
			<point x="1305" y="820"/>
			<point x="1147" y="660"/>
			<point x="785" y="660" type="curve" smooth="yes"/>
			<point x="549" y="660" type="line" smooth="yes"/>
			<point x="494" y="660"/>
			<point x="485" y="659"/>
			<point x="485" y="604" type="curve" smooth="yes"/>
			<point x="485" y="173" type="line" smooth="yes"/>
			<point x="485" y="118"/>
			<point x="489" y="110"/>
			<point x="543" y="110" type="curve" smooth="yes"/>
			<point x="673" y="110" type="line" smooth="yes"/>
			<point x="704" y="110"/>
			<point x="705" y="101"/>
			<point x="705" y="70" type="curve" smooth="yes"/>
			<point x="705" y="48" type="line" smooth="yes"/>
			<point x="705" y="8"/>
			<point x="703" y="0"/>
			<point x="663" y="0" type="curve" smooth="yes"/>
			<point x="129" y="0" type="line" smooth="yes"/>
			<point x="88" y="0"/>
			<point x="75" y="2"/>
			<point x="75" y="46" type="curve" smooth="yes"/>
			<point x="75" y="82" type="line" smooth="yes"/>
			<point x="75" y="106"/>
			<point x="82" y="110"/>
			<point x="107" y="110" type="curve" smooth="yes"/>
			<point x="249" y="110" type="line" smooth="yes"/>
			<point x="290" y="110"/>
			<point x="295" y="120"/>
			<point x="295" y="158" type="curve" smooth="yes"/>
			<point x="295" y="1364" type="line" smooth="yes"/>
			<point x="295" y="1387"/>
			<point x="287" y="1390"/>
		</contour>
		<contour>
			<point x="535" y="770" type="curve" smooth="yes"/>
			<point x="785" y="770" type="line" smooth="yes"/>
			<point x="977" y="770"/>
			<point x="1085" y="902"/>
			<point x="1085" y="1080" type="curve" smooth="yes"/>
			<point x="1085" y="1258"/>
			<point x="977" y="1390"/>
			<point x="785" y="1390" type="curve" smooth="yes"/>
			<point x="514" y="1390" type="line" smooth="yes"/>
			<point x="488" y="1390"/>
			<point x="485" y="1378"/>
			<point x="485" y="1351" type="curve" smooth="yes"/>
			<point x="485" y="814" type="line" smooth="yes"/>
			<point x="485" y="772"/>
			<point x="493" y="770"/>
		</contour>
	</outline>
</glyph>
<glyph name="c" format="2">
	<advance width="1116" height="2310"/>
	<unicode hex="0063"/>
	<anchor x="606" y="1040" name="Anchor-0"/>
	<anchor x="604" y="0" name="Anchor-1"/>
	<anchor x="604" y="0" name="Anchor-2"/>
	<outline>
		<contour>
			<point x="105" y="520" type="curve" smooth="yes"/>
			<point x="105" y="820"/>
			<point x="281" y="1060"/>
			<point x="603" y="1060" type="curve" smooth="yes"/>
			<point x="847" y="1060"/>
			<point x="995" y="926"/>
			<point x="995" y="762" type="curve" smooth="yes"/>
			<point x="995" y="666"/>
			<point x="925" y="630"/>
			<point x="867" y="630" type="curve" smooth="yes"/>
			<point x="813" y="630"/>
			<point x="753" y="672"/>
			<point x="753" y="746" type="curve" smooth="yes"/>
			<point x="753" y="818"/>
			<point x="817" y="828"/>
			<point x="817" y="874" type="curve" smooth="yes"/>
			<point x="817" y="928"/>
			<point x="731" y="966"/>
			<point x="623" y="966" type="curve" smooth="yes"/>
			<point x="405" y="966"/>
			<point x="307" y="748"/>
			<point x="307" y="520" type="curve" smooth="yes"/>
			<point x="307" y="292"/>
			<point x="385" y="78"/>
			<point x="603" y="78" type="curve" smooth="yes"/>
			<point x="762" y="78"/>
			<point x="865" y="178"/>
			<point x="917" y="327" type="curve" smooth="yes"/>
			<point x="922" y="340"/>
			<point x="926" y="346"/>
			<point x="945" y="346" type="curve" smooth="yes"/>
			<point x="1007" y="346" type="line" smooth="yes"/>
			<point x="1028" y="346"/>
			<point x="1031" y="343"/>
			<point x="1026" y="328" type="curve" smooth="yes"/>
			<point x="962" y="124"/>
			<point x="834" y="-20"/>
			<point x="599" y="-20" type="curve" smooth="yes"/>
			<point x="257" y="-20"/>
			<point x="105" y="220"/>
		</contour>
	</outline>
</glyph>
<glyph name="h" format="2">
	<advance width="1345" height="2310"/>
	<unicode hex="0068"/>
	<anchor x="843" y="1035" name="Anchor-0"/>
	<anchor x="684" y="0" name="Anchor-1"/>
	<anchor x="684" y="0" name="Anchor-2"/>
	<outline>
		<contour>
			<point x="223" y="1450" type="curve" smooth="yes"/>
			<point x="87" y="1450" type="line" smooth="yes"/>
			<point x="65" y="1450"/>
			<point x="65" y="1450"/>
			<point x="65" y="1472" type="curve" smooth="yes"/>
			<point x="65" y="1539" type="line" smooth="yes"/>
			<point x="65" y="1558"/>
			<point x="70" y="1560"/>
			<point x="90" y="1560" type="curve" smooth="yes"/>
			<point x="398" y="1560" type="line" smooth="yes"/>
			<point x="422" y="1560"/>
			<point x="425" y="1553"/>
			<point x="425" y="1528" type="curve" smooth="yes"/>
			<point x="425" y="882" type="line" smooth="yes"/>
			<point x="425" y="814"/>
			<point x="432" y="850"/>
			<point x="451" y="881" type="curve" smooth="yes"/>
			<point x="516" y="983"/>
			<point x="643" y="1060"/>
			<point x="791" y="1060" type="curve" smooth="yes"/>
			<point x="1005" y="1060"/>
			<point x="1115" y="952"/>
			<point x="1115" y="738" type="curve" smooth="yes"/>
			<point x="1115" y="139" type="line" smooth="yes"/>
			<point x="1115" y="113"/>
			<point x="1119" y="110"/>
			<point x="1146" y="110" type="curve" smooth="yes"/>
			<point x="1274" y="110" type="line" smooth="yes"/>
			<point x="1292" y="110"/>
			<point x="1295" y="107"/>
			<point x="1295" y="88" type="curve" smooth="yes"/>
			<point x="1295" y="20" type="line" smooth="yes"/>
			<point x="1295" y="1"/>
			<point x="1291" y="0"/>
			<point x="1272" y="0" type="curve" smooth="yes"/>
			<point x="778" y="0" type="line" smooth="yes"/>
			<point x="760" y="0"/>
			<point x="757" y="5"/>
			<point x="757" y="23" type="curve" smooth="yes"/>
			<point x="757" y="86" type="line" smooth="yes"/>
			<point x="757" y="101"/>
			<point x="758" y="110"/>
			<point x="773" y="110" type="curve" smooth="yes"/>
			<point x="910" y="110" type="line" smooth="yes"/>
			<point x="934" y="110"/>
			<point x="935" y="114"/>
			<point x="935" y="139" type="curve" smooth="yes"/>
			<point x="935" y="716" type="line" smooth="yes"/>
			<point x="935" y="864"/>
			<point x="877" y="946"/>
			<point x="745" y="946" type="curve" smooth="yes"/>
			<point x="549" y="946"/>
			<point x="425" y="772"/>
			<point x="425" y="566" type="curve" smooth="yes"/>
			<point x="425" y="135" type="line" smooth="yes"/>
			<point x="425" y="114"/>
			<point x="431" y="110"/>
			<point x="453" y="110" type="curve" smooth="yes"/>
			<point x="574" y="110" type="line" smooth="yes"/>
			<point x="599" y="110"/>
			<point x="605" y="104"/>
			<point x="605" y="78" type="curve" smooth="yes"/>
			<point x="605" y="28" type="line" smooth="yes"/>
			<point x="605" y="10"/>
			<point x="602" y="0"/>
			<point x="584" y="0" type="curve" smooth="yes"/>
			<point x="85" y="0" type="line" smooth="yes"/>
			<point x="66" y="0"/>
			<point x="65" y="-1"/>
			<point x="65" y="19" type="curve" smooth="yes"/>
			<point x="65" y="87" type="line" smooth="yes"/>
			<point x="65" y="107"/>
			<point x="63" y="110"/>
			<point x="84" y="110" type="curve" smooth="yes"/>
			<point x="216" y="110" type="line" smooth="yes"/>
			<point x="238" y="110"/>
			<point x="245" y="113"/>
			<point x="245" y="134" type="curve" smooth="yes"/>
			<point x="245" y="1423" type="line" smooth="yes"/>
			<point x="245" y="1442"/>
			<point x="242" y="1450"/>
		</contour>
	</outline>
</glyph>
<glyph name="k" format="2">
	<advance width="1252" height="2310"/>
	<unicode hex="006B"/>
	<anchor x="915" y="1040" name="Anchor-0"/>
	<anchor x="664" y="0" name="Anchor-1"/>
	<anchor x="664" y="0" name="Anchor-2"/>
	<outline>
		<contour>
			<point x="206" y="1450" type="curve" smooth="yes"/>
			<point x="91" y="1450" type="line" smooth="yes"/>
			<point x="67" y="1450"/>
			<point x="65" y="1453"/>
			<point x="65" y="1476" type="curve" smooth="yes"/>
			<point x="65" y="1524" type="line" smooth="yes"/>
			<point x="65" y="1552"/>
			<point x="67" y="1560"/>
			<point x="94" y="1560" type="curve" smooth="yes"/>
			<point x="378" y="1560" type="line" smooth="yes"/>
			<point x="408" y="1560"/>
			<point x="425" y="1554"/>
			<point x="425" y="1521" type="curve" smooth="yes"/>
			<point x="425" y="648" type="line" smooth="yes"/>
			<point x="425" y="612"/>
			<point x="420" y="591"/>
			<point x="444" y="610" type="curve" smooth="yes"/>
			<point x="814" y="899" type="line" smooth="yes"/>
			<point x="850" y="927"/>
			<point x="862" y="930"/>
			<point x="794" y="930" type="curve" smooth="yes"/>
			<point x="676" y="930" type="line" smooth="yes"/>
			<point x="644" y="930"/>
			<point x="643" y="939"/>
			<point x="643" y="972" type="curve" smooth="yes"/>
			<point x="643" y="1010" type="line" smooth="yes"/>
			<point x="643" y="1033"/>
			<point x="646" y="1040"/>
			<point x="668" y="1040" type="curve" smooth="yes"/>
			<point x="1160" y="1040" type="line" smooth="yes"/>
			<point x="1183" y="1040"/>
			<point x="1189" y="1034"/>
			<point x="1189" y="1010" type="curve" smooth="yes"/>
			<point x="1189" y="960" type="line" smooth="yes"/>
			<point x="1189" y="932"/>
			<point x="1181" y="930"/>
			<point x="1152" y="930" type="curve" smooth="yes"/>
			<point x="1044" y="930" type="line" smooth="yes"/>
			<point x="1014" y="930"/>
			<point x="999" y="923"/>
			<point x="984" y="910" type="curve" smooth="yes"/>
			<point x="642" y="631" type="line" smooth="yes"/>
			<point x="619" y="612"/>
			<point x="617" y="612"/>
			<point x="638" y="590" type="curve" smooth="yes"/>
			<point x="1073" y="134" type="line" smooth="yes"/>
			<point x="1090" y="116"/>
			<point x="1095" y="110"/>
			<point x="1132" y="110" type="curve" smooth="yes"/>
			<point x="1194" y="110" type="line" smooth="yes"/>
			<point x="1212" y="110"/>
			<point x="1217" y="104"/>
			<point x="1217" y="85" type="curve" smooth="yes"/>
			<point x="1217" y="38" type="line" smooth="yes"/>
			<point x="1217" y="6"/>
			<point x="1208" y="0"/>
			<point x="1178" y="0" type="curve" smooth="yes"/>
			<point x="772" y="0" type="line" smooth="yes"/>
			<point x="744" y="0"/>
			<point x="743" y="9"/>
			<point x="743" y="38" type="curve" smooth="yes"/>
			<point x="743" y="75" type="line" smooth="yes"/>
			<point x="743" y="104"/>
			<point x="746" y="110"/>
			<point x="774" y="110" type="curve" smooth="yes"/>
			<point x="823" y="110" type="line" smooth="yes"/>
			<point x="867" y="110"/>
			<point x="860" y="118"/>
			<point x="843" y="136" type="curve" smooth="yes"/>
			<point x="444" y="546" type="line" smooth="yes"/>
			<point x="429" y="561"/>
			<point x="425" y="554"/>
			<point x="425" y="518" type="curve" smooth="yes"/>
			<point x="425" y="146" type="line" smooth="yes"/>
			<point x="425" y="119"/>
			<point x="429" y="110"/>
			<point x="458" y="110" type="curve" smooth="yes"/>
			<point x="548" y="110" type="line" smooth="yes"/>
			<point x="569" y="110"/>
			<point x="585" y="107"/>
			<point x="585" y="84" type="curve" smooth="yes"/>
			<point x="585" y="22" type="line" smooth="yes"/>
			<point x="585" y="2"/>
			<point x="577" y="0"/>
			<point x="556" y="0" type="curve" smooth="yes"/>
			<point x="90" y="0" type="line" smooth="yes"/>
			<point x="69" y="0"/>
			<point x="65" y="11"/>
			<point x="65" y="30" type="curve" smooth="yes"/>
			<point x="65" y="92" type="line" smooth="yes"/>
			<point x="65" y="109"/>
			<point x="74" y="110"/>
			<point x="92" y="110" type="curve" smooth="yes"/>
			<point x="210" y="110" type="line" smooth="yes"/>
			<point x="237" y="110"/>
			<point x="245" y="112"/>
			<point x="245" y="138" type="curve" smooth="yes"/>
			<point x="245" y="1418" type="line" smooth="yes"/>
			<point x="245" y="1447"/>
			<point x="233" y="1450"/>
		</contour>
	</outline>
</glyph>
<glyph name="l" format="2">
	<advance width="654" height="2310"/>
	<unicode hex="006C"/>
	<anchor x="328" y="1696" name="Anchor-0"/>
	<anchor x="571" y="1040" name="Anchor-1"/>
	<anchor x="335" y="0" name="Anchor-2"/>
	<anchor x="571" y="1040" name="Anchor-3"/>
	<outline>
		<contour>
			<point x="197" y="1450" type="curve" smooth="yes"/>
			<point x="87" y="1450" type="line" smooth="yes"/>
			<point x="56" y="1450"/>
			<point x="54" y="1464"/>
			<point x="54" y="1492" type="curve" smooth="yes"/>
			<point x="54" y="1530" type="line" smooth="yes"/>
			<point x="54" y="1558"/>
			<point x="70" y="1560"/>
			<point x="95" y="1560" type="curve" smooth="yes"/>
			<point x="369" y="1560" type="line" smooth="yes"/>
			<point x="404" y="1560"/>
			<point x="414" y="1559"/>
			<point x="414" y="1524" type="curve" smooth="yes"/>
			<point x="414" y="154" type="line" smooth="yes"/>
			<point x="414" y="119"/>
			<point x="408" y="110"/>
			<point x="445" y="110" type="curve" smooth="yes"/>
			<point x="567" y="110" type="line" smooth="yes"/>
			<point x="586" y="110"/>
			<point x="594" y="105"/>
			<point x="594" y="84" type="curve" smooth="yes"/>
			<point x="594" y="40" type="line" smooth="yes"/>
			<point x="594" y="2"/>
			<point x="582" y="0"/>
			<point x="547" y="0" type="curve" smooth="yes"/>
			<point x="93" y="0" type="line" smooth="yes"/>
			<point x="63" y="0"/>
			<point x="54" y="4"/>
			<point x="54" y="36" type="curve" smooth="yes"/>
			<point x="54" y="76" type="line" smooth="yes"/>
			<point x="54" y="100"/>
			<point x="55" y="110"/>
			<point x="79" y="110" type="curve" smooth="yes"/>
			<point x="203" y="110" type="line" smooth="yes"/>
			<point x="235" y="110"/>
			<point x="234" y="112"/>
			<point x="234" y="144" type="curve" smooth="yes"/>
			<point x="234" y="1416" type="line" smooth="yes"/>
			<point x="234" y="1445"/>
			<point x="228" y="1450"/>
		</contour>
	</outline>
</glyph>
<glyph name="m" format="2">
	<advance width="1871" height="2310"/>
	<unicode hex="006D"/>
	<anchor x="1014" y="1040" name="Anchor-0"/>
	<anchor x="955" y="0" name="Anchor-1"/>
	<anchor x="955" y="0" name="Anchor-2"/>
	<outline>
		<contour>
			<point x="95" y="30" type="curve" smooth="yes"/>
			<point x="95" y="88" type="line" smooth="yes"/>
			<point x="95" y="106"/>
			<point x="102" y="110"/>
			<point x="121" y="110" type="curve" smooth="yes"/>
			<point x="213" y="110" type="line" smooth="yes"/>
			<point x="248" y="110"/>
			<point x="255" y="114"/>
			<point x="255" y="148" type="curve" smooth="yes"/>
			<point x="255" y="898" type="line" smooth="yes"/>
			<point x="255" y="927"/>
			<point x="243" y="930"/>
			<point x="217" y="930" type="curve" smooth="yes"/>
			<point x="135" y="930" type="line" smooth="yes"/>
			<point x="102" y="930"/>
			<point x="95" y="934"/>
			<point x="95" y="966" type="curve" smooth="yes"/>
			<point x="95" y="998" type="line" smooth="yes"/>
			<point x="95" y="1033"/>
			<point x="99" y="1040"/>
			<point x="133" y="1040" type="curve" smooth="yes"/>
			<point x="395" y="1040" type="line" smooth="yes"/>
			<point x="424" y="1040"/>
			<point x="435" y="1037"/>
			<point x="435" y="1006" type="curve" smooth="yes"/>
			<point x="435" y="946" type="line" smooth="yes"/>
			<point x="435" y="852"/>
			<point x="450" y="879"/>
			<point x="475" y="915" type="curve" smooth="yes"/>
			<point x="536" y="1001"/>
			<point x="629" y="1060"/>
			<point x="763" y="1060" type="curve" smooth="yes"/>
			<point x="908" y="1060"/>
			<point x="974" y="1003"/>
			<point x="1023" y="910" type="curve" smooth="yes"/>
			<point x="1041" y="876"/>
			<point x="1052" y="883"/>
			<point x="1069" y="903" type="curve" smooth="yes"/>
			<point x="1143" y="989"/>
			<point x="1235" y="1060"/>
			<point x="1375" y="1060" type="curve" smooth="yes"/>
			<point x="1589" y="1060"/>
			<point x="1659" y="952"/>
			<point x="1659" y="738" type="curve" smooth="yes"/>
			<point x="1659" y="154" type="line" smooth="yes"/>
			<point x="1659" y="118"/>
			<point x="1663" y="110"/>
			<point x="1701" y="110" type="curve" smooth="yes"/>
			<point x="1799" y="110" type="line" smooth="yes"/>
			<point x="1818" y="110"/>
			<point x="1821" y="102"/>
			<point x="1821" y="82" type="curve" smooth="yes"/>
			<point x="1821" y="44" type="line" smooth="yes"/>
			<point x="1821" y="4"/>
			<point x="1813" y="0"/>
			<point x="1775" y="0" type="curve" smooth="yes"/>
			<point x="1343" y="0" type="line" smooth="yes"/>
			<point x="1304" y="0"/>
			<point x="1293" y="2"/>
			<point x="1293" y="44" type="curve" smooth="yes"/>
			<point x="1293" y="72" type="line" smooth="yes"/>
			<point x="1293" y="104"/>
			<point x="1298" y="110"/>
			<point x="1329" y="110" type="curve" smooth="yes"/>
			<point x="1433" y="110" type="line" smooth="yes"/>
			<point x="1471" y="110"/>
			<point x="1479" y="113"/>
			<point x="1479" y="150" type="curve" smooth="yes"/>
			<point x="1479" y="716" type="line" smooth="yes"/>
			<point x="1479" y="864"/>
			<point x="1441" y="946"/>
			<point x="1329" y="946" type="curve" smooth="yes"/>
			<point x="1113" y="946"/>
			<point x="1047" y="772"/>
			<point x="1047" y="566" type="curve" smooth="yes"/>
			<point x="1047" y="148" type="line" smooth="yes"/>
			<point x="1047" y="111"/>
			<point x="1062" y="110"/>
			<point x="1095" y="110" type="curve" smooth="yes"/>
			<point x="1165" y="110" type="line" smooth="yes"/>
			<point x="1194" y="110"/>
			<point x="1209" y="108"/>
			<point x="1209" y="76" type="curve" smooth="yes"/>
			<point x="1209" y="40" type="line" smooth="yes"/>
			<point x="1209" y="8"/>
			<point x="1205" y="0"/>
			<point x="1171" y="0" type="curve" smooth="yes"/>
			<point x="745" y="0" type="line" smooth="yes"/>
			<point x="717" y="0"/>
			<point x="707" y="4"/>
			<point x="707" y="34" type="curve" smooth="yes"/>
			<point x="707" y="64" type="line" smooth="yes"/>
			<point x="707" y="103"/>
			<point x="711" y="110"/>
			<point x="749" y="110" type="curve" smooth="yes"/>
			<point x="823" y="110" type="line" smooth="yes"/>
			<point x="860" y="110"/>
			<point x="867" y="114"/>
			<point x="867" y="150" type="curve" smooth="yes"/>
			<point x="867" y="716" type="line" smooth="yes"/>
			<point x="867" y="864"/>
			<point x="829" y="946"/>
			<point x="717" y="946" type="curve" smooth="yes"/>
			<point x="521" y="946"/>
			<point x="435" y="772"/>
			<point x="435" y="566" type="curve" smooth="yes"/>
			<point x="435" y="152" type="line" smooth="yes"/>
			<point x="435" y="110"/>
			<point x="435" y="110"/>
			<point x="477" y="110" type="curve" smooth="yes"/>
			<point x="585" y="110" type="line" smooth="yes"/>
			<point x="613" y="110"/>
			<point x="621" y="106"/>
			<point x="621" y="76" type="curve" smooth="yes"/>
			<point x="621" y="36" type="line" smooth="yes"/>
			<point x="621" y="17"/>
			<point x="618" y="0"/>
			<point x="597" y="0" type="curve" smooth="yes"/>
			<point x="123" y="0" type="line" smooth="yes"/>
			<point x="101" y="0"/>
			<point x="95" y="6"/>
		</contour>
	</outline>
</glyph>
<glyph name="o" format="2">
	<advance width="1166" height="2310"/>
	<unicode hex="006F"/>
	<anchor x="583" y="1040" name="Anchor-0"/>
	<anchor x="580" y="0" name="Anchor-1"/>
	<anchor x="580" y="0" name="Anchor-2"/>
	<outline>
		<contour>
			<point x="315" y="540" type="curve" smooth="yes"/>
			<point x="315" y="292"/>
			<point x="365" y="70"/>
			<point x="583" y="70" type="curve" smooth="yes"/>
			<point x="801" y="70"/>
			<point x="851" y="292"/>
			<point x="851" y="500" type="curve" smooth="yes"/>
			<point x="851" y="748"/>
			<point x="801" y="970"/>
			<point x="583" y="970" type="curve" smooth="yes"/>
			<point x="365" y="970"/>
			<point x="315" y="748"/>
		</contour>
		<contour>
			<point x="105" y="500" type="curve" smooth="yes"/>
			<point x="105" y="820"/>
			<point x="261" y="1060"/>
			<point x="583" y="1060" type="curve" smooth="yes"/>
			<point x="905" y="1060"/>
			<point x="1061" y="820"/>
			<point x="1061" y="540" type="curve" smooth="yes"/>
			<point x="1061" y="220"/>
			<point x="905" y="-20"/>
			<point x="583" y="-20" type="curve" smooth="yes"/>
			<point x="261" y="-20"/>
			<point x="105" y="220"/>
		</contour>
	</outline>
</glyph>
<glyph name="p" format="2">
	<advance width="1306" height="2310"/>
	<unicode hex="0070"/>
	<anchor x="813" y="1040" name="Anchor-0"/>
	<anchor x="892" y="0" name="Anchor-1"/>
	<anchor x="892" y="0" name="Anchor-2"/>
	<outline>
		<contour>
			<point x="425" y="520" type="curve" smooth="yes"/>
			<point x="425" y="292"/>
			<point x="539" y="84"/>
			<point x="721" y="84" type="curve" smooth="yes"/>
			<point x="889" y="84"/>
			<point x="1001" y="292"/>
			<point x="1001" y="520" type="curve" smooth="yes"/>
			<point x="1001" y="748"/>
			<point x="889" y="956"/>
			<point x="721" y="956" type="curve" smooth="yes"/>
			<point x="539" y="956"/>
			<point x="425" y="748"/>
		</contour>
		<contour>
			<point x="65" y="970" type="curve" smooth="yes"/>
			<point x="65" y="1008" type="line" smooth="yes"/>
			<point x="65" y="1037"/>
			<point x="76" y="1040"/>
			<point x="102" y="1040" type="curve" smooth="yes"/>
			<point x="388" y="1040" type="line" smooth="yes"/>
			<point x="419" y="1040"/>
			<point x="425" y="1036"/>
			<point x="425" y="1006" type="curve" smooth="yes"/>
			<point x="425" y="892" type="line" smooth="yes"/>
			<point x="425" y="842"/>
			<point x="431" y="844"/>
			<point x="443" y="866" type="curve" smooth="yes"/>
			<point x="508" y="984"/>
			<point x="622" y="1060"/>
			<point x="757" y="1060" type="curve" smooth="yes"/>
			<point x="995" y="1060"/>
			<point x="1201" y="860"/>
			<point x="1201" y="520" type="curve" smooth="yes"/>
			<point x="1201" y="180"/>
			<point x="995" y="-18"/>
			<point x="757" y="-18" type="curve" smooth="yes"/>
			<point x="633" y="-18"/>
			<point x="532" y="39"/>
			<point x="465" y="138" type="curve" smooth="yes"/>
			<point x="435" y="182"/>
			<point x="425" y="184"/>
			<point x="425" y="78" type="curve" smooth="yes"/>
			<point x="425" y="-344" type="line" smooth="yes"/>
			<point x="425" y="-385"/>
			<point x="432" y="-390"/>
			<point x="472" y="-390" type="curve" smooth="yes"/>
			<point x="570" y="-390" type="line" smooth="yes"/>
			<point x="600" y="-390"/>
			<point x="605" y="-396"/>
			<point x="605" y="-428" type="curve" smooth="yes"/>
			<point x="605" y="-469" type="line" smooth="yes"/>
			<point x="605" y="-498"/>
			<point x="602" y="-500"/>
			<point x="574" y="-500" type="curve" smooth="yes"/>
			<point x="96" y="-500" type="line" smooth="yes"/>
			<point x="69" y="-500"/>
			<point x="65" y="-489"/>
			<point x="65" y="-464" type="curve" smooth="yes"/>
			<point x="65" y="-424" type="line" smooth="yes"/>
			<point x="65" y="-398"/>
			<point x="67" y="-390"/>
			<point x="92" y="-390" type="curve" smooth="yes"/>
			<point x="206" y="-390" type="line" smooth="yes"/>
			<point x="243" y="-390"/>
			<point x="245" y="-382"/>
			<point x="245" y="-344" type="curve" smooth="yes"/>
			<point x="245" y="892" type="line" smooth="yes"/>
			<point x="245" y="927"/>
			<point x="233" y="930"/>
			<point x="200" y="930" type="curve" smooth="yes"/>
			<point x="100" y="930" type="line" smooth="yes"/>
			<point x="68" y="930"/>
			<point x="65" y="940"/>
		</contour>
	</outline>
</glyph>
<glyph name="q" format="2">
	<advance width="1286" height="2310"/>
	<unicode hex="0071"/>
	<anchor x="621" y="1040" name="Anchor-0"/>
	<anchor x="530" y="0" name="Anchor-1"/>
	<anchor x="530" y="0" name="Anchor-2"/>
	<outline>
		<contour>
			<point x="881" y="520" type="curve" smooth="yes"/>
			<point x="881" y="748"/>
			<point x="767" y="956"/>
			<point x="585" y="956" type="curve" smooth="yes"/>
			<point x="417" y="956"/>
			<point x="305" y="748"/>
			<point x="305" y="520" type="curve" smooth="yes"/>
			<point x="305" y="292"/>
			<point x="417" y="84"/>
			<point x="585" y="84" type="curve" smooth="yes"/>
			<point x="767" y="84"/>
			<point x="881" y="292"/>
		</contour>
		<contour>
			<point x="1117" y="-390" type="curve" smooth="yes"/>
			<point x="1210" y="-390" type="line" smooth="yes"/>
			<point x="1231" y="-390"/>
			<point x="1241" y="-396"/>
			<point x="1241" y="-416" type="curve" smooth="yes"/>
			<point x="1241" y="-464" type="line" smooth="yes"/>
			<point x="1241" y="-498"/>
			<point x="1233" y="-500"/>
			<point x="1198" y="-500" type="curve" smooth="yes"/>
			<point x="738" y="-500" type="line" smooth="yes"/>
			<point x="707" y="-500"/>
			<point x="701" y="-494"/>
			<point x="701" y="-462" type="curve" smooth="yes"/>
			<point x="701" y="-430" type="line" smooth="yes"/>
			<point x="701" y="-397"/>
			<point x="704" y="-390"/>
			<point x="736" y="-390" type="curve" smooth="yes"/>
			<point x="834" y="-390" type="line" smooth="yes"/>
			<point x="878" y="-390"/>
			<point x="881" y="-381"/>
			<point x="881" y="-336" type="curve" smooth="yes"/>
			<point x="881" y="124" type="line" smooth="yes"/>
			<point x="881" y="196"/>
			<point x="871" y="188"/>
			<point x="854" y="159" type="curve" smooth="yes"/>
			<point x="787" y="47"/>
			<point x="682" y="-18"/>
			<point x="549" y="-18" type="curve" smooth="yes"/>
			<point x="311" y="-18"/>
			<point x="105" y="180"/>
			<point x="105" y="520" type="curve" smooth="yes"/>
			<point x="105" y="860"/>
			<point x="311" y="1060"/>
			<point x="549" y="1060" type="curve" smooth="yes"/>
			<point x="680" y="1060"/>
			<point x="785" y="997"/>
			<point x="852" y="886" type="curve" smooth="yes"/>
			<point x="870" y="857"/>
			<point x="881" y="852"/>
			<point x="881" y="928" type="curve" smooth="yes"/>
			<point x="881" y="998" type="line" smooth="yes"/>
			<point x="881" y="1037"/>
			<point x="898" y="1040"/>
			<point x="938" y="1040" type="curve" smooth="yes"/>
			<point x="1200" y="1040" type="line" smooth="yes"/>
			<point x="1227" y="1040"/>
			<point x="1241" y="1038"/>
			<point x="1241" y="1008" type="curve" smooth="yes"/>
			<point x="1241" y="970" type="line" smooth="yes"/>
			<point x="1241" y="939"/>
			<point x="1233" y="930"/>
			<point x="1200" y="930" type="curve" smooth="yes"/>
			<point x="1105" y="930" type="line" smooth="yes"/>
			<point x="1072" y="930"/>
			<point x="1061" y="924"/>
			<point x="1061" y="892" type="curve" smooth="yes"/>
			<point x="1061" y="-348" type="line" smooth="yes"/>
			<point x="1061" y="-389"/>
			<point x="1075" y="-390"/>
		</contour>
	</outline>
</glyph>
<glyph name="v" format="2">
	<advance width="1188" height="2310"/>
	<unicode hex="0076"/>
	<anchor x="639" y="1040" name="Anchor-0"/>
	<anchor x="612" y="0" name="Anchor-1"/>
	<anchor x="612" y="0" name="Anchor-2"/>
	<outline>
		<contour>
			<point x="663" y="285" type="curve" smooth="yes"/>
			<point x="892" y="897" type="line" smooth="yes"/>
			<point x="902" y="924"/>
			<point x="897" y="930"/>
			<point x="863" y="930" type="curve" smooth="yes"/>
			<point x="751" y="930" type="line" smooth="yes"/>
			<point x="730" y="930"/>
			<point x="725" y="936"/>
			<point x="725" y="959" type="curve" smooth="yes"/>
			<point x="725" y="1013" type="line" smooth="yes"/>
			<point x="725" y="1030"/>
			<point x="731" y="1040"/>
			<point x="748" y="1040" type="curve" smooth="yes"/>
			<point x="1137" y="1040" type="line" smooth="yes"/>
			<point x="1165" y="1040"/>
			<point x="1173" y="1036"/>
			<point x="1173" y="1006" type="curve" smooth="yes"/>
			<point x="1173" y="953" type="line" smooth="yes"/>
			<point x="1173" y="932"/>
			<point x="1165" y="930"/>
			<point x="1143" y="930" type="curve" smooth="yes"/>
			<point x="1039" y="930" type="line" smooth="yes"/>
			<point x="1010" y="930"/>
			<point x="1012" y="923"/>
			<point x="1004" y="903" type="curve" smooth="yes"/>
			<point x="666" y="-1" type="line" smooth="yes"/>
			<point x="660" y="-17"/>
			<point x="651" y="-20"/>
			<point x="628" y="-20" type="curve" smooth="yes"/>
			<point x="583" y="-20" type="line" smooth="yes"/>
			<point x="560" y="-20"/>
			<point x="550" y="-17"/>
			<point x="544" y="-1" type="curve" smooth="yes"/>
			<point x="195" y="909" type="line" smooth="yes"/>
			<point x="188" y="929"/>
			<point x="177" y="930"/>
			<point x="149" y="930" type="curve" smooth="yes"/>
			<point x="39" y="930" type="line" smooth="yes"/>
			<point x="22" y="930"/>
			<point x="15" y="938"/>
			<point x="15" y="954" type="curve" smooth="yes"/>
			<point x="15" y="1005" type="line" smooth="yes"/>
			<point x="15" y="1035"/>
			<point x="30" y="1040"/>
			<point x="57" y="1040" type="curve" smooth="yes"/>
			<point x="529" y="1040" type="line" smooth="yes"/>
			<point x="550" y="1040"/>
			<point x="557" y="1035"/>
			<point x="557" y="1012" type="curve" smooth="yes"/>
			<point x="557" y="962" type="line" smooth="yes"/>
			<point x="557" y="930"/>
			<point x="547" y="930"/>
			<point x="515" y="930" type="curve" smooth="yes"/>
			<point x="419" y="930" type="line" smooth="yes"/>
			<point x="390" y="930"/>
			<point x="388" y="921"/>
			<point x="395" y="900" type="curve" smooth="yes"/>
			<point x="606" y="288" type="line" smooth="yes"/>
			<point x="621" y="246"/>
			<point x="627" y="224"/>
			<point x="634" y="224" type="curve" smooth="yes"/>
			<point x="641" y="224"/>
			<point x="648" y="244"/>
		</contour>
	</outline>
</glyph>
<glyph name="x" format="2">
	<advance width="1193" height="2310"/>
	<unicode hex="0078"/>
	<anchor x="660" y="1040" name="Anchor-0"/>
	<anchor x="592" y="0" name="Anchor-1"/>
	<anchor x="592" y="0" name="Anchor-2"/>
	<outline>
		<contour>
			<point x="703" y="729" type="curve" smooth="yes"/>
			<point x="861" y="906" type="line" smooth="yes"/>
			<point x="877" y="924"/>
			<point x="869" y="930"/>
			<point x="851" y="930" type="curve" smooth="yes"/>
			<point x="760" y="930" type="line" smooth="yes"/>
			<point x="744" y="930"/>
			<point x="735" y="931"/>
			<point x="735" y="947" type="curve" smooth="yes"/>
			<point x="735" y="1014" type="line" smooth="yes"/>
			<point x="735" y="1033"/>
			<point x="739" y="1040"/>
			<point x="757" y="1040" type="curve" smooth="yes"/>
			<point x="1131" y="1040" type="line" smooth="yes"/>
			<point x="1149" y="1040"/>
			<point x="1153" y="1033"/>
			<point x="1153" y="1014" type="curve" smooth="yes"/>
			<point x="1153" y="952" type="line" smooth="yes"/>
			<point x="1153" y="934"/>
			<point x="1147" y="930"/>
			<point x="1128" y="930" type="curve" smooth="yes"/>
			<point x="1067" y="930" type="line" smooth="yes"/>
			<point x="1038" y="930"/>
			<point x="1030" y="925"/>
			<point x="1017" y="911" type="curve" smooth="yes"/>
			<point x="766" y="633" type="line" smooth="yes"/>
			<point x="736" y="600"/>
			<point x="712" y="583"/>
			<point x="712" y="565" type="curve" smooth="yes"/>
			<point x="712" y="547"/>
			<point x="733" y="529"/>
			<point x="759" y="493" type="curve" smooth="yes"/>
			<point x="1025" y="133" type="line" smooth="yes"/>
			<point x="1039" y="114"/>
			<point x="1041" y="110"/>
			<point x="1075" y="110" type="curve" smooth="yes"/>
			<point x="1125" y="110" type="line" smooth="yes"/>
			<point x="1145" y="110"/>
			<point x="1153" y="107"/>
			<point x="1153" y="88" type="curve" smooth="yes"/>
			<point x="1153" y="22" type="line" smooth="yes"/>
			<point x="1153" y="0"/>
			<point x="1143" y="0"/>
			<point x="1121" y="0" type="curve" smooth="yes"/>
			<point x="683" y="0" type="line" smooth="yes"/>
			<point x="663" y="0"/>
			<point x="661" y="8"/>
			<point x="661" y="29" type="curve" smooth="yes"/>
			<point x="661" y="83" type="line" smooth="yes"/>
			<point x="661" y="104"/>
			<point x="670" y="110"/>
			<point x="691" y="110" type="curve" smooth="yes"/>
			<point x="792" y="110" type="line" smooth="yes"/>
			<point x="830" y="110"/>
			<point x="810" y="130"/>
			<point x="796" y="149" type="curve" smooth="yes"/>
			<point x="634" y="365" type="line" smooth="yes"/>
			<point x="608" y="400"/>
			<point x="598" y="426"/>
			<point x="585" y="426" type="curve" smooth="yes"/>
			<point x="572" y="426"/>
			<point x="554" y="400"/>
			<point x="526" y="368" type="curve" smooth="yes"/>
			<point x="317" y="135" type="line" smooth="yes"/>
			<point x="301" y="117"/>
			<point x="303" y="110"/>
			<point x="345" y="110" type="curve" smooth="yes"/>
			<point x="449" y="110" type="line" smooth="yes"/>
			<point x="470" y="110"/>
			<point x="473" y="103"/>
			<point x="473" y="81" type="curve" smooth="yes"/>
			<point x="473" y="27" type="line" smooth="yes"/>
			<point x="473" y="8"/>
			<point x="471" y="0"/>
			<point x="453" y="0" type="curve" smooth="yes"/>
			<point x="77" y="0" type="line" smooth="yes"/>
			<point x="52" y="0"/>
			<point x="45" y="3"/>
			<point x="45" y="27" type="curve" smooth="yes"/>
			<point x="45" y="79" type="line" smooth="yes"/>
			<point x="45" y="97"/>
			<point x="49" y="110"/>
			<point x="69" y="110" type="curve" smooth="yes"/>
			<point x="119" y="110" type="line" smooth="yes"/>
			<point x="148" y="110"/>
			<point x="150" y="117"/>
			<point x="163" y="131" type="curve" smooth="yes"/>
			<point x="454" y="453" type="line" smooth="yes"/>
			<point x="485" y="488"/>
			<point x="505" y="508"/>
			<point x="505" y="527" type="curve" smooth="yes"/>
			<point x="505" y="548"/>
			<point x="484" y="568"/>
			<point x="453" y="610" type="curve" smooth="yes"/>
			<point x="240" y="897" type="line" smooth="yes"/>
			<point x="221" y="922"/>
			<point x="219" y="930"/>
			<point x="173" y="930" type="curve" smooth="yes"/>
			<point x="81" y="930" type="line" smooth="yes"/>
			<point x="51" y="930"/>
			<point x="45" y="935"/>
			<point x="45" y="966" type="curve" smooth="yes"/>
			<point x="45" y="1012" type="line" smooth="yes"/>
			<point x="45" y="1036"/>
			<point x="57" y="1040"/>
			<point x="79" y="1040" type="curve" smooth="yes"/>
			<point x="543" y="1040" type="line" smooth="yes"/>
			<point x="566" y="1040"/>
			<point x="567" y="1031"/>
			<point x="567" y="1008" type="curve" smooth="yes"/>
			<point x="567" y="958" type="line" smooth="yes"/>
			<point x="567" y="935"/>
			<point x="560" y="930"/>
			<point x="539" y="930" type="curve" smooth="yes"/>
			<point x="464" y="930" type="line" smooth="yes"/>
			<point x="432" y="930"/>
			<point x="446" y="912"/>
			<point x="457" y="897" type="curve" smooth="yes"/>
			<point x="586" y="727" type="line" smooth="yes"/>
			<point x="613" y="691"/>
			<point x="624" y="670"/>
			<point x="638" y="670" type="curve" smooth="yes"/>
			<point x="653" y="670"/>
			<point x="671" y="694"/>
		</contour>
	</outline>
</glyph>
<glyph name="z" format="2">
	<advance width="1110" height="2310"/>
	<unicode hex="007A"/>
	<anchor x="553" y="1040" name="Anchor-0"/>
	<anchor x="564" y="0" name="Anchor-1"/>
	<anchor x="564" y="0" name="Anchor-2"/>
	<outline>
		<contour>
			<point x="497" y="940" type="line" smooth="yes"/>
			<point x="264" y="940"/>
			<point x="243" y="850"/>
			<point x="241" y="671" type="curve" smooth="yes"/>
			<point x="241" y="648"/>
			<point x="242" y="636"/>
			<point x="216" y="636" type="curve" smooth="yes"/>
			<point x="177" y="636" type="line" smooth="yes"/>
			<point x="148" y="636"/>
			<point x="141" y="639"/>
			<point x="141" y="667" type="curve" smooth="yes"/>
			<point x="141" y="990" type="line" smooth="yes"/>
			<point x="141" y="1036"/>
			<point x="148" y="1040"/>
			<point x="195" y="1040" type="curve" smooth="yes"/>
			<point x="969" y="1040" type="line" smooth="yes"/>
			<point x="994" y="1040"/>
			<point x="1003" y="1036"/>
			<point x="1003" y="1009" type="curve" smooth="yes"/>
			<point x="1003" y="976" type="line" smooth="yes"/>
			<point x="1003" y="935"/>
			<point x="991" y="926"/>
			<point x="974" y="905" type="curve" smooth="yes"/>
			<point x="346" y="142" type="line" smooth="yes"/>
			<point x="315" y="105"/>
			<point x="300" y="100"/>
			<point x="373" y="100" type="curve" smooth="yes"/>
			<point x="623" y="100" type="line" smooth="yes"/>
			<point x="909" y="100"/>
			<point x="924" y="176"/>
			<point x="925" y="408" type="curve" smooth="yes"/>
			<point x="925" y="428"/>
			<point x="934" y="428"/>
			<point x="954" y="428" type="curve" smooth="yes"/>
			<point x="991" y="428" type="line" smooth="yes"/>
			<point x="1017" y="428"/>
			<point x="1025" y="425"/>
			<point x="1025" y="400" type="curve" smooth="yes"/>
			<point x="1025" y="60" type="line" smooth="yes"/>
			<point x="1025" y="7"/>
			<point x="1021" y="0"/>
			<point x="969" y="0" type="curve" smooth="yes"/>
			<point x="131" y="0" type="line" smooth="yes"/>
			<point x="102" y="0"/>
			<point x="95" y="8"/>
			<point x="95" y="36" type="curve" smooth="yes"/>
			<point x="95" y="73" type="line" smooth="yes"/>
			<point x="95" y="114"/>
			<point x="115" y="124"/>
			<point x="133" y="146" type="curve" smooth="yes"/>
			<point x="746" y="893" type="line" smooth="yes"/>
			<point x="784" y="939"/>
			<point x="761" y="940"/>
			<point x="677" y="940" type="curve" smooth="yes"/>
		</contour>
	</outline>
</glyph>
<glyph name="bar" format="2">
	<advance width="600" height="2310"/>
	<unicode hex="007C"/>
	<outline>
		<contour>
			<point x="257" y="1560" type="curve" smooth="yes"/>
			<point x="339" y="1560" type="line" smooth="yes"/>
			<point x="384" y="1560"/>
			<point x="390" y="1555"/>
			<point x="390" y="1512" type="curve" smooth="yes"/>
			<point x="390" y="-454" type="line" smooth="yes"/>
			<point x="390" y="-486"/>
			<point x="388" y="-500"/>
			<point x="353" y="-500" type="curve" smooth="yes"/>
			<point x="257" y="-500" type="line" smooth="yes"/>
			<point x="216" y="-500"/>
			<point x="210" y="-495"/>
			<point x="210" y="-456" type="curve" smooth="yes"/>
			<point x="210" y="1506" type="line" smooth="yes"/>
			<point x="210" y="1551"/>
			<point x="212" y="1560"/>
		</contour>
	</outline>
</glyph>
<glyph name="cent" format="2">
	<advance width="1116" height="2310"/>
	<unicode hex="00A2"/>
	<outline>
		<contour>
			<point x="652" y="1230" type="curve" smooth="yes"/>
			<point x="722" y="1230" type="line" smooth="yes"/>
			<point x="743" y="1230"/>
			<point x="746" y="1225"/>
			<point x="743" y="1205" type="curve" smooth="yes"/>
			<point x="548" y="-146" type="line" smooth="yes"/>
			<point x="545" y="-164"/>
			<point x="537" y="-170"/>
			<point x="518" y="-170" type="curve" smooth="yes"/>
			<point x="464" y="-170" type="line" smooth="yes"/>
			<point x="442" y="-170"/>
			<point x="438" y="-164"/>
			<point x="440" y="-147" type="curve" smooth="yes"/>
			<point x="635" y="1216" type="line" smooth="yes"/>
			<point x="637" y="1229"/>
			<point x="637" y="1230"/>
		</contour>
		<component base="c"/>
	</outline>
</glyph>
<glyph name="yen" format="2">
	<advance width="1570" height="0"/>
	<unicode hex="00A5"/>
	<outline>
		<contour>
			<point x="404" y="740" type="curve" smooth="yes"/>
			<point x="1216" y="740" type="line" smooth="yes"/>
			<point x="1246" y="740"/>
			<point x="1250" y="736"/>
			<point x="1250" y="712" type="curve" smooth="yes"/>
			<point x="1250" y="663" type="line" smooth="yes"/>
			<point x="1250" y="639"/>
			<point x="1247" y="630"/>
			<point x="1213" y="630" type="curve" smooth="yes"/>
			<point x="401" y="630" type="line" smooth="yes"/>
			<point x="369" y="630"/>
			<point x="368" y="634"/>
			<point x="368" y="660" type="curve" smooth="yes"/>
			<point x="368" y="712" type="line" smooth="yes"/>
			<point x="368" y="735"/>
			<point x="377" y="740"/>
		</contour>
		<contour>
			<point x="404" y="460" type="curve" smooth="yes"/>
			<point x="1216" y="460" type="line" smooth="yes"/>
			<point x="1246" y="460"/>
			<point x="1250" y="456"/>
			<point x="1250" y="432" type="curve" smooth="yes"/>
			<point x="1250" y="383" type="line" smooth="yes"/>
			<point x="1250" y="359"/>
			<point x="1247" y="350"/>
			<point x="1213" y="350" type="curve" smooth="yes"/>
			<point x="401" y="350" type="line" smooth="yes"/>
			<point x="369" y="350"/>
			<point x="368" y="354"/>
			<point x="368" y="380" type="curve" smooth="yes"/>
			<point x="368" y="432" type="line" smooth="yes"/>
			<point x="368" y="455"/>
			<point x="377" y="460"/>
		</contour>
		<component base="Y"/>
	</outline>
</glyph>
<glyph name="copyright" format="2">
	<advance width="1739" height="0"/>
	<unicode hex="00A9"/>
	<outline>
		<contour>
			<point x="870" y="1520" type="curve" smooth="yes"/>
			<point x="1314" y="1520"/>
			<point x="1641" y="1192"/>
			<point x="1641" y="750" type="curve" smooth="yes"/>
			<point x="1641" y="306"/>
			<point x="1312" y="-20"/>
			<point x="870" y="-20" type="curve" smooth="yes"/>
			<point x="426" y="-20"/>
			<point x="100" y="308"/>
			<point x="100" y="750" type="curve" smooth="yes"/>
			<point x="100" y="1193"/>
			<point x="428" y="1520"/>
		</contour>
		<contour>
			<point x="870" y="73" type="curve" smooth="yes"/>
			<point x="1253" y="73"/>
			<point x="1546" y="349"/>
			<point x="1546" y="750" type="curve" smooth="yes"/>
			<point x="1546" y="1151"/>
			<point x="1251" y="1427"/>
			<point x="870" y="1427" type="curve" smooth="yes"/>
			<point x="487" y="1427"/>
			<point x="194" y="1151"/>
			<point x="194" y="750" type="curve" smooth="yes"/>
			<point x="194" y="347"/>
			<point x="489" y="73"/>
		</contour>
		<component base="C" xScale="0.6" yScale="0.6" xOffset="354" yOffset="290"/>
	</outline>
</glyph>
<glyph name="threesuperior" format="2">
	<advance width="638" height="2310"/>
	<unicode hex="00B3"/>
	<outline>
		<contour>
			<point x="40" y="1093" type="curve" smooth="yes"/>
			<point x="40" y="1151"/>
			<point x="82" y="1172"/>
			<point x="117" y="1172" type="curve" smooth="yes"/>
			<point x="149" y="1172"/>
			<point x="185" y="1146"/>
			<point x="185" y="1102" type="curve" smooth="yes"/>
			<point x="185" y="1059"/>
			<point x="147" y="1054"/>
			<point x="147" y="1026" type="curve" smooth="yes"/>
			<point x="147" y="994"/>
			<point x="198" y="952"/>
			<point x="299" y="952" type="curve" smooth="yes"/>
			<point x="430" y="952"/>
			<point x="477" y="1053"/>
			<point x="477" y="1142" type="curve" smooth="yes"/>
			<point x="477" y="1222"/>
			<point x="449" y="1325"/>
			<point x="294" y="1344" type="curve" smooth="yes"/>
			<point x="266" y="1348"/>
			<point x="240" y="1336"/>
			<point x="240" y="1371" type="curve" smooth="yes"/>
			<point x="240" y="1382" type="line" smooth="yes"/>
			<point x="240" y="1417"/>
			<point x="267" y="1406"/>
			<point x="294" y="1410" type="curve" smooth="yes"/>
			<point x="445" y="1433"/>
			<point x="453" y="1553"/>
			<point x="453" y="1623" type="curve" smooth="yes"/>
			<point x="453" y="1712"/>
			<point x="406" y="1776"/>
			<point x="299" y="1776" type="curve" smooth="yes"/>
			<point x="222" y="1776"/>
			<point x="183" y="1736"/>
			<point x="183" y="1704" type="curve" smooth="yes"/>
			<point x="183" y="1676"/>
			<point x="221" y="1670"/>
			<point x="221" y="1627" type="curve" smooth="yes"/>
			<point x="221" y="1583"/>
			<point x="185" y="1557"/>
			<point x="153" y="1557" type="curve" smooth="yes"/>
			<point x="118" y="1557"/>
			<point x="76" y="1578"/>
			<point x="76" y="1636" type="curve" smooth="yes"/>
			<point x="76" y="1734"/>
			<point x="153" y="1826"/>
			<point x="323" y="1826" type="curve" smooth="yes"/>
			<point x="444" y="1826"/>
			<point x="574" y="1767"/>
			<point x="574" y="1623" type="curve" smooth="yes"/>
			<point x="574" y="1541"/>
			<point x="553" y="1451"/>
			<point x="449" y="1402" type="curve" smooth="yes"/>
			<point x="404" y="1381"/>
			<point x="398" y="1389"/>
			<point x="398" y="1376" type="curve" smooth="yes"/>
			<point x="398" y="1366"/>
			<point x="421" y="1369"/>
			<point x="446" y="1360" type="curve" smooth="yes"/>
			<point x="565" y="1318"/>
			<point x="598" y="1234"/>
			<point x="598" y="1142" type="curve" smooth="yes"/>
			<point x="598" y="1010"/>
			<point x="492" y="902"/>
			<point x="311" y="902" type="curve" smooth="yes"/>
			<point x="129" y="902"/>
			<point x="40" y="995"/>
		</contour>
	</outline>
</glyph>
<glyph name="ordmasculine" format="2">
	<advance width="654" height="2310"/>
	<unicode hex="00BA"/>
	<outline>
		<contour>
			<point x="166" y="1286" type="curve" smooth="yes"/>
			<point x="166" y="1137"/>
			<point x="196" y="1004"/>
			<point x="327" y="1004" type="curve" smooth="yes"/>
			<point x="458" y="1004"/>
			<point x="488" y="1137"/>
			<point x="488" y="1262" type="curve" smooth="yes"/>
			<point x="488" y="1411"/>
			<point x="458" y="1544"/>
			<point x="327" y="1544" type="curve" smooth="yes"/>
			<point x="196" y="1544"/>
			<point x="166" y="1411"/>
		</contour>
		<contour>
			<point x="40" y="1262" type="curve" smooth="yes"/>
			<point x="40" y="1454"/>
			<point x="134" y="1598"/>
			<point x="327" y="1598" type="curve" smooth="yes"/>
			<point x="520" y="1598"/>
			<point x="614" y="1454"/>
			<point x="614" y="1286" type="curve" smooth="yes"/>
			<point x="614" y="1094"/>
			<point x="520" y="950"/>
			<point x="327" y="950" type="curve" smooth="yes"/>
			<point x="134" y="950"/>
			<point x="40" y="1094"/>
		</contour>
	</outline>
</glyph>
<glyph name="AE" format="2">
	<advance width="2505" height="0"/>
	<unicode hex="00C6"/>
	<outline>
		<contour>
			<point x="0" y="42" type="curve" smooth="yes"/>
			<point x="0" y="84" type="line" smooth="yes"/>
			<point x="0" y="104"/>
			<point x="6" y="110"/>
			<point x="28" y="110" type="curve" smooth="yes"/>
			<point x="144" y="110" type="line" smooth="yes"/>
			<point x="186" y="110"/>
			<point x="196" y="120"/>
			<point x="215" y="150" type="curve" smooth="yes"/>
			<point x="1082" y="1349" type="line" smooth="yes"/>
			<point x="1112" y="1391"/>
			<point x="1095" y="1390"/>
			<point x="1024" y="1390" type="curve" smooth="yes"/>
			<point x="896" y="1390" type="line" smooth="yes"/>
			<point x="871" y="1390"/>
			<point x="870" y="1394"/>
			<point x="870" y="1420" type="curve" smooth="yes"/>
			<point x="870" y="1472" type="line" smooth="yes"/>
			<point x="870" y="1495"/>
			<point x="877" y="1500"/>
			<point x="898" y="1500" type="curve" smooth="yes"/>
			<point x="1524" y="1500" type="line" smooth="yes"/>
			<point x="1547" y="1500"/>
			<point x="1550" y="1496"/>
			<point x="1550" y="1472" type="curve" smooth="yes"/>
			<point x="1550" y="1423" type="line" smooth="yes"/>
			<point x="1550" y="1399"/>
			<point x="1548" y="1390"/>
			<point x="1522" y="1390" type="curve" smooth="yes"/>
			<point x="1278" y="1390" type="line" smooth="yes"/>
			<point x="1224" y="1390"/>
			<point x="1241" y="1381"/>
			<point x="1219" y="1351" type="curve" smooth="yes"/>
			<point x="654" y="578" type="line" smooth="yes"/>
			<point x="641" y="557"/>
			<point x="646" y="550"/>
			<point x="682" y="550" type="curve" smooth="yes"/>
			<point x="1374" y="550" type="line"/>
			<point x="1354" y="440" type="line"/>
			<point x="596" y="440" type="line" smooth="yes"/>
			<point x="560" y="440"/>
			<point x="547" y="428"/>
			<point x="529" y="400" type="curve" smooth="yes"/>
			<point x="346" y="158" type="line" smooth="yes"/>
			<point x="325" y="124"/>
			<point x="333" y="110"/>
			<point x="377" y="110" type="curve" smooth="yes"/>
			<point x="528" y="110" type="line" smooth="yes"/>
			<point x="552" y="110"/>
			<point x="560" y="105"/>
			<point x="560" y="80" type="curve" smooth="yes"/>
			<point x="560" y="32" type="line" smooth="yes"/>
			<point x="560" y="0"/>
			<point x="560" y="0"/>
			<point x="528" y="0" type="curve" smooth="yes"/>
			<point x="50" y="0" type="line" smooth="yes"/>
			<point x="13" y="0"/>
			<point x="0" y="2"/>
		</contour>
		<component base="E" xOffset="990"/>
	</outline>
</glyph>
<glyph name="eth" format="2">
	<advance width="1240" height="2310"/>
	<unicode hex="00F0"/>
	<outline>
		<contour>
			<point x="560.836" y="1233.389" type="curve" smooth="yes"/>
			<point x="957.132" y="1507.748" type="line" smooth="yes"/>
			<point x="980.153" y="1523.686"/>
			<point x="984.896" y="1522.104"/>
			<point x="998.558" y="1502.372" type="curve" smooth="yes"/>
			<point x="1026.449" y="1462.085" type="line" smooth="yes"/>
			<point x="1040.11" y="1442.352"/>
			<point x="1043.589" y="1433.813"/>
			<point x="1017.278" y="1415.6" type="curve" smooth="yes"/>
			<point x="621.804" y="1141.81" type="line" smooth="yes"/>
			<point x="597.139" y="1124.732"/>
			<point x="593.217" y="1126.883"/>
			<point x="578.418" y="1148.26" type="curve" smooth="yes"/>
			<point x="548.818" y="1191.015" type="line" smooth="yes"/>
			<point x="535.727" y="1209.925"/>
			<point x="539.458" y="1218.589"/>
		</contour>
		<contour>
			<point x="521" y="1552" type="curve" smooth="yes"/>
			<point x="764" y="1448"/>
			<point x="1140" y="1187"/>
			<point x="1140" y="700" type="curve" smooth="yes"/>
			<point x="1140" y="190"/>
			<point x="934" y="-20"/>
			<point x="612" y="-20" type="curve" smooth="yes"/>
			<point x="290" y="-20"/>
			<point x="100" y="190"/>
			<point x="100" y="510" type="curve" smooth="yes"/>
			<point x="100" y="840"/>
			<point x="316" y="1060"/>
			<point x="588" y="1060" type="curve" smooth="yes"/>
			<point x="770" y="1060"/>
			<point x="850" y="973"/>
			<point x="907" y="909" type="curve" smooth="yes"/>
			<point x="924" y="890"/>
			<point x="928" y="876"/>
			<point x="936" y="880" type="curve" smooth="yes"/>
			<point x="943" y="884"/>
			<point x="939" y="897"/>
			<point x="937" y="930" type="curve" smooth="yes"/>
			<point x="922" y="1258"/>
			<point x="658" y="1366"/>
			<point x="485" y="1454" type="curve" smooth="yes"/>
			<point x="469" y="1462"/>
			<point x="460" y="1462"/>
			<point x="468" y="1480" type="curve" smooth="yes"/>
			<point x="493" y="1541" type="line" smooth="yes"/>
			<point x="500" y="1557"/>
			<point x="506" y="1558"/>
		</contour>
		<contour>
			<point x="300" y="510" type="curve" smooth="yes"/>
			<point x="300" y="292"/>
			<point x="374" y="70"/>
			<point x="592" y="70" type="curve" smooth="yes"/>
			<point x="790" y="70"/>
			<point x="940" y="361"/>
			<point x="940" y="650" type="curve" smooth="yes"/>
			<point x="940" y="810"/>
			<point x="798" y="962"/>
			<point x="632" y="962" type="curve" smooth="yes"/>
			<point x="424" y="962"/>
			<point x="300" y="738"/>
		</contour>
	</outline>
</glyph>
<glyph name="oslash" format="2">
	<advance width="1139" height="0"/>
	<unicode hex="00F8"/>
	<outline>
		<contour>
			<point x="926" y="1215" type="curve" smooth="yes"/>
			<point x="971" y="1215" type="line" smooth="yes"/>
			<point x="1009" y="1215"/>
			<point x="1010" y="1211"/>
			<point x="1000" y="1192" type="curve" smooth="yes"/>
			<point x="283" y="-165" type="line" smooth="yes"/>
			<point x="272" y="-186"/>
			<point x="262" y="-189"/>
			<point x="221" y="-189" type="curve" smooth="yes"/>
			<point x="189" y="-189" type="line" smooth="yes"/>
			<point x="140" y="-189"/>
			<point x="137" y="-181"/>
			<point x="149" y="-158" type="curve" smooth="yes"/>
			<point x="870" y="1189" type="line" smooth="yes"/>
			<point x="881" y="1209"/>
			<point x="886" y="1215"/>
		</contour>
		<component base="o"/>
	</outline>
</glyph>
<glyph name="Dcroat" format="2">
	<advance width="1645" height="0"/>
	<unicode hex="0110"/>
	<outline>
		<contour>
			<point x="110" y="840" type="curve" smooth="yes"/>
			<point x="872" y="840" type="line" smooth="yes"/>
			<point x="900" y="840"/>
			<point x="903" y="836"/>
			<point x="903" y="812" type="curve" smooth="yes"/>
			<point x="903" y="763" type="line" smooth="yes"/>
			<point x="903" y="739"/>
			<point x="901" y="730"/>
			<point x="869" y="730" type="curve" smooth="yes"/>
			<point x="108" y="730" type="line" smooth="yes"/>
			<point x="78" y="730"/>
			<point x="76" y="734"/>
			<point x="76" y="760" type="curve" smooth="yes"/>
			<point x="76" y="812" type="line" smooth="yes"/>
			<point x="76" y="835"/>
			<point x="84" y="840"/>
		</contour>
		<component base="D"/>
	</outline>
</glyph>
<glyph name="dcroat" format="2">
	<advance width="1283" height="2309"/>
	<unicode hex="0111"/>
	<outline>
		<contour>
			<point x="543" y="1300" type="curve" smooth="yes"/>
			<point x="1211" y="1300" type="line" smooth="yes"/>
			<point x="1236" y="1300"/>
			<point x="1238" y="1296"/>
			<point x="1238" y="1272" type="curve" smooth="yes"/>
			<point x="1238" y="1223" type="line" smooth="yes"/>
			<point x="1238" y="1199"/>
			<point x="1236" y="1190"/>
			<point x="1208" y="1190" type="curve" smooth="yes"/>
			<point x="541" y="1190" type="line" smooth="yes"/>
			<point x="514" y="1190"/>
			<point x="513" y="1194"/>
			<point x="513" y="1220" type="curve" smooth="yes"/>
			<point x="513" y="1272" type="line" smooth="yes"/>
			<point x="513" y="1295"/>
			<point x="521" y="1300"/>
		</contour>
		<component base="d"/>
	</outline>
</glyph>
<glyph name="Hbar" format="2">
	<advance width="1770" height="0"/>
	<unicode hex="0126"/>
	<outline>
		<contour>
			<point x="143" y="1190" type="curve" smooth="yes"/>
			<point x="1633" y="1190" type="line" smooth="yes"/>
			<point x="1688" y="1190"/>
			<point x="1695" y="1186"/>
			<point x="1695" y="1162" type="curve" smooth="yes"/>
			<point x="1695" y="1113" type="line" smooth="yes"/>
			<point x="1695" y="1089"/>
			<point x="1690" y="1080"/>
			<point x="1628" y="1080" type="curve" smooth="yes"/>
			<point x="138" y="1080" type="line" smooth="yes"/>
			<point x="78" y="1080"/>
			<point x="76" y="1084"/>
			<point x="76" y="1110" type="curve" smooth="yes"/>
			<point x="76" y="1162" type="line" smooth="yes"/>
			<point x="76" y="1185"/>
			<point x="93" y="1190"/>
		</contour>
		<component base="H"/>
	</outline>
</glyph>
<glyph name="dotlessi" format="2">
	<advance width="665" height="2310"/>
	<unicode hex="0131"/>
	<anchor x="349" y="1040" name="Anchor-0"/>
	<anchor x="347" y="0" name="Anchor-1"/>
	<anchor x="347" y="0" name="Anchor-2"/>
	<outline>
		<contour>
			<point x="241" y="930" type="curve" smooth="yes"/>
			<point x="106" y="930" type="line" smooth="yes"/>
			<point x="86" y="930"/>
			<point x="85" y="934"/>
			<point x="85" y="954" type="curve" smooth="yes"/>
			<point x="85" y="1014" type="line" smooth="yes"/>
			<point x="85" y="1034"/>
			<point x="90" y="1040"/>
			<point x="109" y="1040" type="curve" smooth="yes"/>
			<point x="426" y="1040" type="line" smooth="yes"/>
			<point x="442" y="1040"/>
			<point x="445" y="1036"/>
			<point x="445" y="1019" type="curve" smooth="yes"/>
			<point x="445" y="134" type="line" smooth="yes"/>
			<point x="445" y="117"/>
			<point x="450" y="110"/>
			<point x="466" y="110" type="curve" smooth="yes"/>
			<point x="601" y="110" type="line" smooth="yes"/>
			<point x="620" y="110"/>
			<point x="625" y="109"/>
			<point x="625" y="90" type="curve" smooth="yes"/>
			<point x="625" y="24" type="line" smooth="yes"/>
			<point x="625" y="5"/>
			<point x="625" y="0"/>
			<point x="606" y="0" type="curve" smooth="yes"/>
			<point x="116" y="0" type="line" smooth="yes"/>
			<point x="93" y="0"/>
			<point x="85" y="2"/>
			<point x="85" y="24" type="curve" smooth="yes"/>
			<point x="85" y="80" type="line" smooth="yes"/>
			<point x="85" y="106"/>
			<point x="94" y="110"/>
			<point x="118" y="110" type="curve" smooth="yes"/>
			<point x="242" y="110" type="line" smooth="yes"/>
			<point x="264" y="110"/>
			<point x="265" y="116"/>
			<point x="265" y="138" type="curve" smooth="yes"/>
			<point x="265" y="906" type="line" smooth="yes"/>
			<point x="265" y="926"/>
			<point x="259" y="930"/>
		</contour>
	</outline>
</glyph>
<glyph name="idotless" format="2">
	<advance width="695"/>
	<unicode hex="0131"/>
	<anchor x="348" y="1040" name="Anchor-0"/>
	<anchor x="348" y="0" name="bottom"/>
	<anchor x="626" y="10" name="ogonek"/>
	<outline>
		<contour>
			<point x="131" y="0" type="curve" smooth="yes"/>
			<point x="621" y="0" type="line" smooth="yes"/>
			<point x="640" y="0"/>
			<point x="640" y="5"/>
			<point x="640" y="24" type="curve" smooth="yes"/>
			<point x="640" y="90" type="line" smooth="yes"/>
			<point x="640" y="109"/>
			<point x="635" y="110"/>
			<point x="616" y="110" type="curve" smooth="yes"/>
			<point x="481" y="110" type="line" smooth="yes"/>
			<point x="465" y="110"/>
			<point x="460" y="117"/>
			<point x="460" y="134" type="curve" smooth="yes"/>
			<point x="460" y="1019" type="line" smooth="yes"/>
			<point x="460" y="1036"/>
			<point x="457" y="1040"/>
			<point x="441" y="1040" type="curve" smooth="yes"/>
			<point x="124" y="1040" type="line" smooth="yes"/>
			<point x="105" y="1040"/>
			<point x="100" y="1034"/>
			<point x="100" y="1014" type="curve" smooth="yes"/>
			<point x="100" y="954" type="line" smooth="yes"/>
			<point x="100" y="934"/>
			<point x="101" y="930"/>
			<point x="121" y="930" type="curve" smooth="yes"/>
			<point x="256" y="930" type="line" smooth="yes"/>
			<point x="274" y="930"/>
			<point x="280" y="926"/>
			<point x="280" y="906" type="curve" smooth="yes"/>
			<point x="280" y="138" type="line" smooth="yes"/>
			<point x="280" y="116"/>
			<point x="279" y="110"/>
			<point x="257" y="110" type="curve" smooth="yes"/>
			<point x="133" y="110" type="line" smooth="yes"/>
			<point x="109" y="110"/>
			<point x="100" y="106"/>
			<point x="100" y="80" type="curve" smooth="yes"/>
			<point x="100" y="24" type="line" smooth="yes"/>
			<point x="100" y="2"/>
			<point x="108" y="0"/>
		</contour>
	</outline>
</glyph>
<glyph name="lslash" format="2">
	<advance width="619" height="2309"/>
	<unicode hex="0142"/>
	<outline>
		<contour>
			<point x="60" y="810" type="curve" smooth="yes"/>
			<point x="590" y="1145" type="line" smooth="yes"/>
			<point x="611" y="1159"/>
			<point x="614" y="1165"/>
			<point x="614" y="1128" type="curve" smooth="yes"/>
			<point x="614" y="1068" type="line" smooth="yes"/>
			<point x="614" y="1031"/>
			<point x="610" y="1030"/>
			<point x="588" y="1016" type="curve" smooth="yes"/>
			<point x="68" y="687" type="line" smooth="yes"/>
			<point x="48" y="674"/>
			<point x="44" y="665"/>
			<point x="44" y="701" type="curve" smooth="yes"/>
			<point x="44" y="775" type="line" smooth="yes"/>
			<point x="44" y="799"/>
			<point x="46" y="801"/>
		</contour>
		<component base="l"/>
	</outline>
</glyph>
<glyph name="eng" format="2">
	<advance width="1345" height="2310"/>
	<unicode hex="014B"/>
	<outline>
		<contour>
			<point x="236" y="930" type="curve" smooth="yes"/>
			<point x="101" y="930" type="line" smooth="yes"/>
			<point x="84" y="930"/>
			<point x="80" y="937"/>
			<point x="80" y="955" type="curve" smooth="yes"/>
			<point x="80" y="1017" type="line" smooth="yes"/>
			<point x="80" y="1033"/>
			<point x="84" y="1040"/>
			<point x="99" y="1040" type="curve" smooth="yes"/>
			<point x="409" y="1040" type="line" smooth="yes"/>
			<point x="431" y="1040"/>
			<point x="440" y="1023"/>
			<point x="440" y="1005" type="curve" smooth="yes"/>
			<point x="440" y="888" type="line" smooth="yes"/>
			<point x="440" y="836"/>
			<point x="447" y="849"/>
			<point x="460" y="871" type="curve" smooth="yes"/>
			<point x="524" y="978"/>
			<point x="633" y="1060"/>
			<point x="806" y="1060" type="curve" smooth="yes"/>
			<point x="1060" y="1060"/>
			<point x="1130" y="952"/>
			<point x="1130" y="738" type="curve" smooth="yes"/>
			<point x="1130" y="22" type="line" smooth="yes"/>
			<point x="1130" y="-278"/>
			<point x="1088" y="-520"/>
			<point x="806" y="-520" type="curve" smooth="yes"/>
			<point x="628" y="-520"/>
			<point x="524" y="-404"/>
			<point x="524" y="-280" type="curve" smooth="yes"/>
			<point x="524" y="-204"/>
			<point x="572" y="-138"/>
			<point x="642" y="-138" type="curve" smooth="yes"/>
			<point x="710" y="-138"/>
			<point x="758" y="-184"/>
			<point x="758" y="-250" type="curve" smooth="yes"/>
			<point x="758" y="-320"/>
			<point x="720" y="-318"/>
			<point x="720" y="-358" type="curve" smooth="yes"/>
			<point x="720" y="-384"/>
			<point x="732" y="-432"/>
			<point x="806" y="-432" type="curve" smooth="yes"/>
			<point x="1028" y="-432"/>
			<point x="950" y="-20"/>
			<point x="950" y="208" type="curve" smooth="yes"/>
			<point x="950" y="716" type="line" smooth="yes"/>
			<point x="950" y="864"/>
			<point x="892" y="946"/>
			<point x="760" y="946" type="curve" smooth="yes"/>
			<point x="564" y="946"/>
			<point x="440" y="772"/>
			<point x="440" y="566" type="curve" smooth="yes"/>
			<point x="440" y="151" type="line" smooth="yes"/>
			<point x="440" y="120"/>
			<point x="451" y="110"/>
			<point x="482" y="110" type="curve" smooth="yes"/>
			<point x="585" y="110" type="line" smooth="yes"/>
			<point x="612" y="110"/>
			<point x="620" y="105"/>
			<point x="620" y="76" type="curve" smooth="yes"/>
			<point x="620" y="30" type="line" smooth="yes"/>
			<point x="620" y="6"/>
			<point x="615" y="0"/>
			<point x="592" y="0" type="curve" smooth="yes"/>
			<point x="108" y="0" type="line" smooth="yes"/>
			<point x="84" y="0"/>
			<point x="80" y="7"/>
			<point x="80" y="32" type="curve" smooth="yes"/>
			<point x="80" y="78" type="line" smooth="yes"/>
			<point x="80" y="106"/>
			<point x="90" y="110"/>
			<point x="116" y="110" type="curve" smooth="yes"/>
			<point x="226" y="110" type="line" smooth="yes"/>
			<point x="252" y="110"/>
			<point x="260" y="113"/>
			<point x="260" y="138" type="curve" smooth="yes"/>
			<point x="260" y="913" type="line" smooth="yes"/>
			<point x="260" y="928"/>
			<point x="252" y="930"/>
		</contour>
	</outline>
</glyph>
<glyph name="Tbar" format="2">
	<advance width="1550" height="0"/>
	<unicode hex="0166"/>
	<outline>
		<contour>
			<point x="394" y="820" type="curve" smooth="yes"/>
			<point x="1156" y="820" type="line" smooth="yes"/>
			<point x="1184" y="820"/>
			<point x="1187" y="816"/>
			<point x="1187" y="792" type="curve" smooth="yes"/>
			<point x="1187" y="743" type="line" smooth="yes"/>
			<point x="1187" y="719"/>
			<point x="1185" y="710"/>
			<point x="1153" y="710" type="curve" smooth="yes"/>
			<point x="392" y="710" type="line" smooth="yes"/>
			<point x="362" y="710"/>
			<point x="360" y="714"/>
			<point x="360" y="740" type="curve" smooth="yes"/>
			<point x="360" y="792" type="line" smooth="yes"/>
			<point x="360" y="815"/>
			<point x="368" y="820"/>
		</contour>
		<component base="T"/>
	</outline>
</glyph>
<glyph name="ogonek" format="2">
	<advance width="1000" height="0"/>
	<unicode hex="02DB"/>
	<anchor x="511" y="47" name="_Anchor-2"/>
	<anchor x="511" y="47" name="_Anchor-3"/>
	<outline>
		<contour>
			<point x="494" y="-372" type="curve" smooth="yes"/>
			<point x="381" y="-372"/>
			<point x="278" y="-335"/>
			<point x="278" y="-220" type="curve" smooth="yes"/>
			<point x="278" y="-108"/>
			<point x="426" y="-2"/>
			<point x="533" y="70" type="curve" smooth="yes"/>
			<point x="555" y="85"/>
			<point x="573" y="90"/>
			<point x="581" y="80" type="curve" smooth="yes"/>
			<point x="590" y="69"/>
			<point x="579" y="54"/>
			<point x="563" y="36" type="curve" smooth="yes"/>
			<point x="517" y="-16"/>
			<point x="464" y="-89"/>
			<point x="464" y="-170" type="curve" smooth="yes"/>
			<point x="464" y="-221"/>
			<point x="489" y="-275"/>
			<point x="559" y="-275" type="curve" smooth="yes"/>
			<point x="608" y="-275"/>
			<point x="643" y="-246"/>
			<point x="665" y="-214" type="curve" smooth="yes"/>
			<point x="675" y="-199"/>
			<point x="684" y="-199"/>
			<point x="694" y="-207" type="curve" smooth="yes"/>
			<point x="708" y="-217" type="line" smooth="yes"/>
			<point x="721" y="-226"/>
			<point x="720" y="-230"/>
			<point x="712" y="-245" type="curve" smooth="yes"/>
			<point x="672" y="-318"/>
			<point x="611" y="-372"/>
		</contour>
	</outline>
</glyph>
<glyph name="tildecomb" format="2">
	<advance width="0" height="0"/>
	<unicode hex="0303"/>
	<anchor x="496" y="1500" name="_Anchor-0"/>
	<outline>
		<contour>
			<point x="646" y="1680" type="curve" smooth="yes"/>
			<point x="562" y="1680"/>
			<point x="510" y="1717"/>
			<point x="468" y="1759" type="curve" smooth="yes"/>
			<point x="435" y="1792"/>
			<point x="397" y="1838"/>
			<point x="337" y="1838" type="curve" smooth="yes"/>
			<point x="262" y="1838"/>
			<point x="229" y="1794"/>
			<point x="226" y="1714" type="curve" smooth="yes"/>
			<point x="225" y="1702"/>
			<point x="219" y="1700"/>
			<point x="206" y="1700" type="curve" smooth="yes"/>
			<point x="174" y="1700" type="line" smooth="yes"/>
			<point x="151" y="1700"/>
			<point x="151" y="1710"/>
			<point x="153" y="1730" type="curve" smooth="yes"/>
			<point x="165" y="1857"/>
			<point x="250" y="1954"/>
			<point x="374" y="1954" type="curve" smooth="yes"/>
			<point x="458" y="1954"/>
			<point x="510" y="1918"/>
			<point x="549" y="1875" type="curve" smooth="yes"/>
			<point x="578" y="1843"/>
			<point x="610" y="1796"/>
			<point x="663" y="1796" type="curve" smooth="yes"/>
			<point x="736" y="1796"/>
			<point x="769" y="1837"/>
			<point x="774" y="1912" type="curve" smooth="yes"/>
			<point x="775" y="1928"/>
			<point x="777" y="1934"/>
			<point x="796" y="1934" type="curve" smooth="yes"/>
			<point x="829" y="1934" type="line" smooth="yes"/>
			<point x="847" y="1934"/>
			<point x="849" y="1928"/>
			<point x="848" y="1912" type="curve" smooth="yes"/>
			<point x="843" y="1764"/>
			<point x="783" y="1680"/>
		</contour>
	</outline>
</glyph>
<glyph name="hungarumlautcomb" format="2">
	<advance width="0" height="0"/>
	<unicode hex="030B"/>
	<anchor x="424" y="1500" name="_Anchor-0"/>
	<outline>
		<contour>
			<point x="577" y="1680" type="curve" smooth="yes"/>
			<point x="554" y="1705" type="line" smooth="yes"/>
			<point x="533" y="1727"/>
			<point x="530" y="1729"/>
			<point x="552" y="1750" type="curve" smooth="yes"/>
			<point x="742" y="1936" type="line" smooth="yes"/>
			<point x="786" y="1979"/>
			<point x="846" y="1962"/>
			<point x="875" y="1924" type="curve" smooth="yes"/>
			<point x="903" y="1887"/>
			<point x="890" y="1832"/>
			<point x="847" y="1807" type="curve" smooth="yes"/>
			<point x="614" y="1671" type="line" smooth="yes"/>
			<point x="595" y="1660"/>
			<point x="592" y="1664"/>
		</contour>
		<contour>
			<point x="160" y="1685" type="curve" smooth="yes"/>
			<point x="139" y="1706" type="line" smooth="yes"/>
			<point x="118" y="1729"/>
			<point x="126" y="1736"/>
			<point x="147" y="1756" type="curve" smooth="yes"/>
			<point x="331" y="1936" type="line" smooth="yes"/>
			<point x="375" y="1979"/>
			<point x="431" y="1965"/>
			<point x="460" y="1927" type="curve" smooth="yes"/>
			<point x="488" y="1890"/>
			<point x="483" y="1835"/>
			<point x="436" y="1807" type="curve" smooth="yes"/>
			<point x="226" y="1687" type="line" smooth="yes"/>
			<point x="194" y="1668"/>
			<point x="185" y="1658"/>
		</contour>
	</outline>
</glyph>
<glyph name="commaturnedabovecomb" format="2">
	<advance width="0" height="0"/>
	<unicode hex="0312"/>
	<anchor x="497" y="920" name="_Anchor-0"/>
	<outline>
		<contour>
			<point x="610" y="1198" type="curve" smooth="yes"/>
			<point x="610" y="1145"/>
			<point x="564" y="1103"/>
			<point x="503" y="1103" type="curve" smooth="yes"/>
			<point x="441" y="1103"/>
			<point x="391" y="1153"/>
			<point x="391" y="1270" type="curve" smooth="yes"/>
			<point x="391" y="1377"/>
			<point x="463" y="1513"/>
			<point x="595" y="1525" type="curve" smooth="yes"/>
			<point x="607" y="1526"/>
			<point x="613" y="1527"/>
			<point x="613" y="1513" type="curve" smooth="yes"/>
			<point x="613" y="1478" type="line" smooth="yes"/>
			<point x="613" y="1464"/>
			<point x="605" y="1462"/>
			<point x="593" y="1460" type="curve" smooth="yes"/>
			<point x="520" y="1449"/>
			<point x="458" y="1375"/>
			<point x="467" y="1283" type="curve" smooth="yes"/>
			<point x="469" y="1270"/>
			<point x="475" y="1276"/>
			<point x="484" y="1282" type="curve" smooth="yes"/>
			<point x="497" y="1291"/>
			<point x="508" y="1292"/>
			<point x="525" y="1292" type="curve" smooth="yes"/>
			<point x="578" y="1292"/>
			<point x="610" y="1251"/>
		</contour>
	</outline>
</glyph>
<glyph name="commaaccentcomb" format="2">
	<advance width="0" height="0"/>
	<unicode hex="0326"/>
	<anchor x="496" y="0" name="_Anchor-1"/>
	<anchor x="496" y="0" name="_Anchor-2"/>
	<outline>
		<contour>
			<point x="393" y="-296" type="curve" smooth="yes"/>
			<point x="393" y="-243"/>
			<point x="439" y="-201"/>
			<point x="500" y="-201" type="curve" smooth="yes"/>
			<point x="562" y="-201"/>
			<point x="612" y="-251"/>
			<point x="612" y="-368" type="curve" smooth="yes"/>
			<point x="612" y="-475"/>
			<point x="540" y="-611"/>
			<point x="408" y="-623" type="curve" smooth="yes"/>
			<point x="396" y="-624"/>
			<point x="390" y="-625"/>
			<point x="390" y="-611" type="curve" smooth="yes"/>
			<point x="390" y="-576" type="line" smooth="yes"/>
			<point x="390" y="-562"/>
			<point x="398" y="-560"/>
			<point x="410" y="-558" type="curve" smooth="yes"/>
			<point x="483" y="-547"/>
			<point x="545" y="-473"/>
			<point x="536" y="-381" type="curve" smooth="yes"/>
			<point x="534" y="-368"/>
			<point x="528" y="-374"/>
			<point x="519" y="-380" type="curve" smooth="yes"/>
			<point x="506" y="-389"/>
			<point x="495" y="-390"/>
			<point x="478" y="-390" type="curve" smooth="yes"/>
			<point x="425" y="-390"/>
			<point x="393" y="-349"/>
		</contour>
	</outline>
</glyph>
<glyph name="Lje-cy" format="2">
	<advance width="2255" height="2080"/>
	<unicode hex="0409"/>
	<outline>
		<contour>
			<point x="1428" y="110" type="curve" smooth="yes"/>
			<point x="1660" y="110" type="line" smooth="yes"/>
			<point x="1852" y="110"/>
			<point x="1960" y="242"/>
			<point x="1960" y="420" type="curve" smooth="yes"/>
			<point x="1960" y="598"/>
			<point x="1852" y="730"/>
			<point x="1660" y="730" type="curve" smooth="yes"/>
			<point x="1440" y="730" type="line" smooth="yes"/>
			<point x="1398" y="730"/>
			<point x="1390" y="728"/>
			<point x="1390" y="686" type="curve" smooth="yes"/>
			<point x="1390" y="154" type="line" smooth="yes"/>
			<point x="1390" y="121"/>
			<point x="1399" y="110"/>
		</contour>
		<contour>
			<point x="-10" y="240" type="curve" smooth="yes"/>
			<point x="-10" y="364"/>
			<point x="68" y="420"/>
			<point x="148" y="420" type="curve" smooth="yes"/>
			<point x="228" y="420"/>
			<point x="286" y="364"/>
			<point x="286" y="292" type="curve" smooth="yes"/>
			<point x="286" y="162"/>
			<point x="208" y="164"/>
			<point x="208" y="130" type="curve" smooth="yes"/>
			<point x="208" y="106"/>
			<point x="238" y="90"/>
			<point x="272" y="90" type="curve" smooth="yes"/>
			<point x="635" y="90"/>
			<point x="562" y="1004"/>
			<point x="562" y="1331" type="curve" smooth="yes"/>
			<point x="562" y="1376"/>
			<point x="560" y="1390"/>
			<point x="515" y="1390" type="curve" smooth="yes"/>
			<point x="367" y="1390" type="line" smooth="yes"/>
			<point x="325" y="1390"/>
			<point x="322" y="1397"/>
			<point x="322" y="1440" type="curve" smooth="yes"/>
			<point x="322" y="1460" type="line" smooth="yes"/>
			<point x="322" y="1499"/>
			<point x="336" y="1500"/>
			<point x="372" y="1500" type="curve" smooth="yes"/>
			<point x="1594" y="1500" type="line" smooth="yes"/>
			<point x="1624" y="1500"/>
			<point x="1630" y="1497"/>
			<point x="1630" y="1466" type="curve" smooth="yes"/>
			<point x="1630" y="1432" type="line" smooth="yes"/>
			<point x="1630" y="1397"/>
			<point x="1613" y="1390"/>
			<point x="1588" y="1390" type="curve" smooth="yes"/>
			<point x="1448" y="1390" type="line" smooth="yes"/>
			<point x="1394" y="1390"/>
			<point x="1390" y="1382"/>
			<point x="1390" y="1327" type="curve" smooth="yes"/>
			<point x="1390" y="896" type="line" smooth="yes"/>
			<point x="1390" y="841"/>
			<point x="1399" y="840"/>
			<point x="1454" y="840" type="curve" smooth="yes"/>
			<point x="1660" y="840" type="line" smooth="yes"/>
			<point x="2022" y="840"/>
			<point x="2180" y="680"/>
			<point x="2180" y="420" type="curve" smooth="yes"/>
			<point x="2180" y="160"/>
			<point x="2022" y="0"/>
			<point x="1660" y="0" type="curve" smooth="yes"/>
			<point x="1017" y="0" type="line" smooth="yes"/>
			<point x="993" y="0"/>
			<point x="981" y="3"/>
			<point x="981" y="22" type="curve" smooth="yes"/>
			<point x="980" y="86" type="line" smooth="yes"/>
			<point x="981" y="103"/>
			<point x="984" y="110"/>
			<point x="1005" y="110" type="curve" smooth="yes"/>
			<point x="1132" y="110" type="line" smooth="yes"/>
			<point x="1167" y="110"/>
			<point x="1200" y="114"/>
			<point x="1200" y="160" type="curve" smooth="yes"/>
			<point x="1200" y="1342" type="line" smooth="yes"/>
			<point x="1200" y="1380"/>
			<point x="1195" y="1390"/>
			<point x="1154" y="1390" type="curve" smooth="yes"/>
			<point x="732" y="1390" type="line" smooth="yes"/>
			<point x="689" y="1390"/>
			<point x="687" y="1381"/>
			<point x="687" y="1338" type="curve" smooth="yes"/>
			<point x="687" y="948"/>
			<point x="795" y="-20"/>
			<point x="262" y="-20" type="curve" smooth="yes"/>
			<point x="88" y="-20"/>
			<point x="-10" y="100"/>
		</contour>
	</outline>
</glyph>
<glyph name="Nje-cy" format="2">
	<advance width="2255" height="2080"/>
	<unicode hex="040A"/>
	<outline>
		<contour>
			<point x="485" y="1347" type="curve" smooth="yes"/>
			<point x="485" y="888" type="line" smooth="yes"/>
			<point x="485" y="837"/>
			<point x="489" y="830"/>
			<point x="542" y="830" type="curve" smooth="yes"/>
			<point x="1172" y="830" type="line" smooth="yes"/>
			<point x="1224" y="830"/>
			<point x="1225" y="841"/>
			<point x="1225" y="894" type="curve" smooth="yes"/>
			<point x="1225" y="1338" type="line" smooth="yes"/>
			<point x="1225" y="1380"/>
			<point x="1224" y="1390"/>
			<point x="1182" y="1390" type="curve" smooth="yes"/>
			<point x="1019" y="1390" type="line" smooth="yes"/>
			<point x="991" y="1390"/>
			<point x="985" y="1403"/>
			<point x="985" y="1429" type="curve" smooth="yes"/>
			<point x="985" y="1458" type="line" smooth="yes"/>
			<point x="985" y="1494"/>
			<point x="990" y="1500"/>
			<point x="1025" y="1500" type="curve" smooth="yes"/>
			<point x="1595" y="1500" type="line" smooth="yes"/>
			<point x="1627" y="1500"/>
			<point x="1635" y="1496"/>
			<point x="1635" y="1462" type="curve" smooth="yes"/>
			<point x="1635" y="1424" type="line" smooth="yes"/>
			<point x="1635" y="1396"/>
			<point x="1626" y="1390"/>
			<point x="1596" y="1390" type="curve" smooth="yes"/>
			<point x="1470" y="1390" type="line" smooth="yes"/>
			<point x="1426" y="1390"/>
			<point x="1415" y="1388"/>
			<point x="1415" y="1344" type="curve" smooth="yes"/>
			<point x="1415" y="874" type="line" smooth="yes"/>
			<point x="1415" y="835"/>
			<point x="1421" y="830"/>
			<point x="1462" y="830" type="curve" smooth="yes"/>
			<point x="1660" y="830" type="line" smooth="yes"/>
			<point x="2022" y="830"/>
			<point x="2180" y="680"/>
			<point x="2180" y="420" type="curve" smooth="yes"/>
			<point x="2180" y="160"/>
			<point x="2022" y="0"/>
			<point x="1660" y="0" type="curve" smooth="yes"/>
			<point x="1025" y="0" type="line" smooth="yes"/>
			<point x="989" y="0"/>
			<point x="985" y="7"/>
			<point x="985" y="44" type="curve" smooth="yes"/>
			<point x="985" y="74" type="line" smooth="yes"/>
			<point x="985" y="102"/>
			<point x="987" y="110"/>
			<point x="1014" y="110" type="curve" smooth="yes"/>
			<point x="1183" y="110" type="line" smooth="yes"/>
			<point x="1222" y="110"/>
			<point x="1225" y="123"/>
			<point x="1225" y="160" type="curve" smooth="yes"/>
			<point x="1225" y="672" type="line" smooth="yes"/>
			<point x="1225" y="715"/>
			<point x="1216" y="720"/>
			<point x="1176" y="720" type="curve" smooth="yes"/>
			<point x="532" y="720" type="line" smooth="yes"/>
			<point x="492" y="720"/>
			<point x="485" y="717"/>
			<point x="485" y="678" type="curve" smooth="yes"/>
			<point x="485" y="150" type="line" smooth="yes"/>
			<point x="485" y="119"/>
			<point x="490" y="110"/>
			<point x="523" y="110" type="curve" smooth="yes"/>
			<point x="692" y="110" type="line" smooth="yes"/>
			<point x="719" y="110"/>
			<point x="725" y="105"/>
			<point x="725" y="76" type="curve" smooth="yes"/>
			<point x="725" y="50" type="line" smooth="yes"/>
			<point x="725" y="5"/>
			<point x="719" y="0"/>
			<point x="675" y="0" type="curve" smooth="yes"/>
			<point x="115" y="0" type="line" smooth="yes"/>
			<point x="82" y="0"/>
			<point x="75" y="5"/>
			<point x="75" y="40" type="curve" smooth="yes"/>
			<point x="75" y="68" type="line" smooth="yes"/>
			<point x="75" y="104"/>
			<point x="81" y="110"/>
			<point x="116" y="110" type="curve" smooth="yes"/>
			<point x="254" y="110" type="line" smooth="yes"/>
			<point x="286" y="110"/>
			<point x="295" y="112"/>
			<point x="295" y="144" type="curve" smooth="yes"/>
			<point x="295" y="1351" type="line" smooth="yes"/>
			<point x="295" y="1383"/>
			<point x="286" y="1390"/>
			<point x="256" y="1390" type="curve" smooth="yes"/>
			<point x="110" y="1390" type="line" smooth="yes"/>
			<point x="76" y="1390"/>
			<point x="75" y="1401"/>
			<point x="75" y="1436" type="curve" smooth="yes"/>
			<point x="75" y="1462" type="line" smooth="yes"/>
			<point x="75" y="1494"/>
			<point x="85" y="1500"/>
			<point x="115" y="1500" type="curve" smooth="yes"/>
			<point x="685" y="1500" type="line" smooth="yes"/>
			<point x="712" y="1500"/>
			<point x="725" y="1497"/>
			<point x="725" y="1468" type="curve" smooth="yes"/>
			<point x="725" y="1428" type="line" smooth="yes"/>
			<point x="725" y="1396"/>
			<point x="719" y="1390"/>
			<point x="688" y="1390" type="curve" smooth="yes"/>
			<point x="524" y="1390" type="line" smooth="yes"/>
			<point x="490" y="1390"/>
			<point x="485" y="1383"/>
		</contour>
		<contour>
			<point x="1660" y="110" type="line" smooth="yes"/>
			<point x="1852" y="110"/>
			<point x="1960" y="242"/>
			<point x="1960" y="420" type="curve" smooth="yes"/>
			<point x="1960" y="598"/>
			<point x="1852" y="720"/>
			<point x="1660" y="720" type="curve" smooth="yes"/>
			<point x="1462" y="720" type="line" smooth="yes"/>
			<point x="1421" y="720"/>
			<point x="1415" y="715"/>
			<point x="1415" y="672" type="curve" smooth="yes"/>
			<point x="1415" y="144" type="line" smooth="yes"/>
			<point x="1415" y="116"/>
			<point x="1422" y="110"/>
			<point x="1452" y="110" type="curve" smooth="yes"/>
		</contour>
	</outline>
</glyph>
<glyph name="Ushort-cy" format="2">
	<advance width="1570" height="0"/>
	<unicode hex="040E"/>
	<outline>
		<contour>
			<point x="1076" y="1961" type="curve" smooth="yes"/>
			<point x="1147" y="1961"/>
			<point x="1199" y="1912"/>
			<point x="1199" y="1841" type="curve" smooth="yes"/>
			<point x="1199" y="1716"/>
			<point x="1064" y="1637"/>
			<point x="852" y="1637" type="curve" smooth="yes"/>
			<point x="638" y="1637"/>
			<point x="504" y="1716"/>
			<point x="504" y="1843" type="curve" smooth="yes"/>
			<point x="504" y="1912"/>
			<point x="556" y="1961"/>
			<point x="627" y="1961" type="curve" smooth="yes"/>
			<point x="687" y="1961"/>
			<point x="733" y="1920"/>
			<point x="733" y="1866" type="curve" smooth="yes"/>
			<point x="733" y="1817"/>
			<point x="666" y="1809"/>
			<point x="666" y="1777" type="curve" smooth="yes"/>
			<point x="666" y="1744"/>
			<point x="733" y="1720"/>
			<point x="860" y="1720" type="curve" smooth="yes"/>
			<point x="974" y="1720"/>
			<point x="1037" y="1746"/>
			<point x="1037" y="1777" type="curve" smooth="yes"/>
			<point x="1037" y="1810"/>
			<point x="970" y="1816"/>
			<point x="970" y="1866" type="curve" smooth="yes"/>
			<point x="970" y="1920"/>
			<point x="1016" y="1961"/>
		</contour>
		<component base="U-cy"/>
	</outline>
</glyph>
<glyph name="Be-cy" format="2">
	<advance width="1380" height="0"/>
	<unicode hex="0411"/>
	<outline>
		<contour>
			<point x="535" y="720" type="line" smooth="yes"/>
			<point x="493" y="720"/>
			<point x="485" y="718"/>
			<point x="485" y="676" type="curve" smooth="yes"/>
			<point x="485" y="149" type="line" smooth="yes"/>
			<point x="485" y="122"/>
			<point x="488" y="110"/>
			<point x="514" y="110" type="curve" smooth="yes"/>
			<point x="825" y="110" type="line" smooth="yes"/>
			<point x="1017" y="110"/>
			<point x="1125" y="242"/>
			<point x="1125" y="420" type="curve" smooth="yes"/>
			<point x="1125" y="598"/>
			<point x="1017" y="720"/>
			<point x="825" y="720" type="curve" smooth="yes"/>
		</contour>
		<contour>
			<point x="263" y="110" type="line" smooth="yes"/>
			<point x="287" y="110"/>
			<point x="295" y="113"/>
			<point x="295" y="136" type="curve" smooth="yes"/>
			<point x="295" y="1342" type="line" smooth="yes"/>
			<point x="295" y="1380"/>
			<point x="290" y="1390"/>
			<point x="249" y="1390" type="curve" smooth="yes"/>
			<point x="107" y="1390" type="line" smooth="yes"/>
			<point x="82" y="1390"/>
			<point x="75" y="1394"/>
			<point x="75" y="1418" type="curve" smooth="yes"/>
			<point x="75" y="1454" type="line" smooth="yes"/>
			<point x="75" y="1498"/>
			<point x="88" y="1500"/>
			<point x="129" y="1500" type="curve" smooth="yes"/>
			<point x="1261" y="1500" type="line" smooth="yes"/>
			<point x="1282" y="1500"/>
			<point x="1285" y="1493"/>
			<point x="1285" y="1471" type="curve" smooth="yes"/>
			<point x="1285" y="1050" type="line" smooth="yes"/>
			<point x="1285" y="1031"/>
			<point x="1276" y="1030"/>
			<point x="1257" y="1030" type="curve" smooth="yes"/>
			<point x="1205" y="1030" type="line" smooth="yes"/>
			<point x="1185" y="1030"/>
			<point x="1185" y="1035"/>
			<point x="1185" y="1054" type="curve" smooth="yes"/>
			<point x="1182" y="1313"/>
			<point x="1114" y="1390"/>
			<point x="885" y="1390" type="curve" smooth="yes"/>
			<point x="543" y="1390" type="line" smooth="yes"/>
			<point x="489" y="1390"/>
			<point x="485" y="1382"/>
			<point x="485" y="1327" type="curve" smooth="yes"/>
			<point x="485" y="886" type="line" smooth="yes"/>
			<point x="485" y="831"/>
			<point x="494" y="830"/>
			<point x="549" y="830" type="curve" smooth="yes"/>
			<point x="825" y="830" type="line" smooth="yes"/>
			<point x="1187" y="830"/>
			<point x="1345" y="680"/>
			<point x="1345" y="420" type="curve" smooth="yes"/>
			<point x="1345" y="160"/>
			<point x="1187" y="0"/>
			<point x="825" y="0" type="curve" smooth="yes"/>
			<point x="112" y="0" type="line" smooth="yes"/>
			<point x="83" y="0"/>
			<point x="75" y="5"/>
			<point x="75" y="36" type="curve" smooth="yes"/>
			<point x="75" y="77" type="line" smooth="yes"/>
			<point x="75" y="101"/>
			<point x="76" y="110"/>
			<point x="100" y="110" type="curve" smooth="yes"/>
		</contour>
	</outline>
</glyph>
<glyph name="Pe-cy" format="2">
	<advance width="1770" height="0"/>
	<unicode hex="041F"/>
	<anchor x="876" y="1500" name="Anchor-0"/>
	<anchor x="876" y="0" name="Anchor-1"/>
	<anchor x="876" y="0" name="Anchor-2"/>
	<outline>
		<contour>
			<point x="1285" y="1338" type="line" smooth="yes"/>
			<point x="1285" y="1380"/>
			<point x="1284" y="1390"/>
			<point x="1242" y="1390" type="curve" smooth="yes"/>
			<point x="524" y="1390" type="line" smooth="yes"/>
			<point x="490" y="1390"/>
			<point x="485" y="1383"/>
			<point x="485" y="1347" type="curve" smooth="yes"/>
			<point x="485" y="150" type="line" smooth="yes"/>
			<point x="485" y="119"/>
			<point x="490" y="110"/>
			<point x="523" y="110" type="curve" smooth="yes"/>
			<point x="692" y="110" type="line" smooth="yes"/>
			<point x="719" y="110"/>
			<point x="725" y="105"/>
			<point x="725" y="76" type="curve" smooth="yes"/>
			<point x="725" y="50" type="line" smooth="yes"/>
			<point x="725" y="5"/>
			<point x="719" y="0"/>
			<point x="675" y="0" type="curve" smooth="yes"/>
			<point x="115" y="0" type="line" smooth="yes"/>
			<point x="82" y="0"/>
			<point x="75" y="5"/>
			<point x="75" y="40" type="curve" smooth="yes"/>
			<point x="75" y="68" type="line" smooth="yes"/>
			<point x="75" y="104"/>
			<point x="81" y="110"/>
			<point x="116" y="110" type="curve" smooth="yes"/>
			<point x="254" y="110" type="line" smooth="yes"/>
			<point x="286" y="110"/>
			<point x="295" y="112"/>
			<point x="295" y="144" type="curve" smooth="yes"/>
			<point x="295" y="1351" type="line" smooth="yes"/>
			<point x="295" y="1383"/>
			<point x="286" y="1390"/>
			<point x="256" y="1390" type="curve" smooth="yes"/>
			<point x="110" y="1390" type="line" smooth="yes"/>
			<point x="76" y="1390"/>
			<point x="75" y="1401"/>
			<point x="75" y="1436" type="curve" smooth="yes"/>
			<point x="75" y="1462" type="line" smooth="yes"/>
			<point x="75" y="1494"/>
			<point x="85" y="1500"/>
			<point x="115" y="1500" type="curve" smooth="yes"/>
			<point x="1655" y="1500" type="line" smooth="yes"/>
			<point x="1687" y="1500"/>
			<point x="1695" y="1496"/>
			<point x="1695" y="1462" type="curve" smooth="yes"/>
			<point x="1695" y="1424" type="line" smooth="yes"/>
			<point x="1695" y="1396"/>
			<point x="1686" y="1390"/>
			<point x="1656" y="1390" type="curve" smooth="yes"/>
			<point x="1530" y="1390" type="line" smooth="yes"/>
			<point x="1486" y="1390"/>
			<point x="1475" y="1388"/>
			<point x="1475" y="1344" type="curve" smooth="yes"/>
			<point x="1475" y="144" type="line" smooth="yes"/>
			<point x="1475" y="116"/>
			<point x="1482" y="110"/>
			<point x="1512" y="110" type="curve" smooth="yes"/>
			<point x="1656" y="110" type="line" smooth="yes"/>
			<point x="1683" y="110"/>
			<point x="1695" y="107"/>
			<point x="1695" y="78" type="curve" smooth="yes"/>
			<point x="1695" y="44" type="line" smooth="yes"/>
			<point x="1695" y="2"/>
			<point x="1684" y="0"/>
			<point x="1645" y="0" type="curve" smooth="yes"/>
			<point x="1085" y="0" type="line" smooth="yes"/>
			<point x="1049" y="0"/>
			<point x="1045" y="7"/>
			<point x="1045" y="44" type="curve" smooth="yes"/>
			<point x="1045" y="74" type="line" smooth="yes"/>
			<point x="1045" y="102"/>
			<point x="1047" y="110"/>
			<point x="1074" y="110" type="curve" smooth="yes"/>
			<point x="1243" y="110" type="line" smooth="yes"/>
			<point x="1282" y="110"/>
			<point x="1285" y="123"/>
			<point x="1285" y="160" type="curve" smooth="yes"/>
		</contour>
	</outline>
</glyph>
<glyph name="Tse-cy" format="2">
	<advance width="1770" height="0"/>
	<unicode hex="0426"/>
	<anchor x="876" y="1500" name="Anchor-0"/>
	<anchor x="876" y="0" name="Anchor-1"/>
	<anchor x="876" y="0" name="Anchor-2"/>
	<outline>
		<contour>
			<point x="485" y="162" type="line" smooth="yes"/>
			<point x="485" y="120"/>
			<point x="486" y="110"/>
			<point x="528" y="110" type="curve" smooth="yes"/>
			<point x="1246" y="110" type="line" smooth="yes"/>
			<point x="1280" y="110"/>
			<point x="1285" y="117"/>
			<point x="1285" y="153" type="curve" smooth="yes"/>
			<point x="1285" y="1350" type="line" smooth="yes"/>
			<point x="1285" y="1381"/>
			<point x="1280" y="1390"/>
			<point x="1247" y="1390" type="curve" smooth="yes"/>
			<point x="1078" y="1390" type="line" smooth="yes"/>
			<point x="1051" y="1390"/>
			<point x="1045" y="1395"/>
			<point x="1045" y="1424" type="curve" smooth="yes"/>
			<point x="1045" y="1450" type="line" smooth="yes"/>
			<point x="1045" y="1495"/>
			<point x="1051" y="1500"/>
			<point x="1095" y="1500" type="curve" smooth="yes"/>
			<point x="1655" y="1500" type="line" smooth="yes"/>
			<point x="1688" y="1500"/>
			<point x="1695" y="1495"/>
			<point x="1695" y="1460" type="curve" smooth="yes"/>
			<point x="1695" y="1432" type="line" smooth="yes"/>
			<point x="1695" y="1396"/>
			<point x="1689" y="1390"/>
			<point x="1654" y="1390" type="curve" smooth="yes"/>
			<point x="1516" y="1390" type="line" smooth="yes"/>
			<point x="1484" y="1390"/>
			<point x="1475" y="1388"/>
			<point x="1475" y="1356" type="curve" smooth="yes"/>
			<point x="1475" y="149" type="line" smooth="yes"/>
			<point x="1475" y="117"/>
			<point x="1484" y="110"/>
			<point x="1514" y="110" type="curve" smooth="yes"/>
			<point x="1660" y="110" type="line" smooth="yes"/>
			<point x="1694" y="110"/>
			<point x="1695" y="99"/>
			<point x="1695" y="64" type="curve" smooth="yes"/>
			<point x="1695" y="-369" type="line" smooth="yes"/>
			<point x="1695" y="-398"/>
			<point x="1687" y="-400"/>
			<point x="1657" y="-400" type="curve" smooth="yes"/>
			<point x="1633" y="-400" type="line" smooth="yes"/>
			<point x="1596" y="-400"/>
			<point x="1595" y="-385"/>
			<point x="1594" y="-353" type="curve" smooth="yes"/>
			<point x="1587" y="-76"/>
			<point x="1515" y="0"/>
			<point x="1255" y="0" type="curve" smooth="yes"/>
			<point x="115" y="0" type="line" smooth="yes"/>
			<point x="83" y="0"/>
			<point x="75" y="4"/>
			<point x="75" y="38" type="curve" smooth="yes"/>
			<point x="75" y="76" type="line" smooth="yes"/>
			<point x="75" y="104"/>
			<point x="84" y="110"/>
			<point x="114" y="110" type="curve" smooth="yes"/>
			<point x="240" y="110" type="line" smooth="yes"/>
			<point x="284" y="110"/>
			<point x="295" y="112"/>
			<point x="295" y="156" type="curve" smooth="yes"/>
			<point x="295" y="1356" type="line" smooth="yes"/>
			<point x="295" y="1384"/>
			<point x="288" y="1390"/>
			<point x="258" y="1390" type="curve" smooth="yes"/>
			<point x="114" y="1390" type="line" smooth="yes"/>
			<point x="87" y="1390"/>
			<point x="75" y="1393"/>
			<point x="75" y="1422" type="curve" smooth="yes"/>
			<point x="75" y="1456" type="line" smooth="yes"/>
			<point x="75" y="1498"/>
			<point x="86" y="1500"/>
			<point x="125" y="1500" type="curve" smooth="yes"/>
			<point x="685" y="1500" type="line" smooth="yes"/>
			<point x="721" y="1500"/>
			<point x="725" y="1493"/>
			<point x="725" y="1456" type="curve" smooth="yes"/>
			<point x="725" y="1426" type="line" smooth="yes"/>
			<point x="725" y="1398"/>
			<point x="723" y="1390"/>
			<point x="696" y="1390" type="curve" smooth="yes"/>
			<point x="527" y="1390" type="line" smooth="yes"/>
			<point x="488" y="1390"/>
			<point x="485" y="1377"/>
			<point x="485" y="1340" type="curve" smooth="yes"/>
		</contour>
	</outline>
</glyph>
<glyph name="Che-cy" format="2">
	<advance width="1710" height="0"/>
	<unicode hex="0427"/>
	<anchor x="816" y="1500" name="Anchor-0"/>
	<anchor x="816" y="0" name="Anchor-1"/>
	<anchor x="816" y="0" name="Anchor-2"/>
	<outline>
		<contour>
			<point x="1225" y="1338" type="line" smooth="yes"/>
			<point x="1225" y="1380"/>
			<point x="1224" y="1390"/>
			<point x="1182" y="1390" type="curve" smooth="yes"/>
			<point x="1019" y="1390" type="line" smooth="yes"/>
			<point x="991" y="1390"/>
			<point x="985" y="1403"/>
			<point x="985" y="1429" type="curve" smooth="yes"/>
			<point x="985" y="1458" type="line" smooth="yes"/>
			<point x="985" y="1494"/>
			<point x="990" y="1500"/>
			<point x="1025" y="1500" type="curve" smooth="yes"/>
			<point x="1595" y="1500" type="line" smooth="yes"/>
			<point x="1627" y="1500"/>
			<point x="1635" y="1496"/>
			<point x="1635" y="1462" type="curve" smooth="yes"/>
			<point x="1635" y="1424" type="line" smooth="yes"/>
			<point x="1635" y="1396"/>
			<point x="1626" y="1390"/>
			<point x="1596" y="1390" type="curve" smooth="yes"/>
			<point x="1470" y="1390" type="line" smooth="yes"/>
			<point x="1426" y="1390"/>
			<point x="1415" y="1388"/>
			<point x="1415" y="1344" type="curve" smooth="yes"/>
			<point x="1415" y="144" type="line" smooth="yes"/>
			<point x="1415" y="116"/>
			<point x="1422" y="110"/>
			<point x="1452" y="110" type="curve" smooth="yes"/>
			<point x="1596" y="110" type="line" smooth="yes"/>
			<point x="1623" y="110"/>
			<point x="1635" y="107"/>
			<point x="1635" y="78" type="curve" smooth="yes"/>
			<point x="1635" y="44" type="line" smooth="yes"/>
			<point x="1635" y="2"/>
			<point x="1624" y="0"/>
			<point x="1585" y="0" type="curve" smooth="yes"/>
			<point x="1025" y="0" type="line" smooth="yes"/>
			<point x="989" y="0"/>
			<point x="985" y="7"/>
			<point x="985" y="44" type="curve" smooth="yes"/>
			<point x="985" y="74" type="line" smooth="yes"/>
			<point x="985" y="102"/>
			<point x="987" y="110"/>
			<point x="1014" y="110" type="curve" smooth="yes"/>
			<point x="1183" y="110" type="line" smooth="yes"/>
			<point x="1222" y="110"/>
			<point x="1225" y="123"/>
			<point x="1225" y="160" type="curve" smooth="yes"/>
			<point x="1225" y="637" type="line" smooth="yes"/>
			<point x="1225" y="713"/>
			<point x="1223" y="730"/>
			<point x="1182" y="700" type="curve" smooth="yes"/>
			<point x="1060" y="613"/>
			<point x="914" y="574"/>
			<point x="705" y="574" type="curve" smooth="yes"/>
			<point x="379" y="574"/>
			<point x="235" y="718"/>
			<point x="235" y="1064" type="curve" smooth="yes"/>
			<point x="235" y="1351" type="line" smooth="yes"/>
			<point x="235" y="1383"/>
			<point x="226" y="1390"/>
			<point x="196" y="1390" type="curve" smooth="yes"/>
			<point x="50" y="1390" type="line" smooth="yes"/>
			<point x="16" y="1390"/>
			<point x="15" y="1401"/>
			<point x="15" y="1436" type="curve" smooth="yes"/>
			<point x="15" y="1462" type="line" smooth="yes"/>
			<point x="15" y="1494"/>
			<point x="25" y="1500"/>
			<point x="55" y="1500" type="curve" smooth="yes"/>
			<point x="625" y="1500" type="line" smooth="yes"/>
			<point x="652" y="1500"/>
			<point x="665" y="1497"/>
			<point x="665" y="1468" type="curve" smooth="yes"/>
			<point x="665" y="1428" type="line" smooth="yes"/>
			<point x="665" y="1396"/>
			<point x="659" y="1390"/>
			<point x="628" y="1390" type="curve" smooth="yes"/>
			<point x="464" y="1390" type="line" smooth="yes"/>
			<point x="430" y="1390"/>
			<point x="425" y="1383"/>
			<point x="425" y="1347" type="curve" smooth="yes"/>
			<point x="425" y="1064" type="line" smooth="yes"/>
			<point x="425" y="860"/>
			<point x="487" y="704"/>
			<point x="745" y="704" type="curve" smooth="yes"/>
			<point x="950" y="704"/>
			<point x="1076" y="739"/>
			<point x="1179" y="816" type="curve" smooth="yes"/>
			<point x="1208" y="838"/>
			<point x="1225" y="864"/>
			<point x="1225" y="918" type="curve" smooth="yes"/>
		</contour>
	</outline>
</glyph>
<glyph name="Hardsign-cy" format="2">
	<advance width="1740" height="2080"/>
	<unicode hex="042A"/>
	<outline>
		<contour>
			<point x="915" y="720" type="line" smooth="yes"/>
			<point x="873" y="720"/>
			<point x="865" y="718"/>
			<point x="865" y="676" type="curve" smooth="yes"/>
			<point x="865" y="149" type="line" smooth="yes"/>
			<point x="865" y="122"/>
			<point x="868" y="110"/>
			<point x="894" y="110" type="curve" smooth="yes"/>
			<point x="1205" y="110" type="line" smooth="yes"/>
			<point x="1397" y="110"/>
			<point x="1505" y="242"/>
			<point x="1505" y="420" type="curve" smooth="yes"/>
			<point x="1505" y="598"/>
			<point x="1397" y="720"/>
			<point x="1205" y="720" type="curve" smooth="yes"/>
		</contour>
		<contour>
			<point x="643" y="110" type="line" smooth="yes"/>
			<point x="667" y="110"/>
			<point x="675" y="113"/>
			<point x="675" y="136" type="curve" smooth="yes"/>
			<point x="675" y="1342" type="line" smooth="yes"/>
			<point x="675" y="1380"/>
			<point x="670" y="1390"/>
			<point x="629" y="1390" type="curve" smooth="yes"/>
			<point x="475" y="1390" type="line" smooth="yes"/>
			<point x="246" y="1390"/>
			<point x="178" y="1313"/>
			<point x="175" y="1054" type="curve" smooth="yes"/>
			<point x="175" y="1035"/>
			<point x="175" y="1030"/>
			<point x="155" y="1030" type="curve" smooth="yes"/>
			<point x="103" y="1030" type="line" smooth="yes"/>
			<point x="84" y="1030"/>
			<point x="75" y="1031"/>
			<point x="75" y="1050" type="curve" smooth="yes"/>
			<point x="75" y="1471" type="line" smooth="yes"/>
			<point x="75" y="1493"/>
			<point x="78" y="1500"/>
			<point x="99" y="1500" type="curve" smooth="yes"/>
			<point x="1031" y="1500" type="line" smooth="yes"/>
			<point x="1072" y="1500"/>
			<point x="1085" y="1498"/>
			<point x="1085" y="1454" type="curve" smooth="yes"/>
			<point x="1085" y="1418" type="line" smooth="yes"/>
			<point x="1085" y="1394"/>
			<point x="1078" y="1390"/>
			<point x="1053" y="1390" type="curve" smooth="yes"/>
			<point x="923" y="1390" type="line" smooth="yes"/>
			<point x="869" y="1390"/>
			<point x="865" y="1382"/>
			<point x="865" y="1327" type="curve" smooth="yes"/>
			<point x="865" y="886" type="line" smooth="yes"/>
			<point x="865" y="831"/>
			<point x="874" y="830"/>
			<point x="929" y="830" type="curve" smooth="yes"/>
			<point x="1205" y="830" type="line" smooth="yes"/>
			<point x="1567" y="830"/>
			<point x="1725" y="680"/>
			<point x="1725" y="420" type="curve" smooth="yes"/>
			<point x="1725" y="160"/>
			<point x="1567" y="0"/>
			<point x="1205" y="0" type="curve" smooth="yes"/>
			<point x="492" y="0" type="line" smooth="yes"/>
			<point x="463" y="0"/>
			<point x="455" y="5"/>
			<point x="455" y="36" type="curve" smooth="yes"/>
			<point x="455" y="77" type="line" smooth="yes"/>
			<point x="455" y="101"/>
			<point x="456" y="110"/>
			<point x="480" y="110" type="curve" smooth="yes"/>
		</contour>
	</outline>
</glyph>
<glyph name="Yeru-cy" format="2">
	<advance width="2015" height="2080"/>
	<unicode hex="042B"/>
	<outline>
		<contour>
			<point x="1720" y="1354" type="curve" smooth="yes"/>
			<point x="1720" y="154" type="line" smooth="yes"/>
			<point x="1720" y="121"/>
			<point x="1729" y="110"/>
			<point x="1758" y="110" type="curve" smooth="yes"/>
			<point x="1918" y="110" type="line" smooth="yes"/>
			<point x="1937" y="110"/>
			<point x="1940" y="97"/>
			<point x="1940" y="78" type="curve" smooth="yes"/>
			<point x="1940" y="32" type="line" smooth="yes"/>
			<point x="1940" y="8"/>
			<point x="1928" y="0"/>
			<point x="1900" y="0" type="curve" smooth="yes"/>
			<point x="1350" y="0" type="line" smooth="yes"/>
			<point x="1322" y="0"/>
			<point x="1310" y="7"/>
			<point x="1310" y="32" type="curve" smooth="yes"/>
			<point x="1310" y="82" type="line" smooth="yes"/>
			<point x="1310" y="103"/>
			<point x="1318" y="110"/>
			<point x="1356" y="110" type="curve" smooth="yes"/>
			<point x="1462" y="110" type="line" smooth="yes"/>
			<point x="1497" y="110"/>
			<point x="1530" y="114"/>
			<point x="1530" y="160" type="curve" smooth="yes"/>
			<point x="1530" y="1356" type="line" smooth="yes"/>
			<point x="1530" y="1382"/>
			<point x="1530" y="1390"/>
			<point x="1500" y="1390" type="curve" smooth="yes"/>
			<point x="1344" y="1390" type="line" smooth="yes"/>
			<point x="1318" y="1390"/>
			<point x="1310" y="1399"/>
			<point x="1310" y="1420" type="curve" smooth="yes"/>
			<point x="1310" y="1474" type="line" smooth="yes"/>
			<point x="1310" y="1500"/>
			<point x="1317" y="1500"/>
			<point x="1340" y="1500" type="curve" smooth="yes"/>
			<point x="1904" y="1500" type="line" smooth="yes"/>
			<point x="1934" y="1500"/>
			<point x="1940" y="1497"/>
			<point x="1940" y="1466" type="curve" smooth="yes"/>
			<point x="1940" y="1432" type="line" smooth="yes"/>
			<point x="1940" y="1397"/>
			<point x="1923" y="1390"/>
			<point x="1898" y="1390" type="curve" smooth="yes"/>
			<point x="1758" y="1390" type="line" smooth="yes"/>
			<point x="1726" y="1390"/>
			<point x="1720" y="1387"/>
		</contour>
		<contour>
			<point x="263" y="110" type="line" smooth="yes"/>
			<point x="287" y="110"/>
			<point x="295" y="113"/>
			<point x="295" y="136" type="curve" smooth="yes"/>
			<point x="295" y="1342" type="line" smooth="yes"/>
			<point x="295" y="1380"/>
			<point x="290" y="1390"/>
			<point x="249" y="1390" type="curve" smooth="yes"/>
			<point x="107" y="1390" type="line" smooth="yes"/>
			<point x="82" y="1390"/>
			<point x="75" y="1394"/>
			<point x="75" y="1418" type="curve" smooth="yes"/>
			<point x="75" y="1454" type="line" smooth="yes"/>
			<point x="75" y="1498"/>
			<point x="88" y="1500"/>
			<point x="129" y="1500" type="curve" smooth="yes"/>
			<point x="663" y="1500" type="line" smooth="yes"/>
			<point x="703" y="1500"/>
			<point x="705" y="1492"/>
			<point x="705" y="1452" type="curve" smooth="yes"/>
			<point x="705" y="1430" type="line" smooth="yes"/>
			<point x="705" y="1399"/>
			<point x="704" y="1390"/>
			<point x="673" y="1390" type="curve" smooth="yes"/>
			<point x="543" y="1390" type="line" smooth="yes"/>
			<point x="489" y="1390"/>
			<point x="485" y="1382"/>
			<point x="485" y="1327" type="curve" smooth="yes"/>
			<point x="485" y="896" type="line" smooth="yes"/>
			<point x="485" y="841"/>
			<point x="494" y="840"/>
			<point x="549" y="840" type="curve" smooth="yes"/>
			<point x="785" y="840" type="line" smooth="yes"/>
			<point x="1147" y="840"/>
			<point x="1305" y="680"/>
			<point x="1305" y="420" type="curve" smooth="yes"/>
			<point x="1305" y="160"/>
			<point x="1147" y="0"/>
			<point x="785" y="0" type="curve" smooth="yes"/>
			<point x="112" y="0" type="line" smooth="yes"/>
			<point x="83" y="0"/>
			<point x="75" y="5"/>
			<point x="75" y="36" type="curve" smooth="yes"/>
			<point x="75" y="77" type="line" smooth="yes"/>
			<point x="75" y="101"/>
			<point x="76" y="110"/>
			<point x="100" y="110" type="curve" smooth="yes"/>
		</contour>
		<contour>
			<point x="535" y="730" type="line" smooth="yes"/>
			<point x="493" y="730"/>
			<point x="485" y="728"/>
			<point x="485" y="686" type="curve" smooth="yes"/>
			<point x="485" y="149" type="line" smooth="yes"/>
			<point x="485" y="122"/>
			<point x="488" y="110"/>
			<point x="514" y="110" type="curve" smooth="yes"/>
			<point x="785" y="110" type="line" smooth="yes"/>
			<point x="977" y="110"/>
			<point x="1085" y="242"/>
			<point x="1085" y="420" type="curve" smooth="yes"/>
			<point x="1085" y="598"/>
			<point x="977" y="730"/>
			<point x="785" y="730" type="curve" smooth="yes"/>
		</contour>
	</outline>
</glyph>
<glyph name="Yu-cy" format="2">
	<advance width="2380" height="0"/>
	<unicode hex="042E"/>
	<outline>
		<contour>
			<point x="1060" y="750" type="curve" smooth="yes"/>
			<point x="1060" y="386"/>
			<point x="1202" y="80"/>
			<point x="1550" y="80" type="curve" smooth="yes"/>
			<point x="1918" y="80"/>
			<point x="2040" y="386"/>
			<point x="2040" y="750" type="curve" smooth="yes"/>
			<point x="2040" y="1114"/>
			<point x="1898" y="1420"/>
			<point x="1550" y="1420" type="curve" smooth="yes"/>
			<point x="1202" y="1420"/>
			<point x="1060" y="1114"/>
		</contour>
		<contour>
			<point x="548" y="810" type="curve" smooth="yes"/>
			<point x="797" y="810" type="line" smooth="yes"/>
			<point x="836" y="810"/>
			<point x="833" y="834"/>
			<point x="837" y="866" type="curve" smooth="yes"/>
			<point x="882" y="1237"/>
			<point x="1145" y="1520"/>
			<point x="1550" y="1520" type="curve" smooth="yes"/>
			<point x="1996" y="1520"/>
			<point x="2270" y="1176"/>
			<point x="2270" y="750" type="curve" smooth="yes"/>
			<point x="2270" y="324"/>
			<point x="1976" y="-20"/>
			<point x="1550" y="-20" type="curve" smooth="yes"/>
			<point x="1138" y="-20"/>
			<point x="873" y="273"/>
			<point x="835" y="654" type="curve" smooth="yes"/>
			<point x="832" y="688"/>
			<point x="832" y="700"/>
			<point x="793" y="700" type="curve" smooth="yes"/>
			<point x="552" y="700" type="line" smooth="yes"/>
			<point x="515" y="700"/>
			<point x="500" y="694"/>
			<point x="500" y="656" type="curve" smooth="yes"/>
			<point x="500" y="154" type="line" smooth="yes"/>
			<point x="500" y="121"/>
			<point x="509" y="110"/>
			<point x="538" y="110" type="curve" smooth="yes"/>
			<point x="698" y="110" type="line" smooth="yes"/>
			<point x="717" y="110"/>
			<point x="720" y="97"/>
			<point x="720" y="78" type="curve" smooth="yes"/>
			<point x="720" y="32" type="line" smooth="yes"/>
			<point x="720" y="8"/>
			<point x="708" y="0"/>
			<point x="680" y="0" type="curve" smooth="yes"/>
			<point x="130" y="0" type="line" smooth="yes"/>
			<point x="102" y="0"/>
			<point x="90" y="7"/>
			<point x="90" y="32" type="curve" smooth="yes"/>
			<point x="90" y="82" type="line" smooth="yes"/>
			<point x="90" y="103"/>
			<point x="98" y="110"/>
			<point x="136" y="110" type="curve" smooth="yes"/>
			<point x="242" y="110" type="line" smooth="yes"/>
			<point x="277" y="110"/>
			<point x="310" y="114"/>
			<point x="310" y="160" type="curve" smooth="yes"/>
			<point x="310" y="1356" type="line" smooth="yes"/>
			<point x="310" y="1382"/>
			<point x="310" y="1390"/>
			<point x="280" y="1390" type="curve" smooth="yes"/>
			<point x="124" y="1390" type="line" smooth="yes"/>
			<point x="98" y="1390"/>
			<point x="90" y="1399"/>
			<point x="90" y="1420" type="curve" smooth="yes"/>
			<point x="90" y="1474" type="line" smooth="yes"/>
			<point x="90" y="1500"/>
			<point x="97" y="1500"/>
			<point x="120" y="1500" type="curve" smooth="yes"/>
			<point x="684" y="1500" type="line" smooth="yes"/>
			<point x="714" y="1500"/>
			<point x="720" y="1497"/>
			<point x="720" y="1466" type="curve" smooth="yes"/>
			<point x="720" y="1432" type="line" smooth="yes"/>
			<point x="720" y="1397"/>
			<point x="703" y="1390"/>
			<point x="678" y="1390" type="curve" smooth="yes"/>
			<point x="538" y="1390" type="line" smooth="yes"/>
			<point x="506" y="1390"/>
			<point x="500" y="1387"/>
			<point x="500" y="1354" type="curve" smooth="yes"/>
			<point x="500" y="864" type="line" smooth="yes"/>
			<point x="500" y="821"/>
			<point x="502" y="810"/>
		</contour>
	</outline>
</glyph>
<glyph name="Ya-cy" format="2">
	<advance width="1545" height="0"/>
	<unicode hex="042F"/>
	<anchor x="759" y="1500" name="Anchor-0"/>
	<anchor x="729" y="0" name="Anchor-1"/>
	<anchor x="729" y="0" name="Anchor-2"/>
	<outline>
		<contour>
			<point x="-45" y="190" type="curve" smooth="yes"/>
			<point x="-50" y="207"/>
			<point x="-40" y="211"/>
			<point x="-20" y="218" type="curve" smooth="yes"/>
			<point x="30" y="234" type="line" smooth="yes"/>
			<point x="50" y="241"/>
			<point x="54" y="228"/>
			<point x="61" y="212" type="curve" smooth="yes"/>
			<point x="91" y="143"/>
			<point x="131" y="110"/>
			<point x="168" y="110" type="curve" smooth="yes"/>
			<point x="338" y="110"/>
			<point x="149" y="553"/>
			<point x="443" y="710" type="curve" smooth="yes"/>
			<point x="487" y="733"/>
			<point x="485" y="744"/>
			<point x="447" y="756" type="curve" smooth="yes"/>
			<point x="257" y="814"/>
			<point x="200" y="936"/>
			<point x="200" y="1100" type="curve" smooth="yes"/>
			<point x="200" y="1320"/>
			<point x="338" y="1500"/>
			<point x="700" y="1500" type="curve" smooth="yes"/>
			<point x="1442" y="1500" type="line" smooth="yes"/>
			<point x="1467" y="1500"/>
			<point x="1470" y="1492"/>
			<point x="1470" y="1466" type="curve" smooth="yes"/>
			<point x="1470" y="1435" type="line" smooth="yes"/>
			<point x="1470" y="1399"/>
			<point x="1469" y="1390"/>
			<point x="1434" y="1390" type="curve" smooth="yes"/>
			<point x="1299" y="1390" type="line" smooth="yes"/>
			<point x="1257" y="1390"/>
			<point x="1250" y="1385"/>
			<point x="1250" y="1342" type="curve" smooth="yes"/>
			<point x="1250" y="153" type="line" smooth="yes"/>
			<point x="1250" y="113"/>
			<point x="1257" y="110"/>
			<point x="1298" y="110" type="curve" smooth="yes"/>
			<point x="1434" y="110" type="line" smooth="yes"/>
			<point x="1462" y="110"/>
			<point x="1470" y="105"/>
			<point x="1470" y="75" type="curve" smooth="yes"/>
			<point x="1470" y="32" type="line" smooth="yes"/>
			<point x="1470" y="6"/>
			<point x="1464" y="0"/>
			<point x="1439" y="0" type="curve" smooth="yes"/>
			<point x="873" y="0" type="line" smooth="yes"/>
			<point x="847" y="0"/>
			<point x="840" y="4"/>
			<point x="840" y="29" type="curve" smooth="yes"/>
			<point x="840" y="74" type="line" smooth="yes"/>
			<point x="840" y="103"/>
			<point x="843" y="110"/>
			<point x="871" y="110" type="curve" smooth="yes"/>
			<point x="1020" y="110" type="line" smooth="yes"/>
			<point x="1052" y="110"/>
			<point x="1060" y="113"/>
			<point x="1060" y="144" type="curve" smooth="yes"/>
			<point x="1060" y="638" type="line" smooth="yes"/>
			<point x="1060" y="682"/>
			<point x="1058" y="690"/>
			<point x="1014" y="690" type="curve" smooth="yes"/>
			<point x="750" y="690" type="line" smooth="yes"/>
			<point x="237" y="690"/>
			<point x="656" y="-20"/>
			<point x="240" y="-20" type="curve" smooth="yes"/>
			<point x="76" y="-20"/>
			<point x="-9" y="69"/>
		</contour>
		<contour>
			<point x="1013" y="810" type="line" smooth="yes"/>
			<point x="1056" y="810"/>
			<point x="1060" y="817"/>
			<point x="1060" y="858" type="curve" smooth="yes"/>
			<point x="1060" y="1343" type="line" smooth="yes"/>
			<point x="1060" y="1390"/>
			<point x="1060" y="1390"/>
			<point x="1013" y="1390" type="curve" smooth="yes"/>
			<point x="700" y="1390" type="line" smooth="yes"/>
			<point x="548" y="1390"/>
			<point x="400" y="1298"/>
			<point x="400" y="1100" type="curve" smooth="yes"/>
			<point x="400" y="902"/>
			<point x="548" y="810"/>
			<point x="700" y="810" type="curve" smooth="yes"/>
		</contour>
	</outline>
</glyph>
<glyph name="ve-cy" format="2">
	<advance width="1160" height="2234"/>
	<unicode hex="0432"/>
	<outline>
		<contour>
			<point x="221" y="930" type="curve" smooth="yes"/>
			<point x="86" y="930" type="line" smooth="yes"/>
			<point x="66" y="930"/>
			<point x="65" y="934"/>
			<point x="65" y="954" type="curve" smooth="yes"/>
			<point x="65" y="1014" type="line" smooth="yes"/>
			<point x="65" y="1034"/>
			<point x="70" y="1040"/>
			<point x="89" y="1040" type="curve" smooth="yes"/>
			<point x="570" y="1040" type="line" smooth="yes"/>
			<point x="872" y="1040"/>
			<point x="1040" y="980"/>
			<point x="1040" y="780" type="curve" smooth="yes"/>
			<point x="1040" y="647"/>
			<point x="972" y="575"/>
			<point x="873" y="553" type="curve" smooth="yes"/>
			<point x="844" y="546"/>
			<point x="847" y="532"/>
			<point x="871" y="526" type="curve" smooth="yes"/>
			<point x="1014" y="488"/>
			<point x="1100" y="420"/>
			<point x="1100" y="280" type="curve" smooth="yes"/>
			<point x="1100" y="20"/>
			<point x="872" y="0"/>
			<point x="610" y="0" type="curve" smooth="yes"/>
			<point x="96" y="0" type="line" smooth="yes"/>
			<point x="73" y="0"/>
			<point x="65" y="2"/>
			<point x="65" y="24" type="curve" smooth="yes"/>
			<point x="65" y="80" type="line" smooth="yes"/>
			<point x="65" y="106"/>
			<point x="74" y="110"/>
			<point x="98" y="110" type="curve" smooth="yes"/>
			<point x="222" y="110" type="line" smooth="yes"/>
			<point x="244" y="110"/>
			<point x="245" y="116"/>
			<point x="245" y="138" type="curve" smooth="yes"/>
			<point x="245" y="906" type="line" smooth="yes"/>
			<point x="245" y="926"/>
			<point x="239" y="930"/>
		</contour>
		<contour>
			<point x="425" y="898" type="curve" smooth="yes"/>
			<point x="425" y="644" type="line" smooth="yes"/>
			<point x="425" y="608"/>
			<point x="428" y="600"/>
			<point x="463" y="600" type="curve" smooth="yes"/>
			<point x="570" y="600" type="line" smooth="yes"/>
			<point x="722" y="600"/>
			<point x="850" y="632"/>
			<point x="850" y="770" type="curve" smooth="yes"/>
			<point x="850" y="908"/>
			<point x="722" y="930"/>
			<point x="570" y="930" type="curve" smooth="yes"/>
			<point x="453" y="930" type="line" smooth="yes"/>
			<point x="429" y="930"/>
			<point x="425" y="923"/>
		</contour>
		<contour>
			<point x="425" y="448" type="curve" smooth="yes"/>
			<point x="425" y="155" type="line" smooth="yes"/>
			<point x="425" y="116"/>
			<point x="430" y="110"/>
			<point x="471" y="110" type="curve" smooth="yes"/>
			<point x="590" y="110" type="line" smooth="yes"/>
			<point x="762" y="110"/>
			<point x="890" y="112"/>
			<point x="890" y="290" type="curve" smooth="yes"/>
			<point x="890" y="458"/>
			<point x="762" y="490"/>
			<point x="590" y="490" type="curve" smooth="yes"/>
			<point x="463" y="490" type="line" smooth="yes"/>
			<point x="423" y="490"/>
			<point x="425" y="488"/>
		</contour>
	</outline>
</glyph>
<glyph name="ge-cy" format="2">
	<advance width="910" height="2234"/>
	<unicode hex="0433"/>
	<outline>
		<contour>
			<point x="181" y="930" type="curve" smooth="yes"/>
			<point x="54" y="930" type="line" smooth="yes"/>
			<point x="35" y="930"/>
			<point x="30" y="932"/>
			<point x="30" y="952" type="curve" smooth="yes"/>
			<point x="30" y="1021" type="line" smooth="yes"/>
			<point x="30" y="1035"/>
			<point x="31" y="1040"/>
			<point x="45" y="1040" type="curve" smooth="yes"/>
			<point x="876" y="1040" type="line" smooth="yes"/>
			<point x="897" y="1040"/>
			<point x="900" y="1033"/>
			<point x="900" y="1011" type="curve" smooth="yes"/>
			<point x="900" y="670" type="line" smooth="yes"/>
			<point x="900" y="651"/>
			<point x="891" y="650"/>
			<point x="872" y="650" type="curve" smooth="yes"/>
			<point x="820" y="650" type="line" smooth="yes"/>
			<point x="800" y="650"/>
			<point x="800" y="655"/>
			<point x="800" y="674" type="curve" smooth="yes"/>
			<point x="797" y="853"/>
			<point x="729" y="930"/>
			<point x="530" y="930" type="curve" smooth="yes"/>
			<point x="434" y="930" type="line" smooth="yes"/>
			<point x="409" y="930"/>
			<point x="390" y="916"/>
			<point x="390" y="893" type="curve" smooth="yes"/>
			<point x="390" y="150" type="line" smooth="yes"/>
			<point x="390" y="118"/>
			<point x="404" y="110"/>
			<point x="438" y="110" type="curve" smooth="yes"/>
			<point x="612" y="110" type="line" smooth="yes"/>
			<point x="631" y="110"/>
			<point x="640" y="109"/>
			<point x="640" y="90" type="curve" smooth="yes"/>
			<point x="640" y="30" type="line" smooth="yes"/>
			<point x="640" y="4"/>
			<point x="631" y="0"/>
			<point x="607" y="0" type="curve" smooth="yes"/>
			<point x="55" y="0" type="line" smooth="yes"/>
			<point x="35" y="0"/>
			<point x="30" y="0"/>
			<point x="30" y="20" type="curve" smooth="yes"/>
			<point x="30" y="92" type="line" smooth="yes"/>
			<point x="30" y="109"/>
			<point x="39" y="110"/>
			<point x="57" y="110" type="curve" smooth="yes"/>
			<point x="183" y="110" type="line" smooth="yes"/>
			<point x="205" y="110"/>
			<point x="210" y="117"/>
			<point x="210" y="140" type="curve" smooth="yes"/>
			<point x="210" y="900" type="line" smooth="yes"/>
			<point x="210" y="927"/>
			<point x="207" y="930"/>
		</contour>
	</outline>
</glyph>
<glyph name="de-cy" format="2">
	<advance width="1243" height="2234"/>
	<unicode hex="0434"/>
	<outline>
		<contour>
			<point x="482" y="930" type="line" smooth="yes"/>
			<point x="439" y="930"/>
			<point x="437" y="922"/>
			<point x="437" y="878" type="curve" smooth="yes"/>
			<point x="437" y="820"/>
			<point x="405" y="308"/>
			<point x="308" y="174" type="curve" smooth="yes"/>
			<point x="262" y="110"/>
			<point x="292" y="110"/>
			<point x="336" y="110" type="curve" smooth="yes"/>
			<point x="747" y="110" type="line" smooth="yes"/>
			<point x="782" y="110"/>
			<point x="815" y="114"/>
			<point x="815" y="160" type="curve" smooth="yes"/>
			<point x="815" y="896" type="line" smooth="yes"/>
			<point x="815" y="922"/>
			<point x="815" y="930"/>
			<point x="785" y="930" type="curve" smooth="yes"/>
		</contour>
		<contour>
			<point x="995" y="894" type="curve" smooth="yes"/>
			<point x="995" y="154" type="line" smooth="yes"/>
			<point x="995" y="121"/>
			<point x="1004" y="110"/>
			<point x="1033" y="110" type="curve" smooth="yes"/>
			<point x="1153" y="110" type="line" smooth="yes"/>
			<point x="1172" y="110"/>
			<point x="1175" y="97"/>
			<point x="1175" y="78" type="curve" smooth="yes"/>
			<point x="1175" y="-299" type="line" smooth="yes"/>
			<point x="1175" y="-328"/>
			<point x="1167" y="-330"/>
			<point x="1137" y="-330" type="curve" smooth="yes"/>
			<point x="1113" y="-330" type="line" smooth="yes"/>
			<point x="1076" y="-330"/>
			<point x="1075" y="-315"/>
			<point x="1074" y="-283" type="curve" smooth="yes"/>
			<point x="1067" y="-66"/>
			<point x="995" y="0"/>
			<point x="735" y="0" type="curve" smooth="yes"/>
			<point x="445" y="0" type="line" smooth="yes"/>
			<point x="183" y="0"/>
			<point x="111" y="-68"/>
			<point x="105" y="-289" type="curve" smooth="yes"/>
			<point x="104" y="-320"/>
			<point x="101" y="-330"/>
			<point x="67" y="-330" type="curve" smooth="yes"/>
			<point x="39" y="-330" type="line" smooth="yes"/>
			<point x="5" y="-330"/>
			<point x="5" y="-309"/>
			<point x="5" y="-279" type="curve" smooth="yes"/>
			<point x="5" y="82" type="line" smooth="yes"/>
			<point x="5" y="103"/>
			<point x="13" y="110"/>
			<point x="51" y="110" type="curve" smooth="yes"/>
			<point x="294" y="110"/>
			<point x="317" y="788"/>
			<point x="317" y="871" type="curve" smooth="yes"/>
			<point x="317" y="916"/>
			<point x="315" y="930"/>
			<point x="270" y="930" type="curve" smooth="yes"/>
			<point x="212" y="930" type="line" smooth="yes"/>
			<point x="170" y="930"/>
			<point x="167" y="937"/>
			<point x="167" y="980" type="curve" smooth="yes"/>
			<point x="167" y="1000" type="line" smooth="yes"/>
			<point x="167" y="1039"/>
			<point x="181" y="1040"/>
			<point x="217" y="1040" type="curve" smooth="yes"/>
			<point x="1139" y="1040" type="line" smooth="yes"/>
			<point x="1169" y="1040"/>
			<point x="1175" y="1037"/>
			<point x="1175" y="1006" type="curve" smooth="yes"/>
			<point x="1175" y="972" type="line" smooth="yes"/>
			<point x="1175" y="937"/>
			<point x="1158" y="930"/>
			<point x="1133" y="930" type="curve" smooth="yes"/>
			<point x="1033" y="930" type="line" smooth="yes"/>
			<point x="1001" y="930"/>
			<point x="995" y="927"/>
		</contour>
	</outline>
</glyph>
<glyph name="ze-cy" format="2">
	<advance width="1020" height="2234"/>
	<unicode hex="0437"/>
	<outline>
		<contour>
			<point x="517" y="986" type="line"/>
			<point x="373" y="986"/>
			<point x="287.853" y="882.479"/>
			<point x="251" y="689" type="curve" smooth="yes"/>
			<point x="247" y="668"/>
			<point x="253" y="660"/>
			<point x="227" y="660" type="curve" smooth="yes"/>
			<point x="166" y="660" type="line" smooth="yes"/>
			<point x="143" y="660"/>
			<point x="137" y="664"/>
			<point x="137" y="686" type="curve" smooth="yes"/>
			<point x="137" y="1041" type="line" smooth="yes"/>
			<point x="137" y="1057"/>
			<point x="140" y="1060"/>
			<point x="157" y="1060" type="curve" smooth="yes"/>
			<point x="211" y="1060" type="line" smooth="yes"/>
			<point x="230" y="1060"/>
			<point x="226.041" y="1055.109"/>
			<point x="232" y="1042" type="curve" smooth="yes"/>
			<point x="253" y="994" type="line" smooth="yes"/>
			<point x="268.822" y="959.191"/>
			<point x="270.466" y="958.577"/>
			<point x="292" y="978" type="curve" smooth="yes"/>
			<point x="343" y="1024"/>
			<point x="414" y="1070"/>
			<point x="557" y="1070" type="curve"/>
		</contour>
		<contour>
			<point x="55" y="298" type="curve" smooth="yes"/>
			<point x="55" y="394"/>
			<point x="125" y="430"/>
			<point x="183" y="430" type="curve" smooth="yes"/>
			<point x="237" y="430"/>
			<point x="297" y="388"/>
			<point x="297" y="314" type="curve" smooth="yes"/>
			<point x="297" y="242"/>
			<point x="233" y="232"/>
			<point x="233" y="186" type="curve" smooth="yes"/>
			<point x="233" y="132"/>
			<point x="319" y="64"/>
			<point x="487" y="64" type="curve" smooth="yes"/>
			<point x="665" y="64"/>
			<point x="743" y="162"/>
			<point x="743" y="280" type="curve" smooth="yes"/>
			<point x="743" y="374"/>
			<point x="687" y="435"/>
			<point x="479" y="467" type="curve" smooth="yes"/>
			<point x="433.149" y="474.054"/>
			<point x="389" y="453"/>
			<point x="389" y="512" type="curve" smooth="yes"/>
			<point x="389" y="530" type="line" smooth="yes"/>
			<point x="389" y="589"/>
			<point x="434.071" y="568.554"/>
			<point x="479" y="576" type="curve" smooth="yes"/>
			<point x="660" y="606"/>
			<point x="723" y="696"/>
			<point x="723" y="812" type="curve" smooth="yes"/>
			<point x="723" y="920"/>
			<point x="665" y="986"/>
			<point x="517" y="986" type="curve"/>
			<point x="557" y="1070" type="line"/>
			<point x="779" y="1070"/>
			<point x="925" y="982"/>
			<point x="925" y="812" type="curve" smooth="yes"/>
			<point x="925" y="676"/>
			<point x="851" y="611"/>
			<point x="737" y="569" type="curve" smooth="yes"/>
			<point x="659.338" y="540.388"/>
			<point x="651" y="547"/>
			<point x="651" y="525" type="curve" smooth="yes"/>
			<point x="651" y="509"/>
			<point x="687.022" y="505.412"/>
			<point x="731" y="498" type="curve" smooth="yes"/>
			<point x="909" y="468"/>
			<point x="945" y="374"/>
			<point x="945" y="270" type="curve" smooth="yes"/>
			<point x="945" y="100"/>
			<point x="789" y="-20"/>
			<point x="507" y="-20" type="curve" smooth="yes"/>
			<point x="203" y="-20"/>
			<point x="55" y="134"/>
		</contour>
	</outline>
</glyph>
<glyph name="em-cy" format="2">
	<advance width="1600" height="2234"/>
	<unicode hex="043C"/>
	<outline>
		<contour>
			<point x="223" y="930" type="curve" smooth="yes"/>
			<point x="129" y="930" type="line" smooth="yes"/>
			<point x="102" y="930"/>
			<point x="95" y="934"/>
			<point x="95" y="960" type="curve" smooth="yes"/>
			<point x="95" y="1006" type="line" smooth="yes"/>
			<point x="95" y="1038"/>
			<point x="108" y="1040"/>
			<point x="137" y="1040" type="curve" smooth="yes"/>
			<point x="499" y="1040" type="line" smooth="yes"/>
			<point x="543" y="1040"/>
			<point x="538" y="1025"/>
			<point x="548" y="994" type="curve" smooth="yes"/>
			<point x="764" y="318" type="line" smooth="yes"/>
			<point x="777" y="279"/>
			<point x="778" y="251"/>
			<point x="789" y="251" type="curve" smooth="yes"/>
			<point x="798" y="251"/>
			<point x="800" y="265"/>
			<point x="811" y="298" type="curve" smooth="yes"/>
			<point x="1066" y="1006" type="line" smooth="yes"/>
			<point x="1075" y="1033"/>
			<point x="1072" y="1040"/>
			<point x="1109" y="1040" type="curve" smooth="yes"/>
			<point x="1459" y="1040" type="line" smooth="yes"/>
			<point x="1488" y="1040"/>
			<point x="1495" y="1035"/>
			<point x="1495" y="1004" type="curve" smooth="yes"/>
			<point x="1495" y="980" type="line" smooth="yes"/>
			<point x="1495" y="937"/>
			<point x="1491" y="930"/>
			<point x="1449" y="930" type="curve" smooth="yes"/>
			<point x="1372" y="930" type="line" smooth="yes"/>
			<point x="1335" y="930"/>
			<point x="1330" y="910"/>
			<point x="1331" y="876" type="curve" smooth="yes"/>
			<point x="1359" y="152" type="line" smooth="yes"/>
			<point x="1360" y="119"/>
			<point x="1365" y="110"/>
			<point x="1401" y="110" type="curve" smooth="yes"/>
			<point x="1497" y="110" type="line" smooth="yes"/>
			<point x="1535" y="110"/>
			<point x="1535" y="110"/>
			<point x="1535" y="72" type="curve" smooth="yes"/>
			<point x="1535" y="42" type="line" smooth="yes"/>
			<point x="1535" y="8"/>
			<point x="1532" y="0"/>
			<point x="1499" y="0" type="curve" smooth="yes"/>
			<point x="1043" y="0" type="line" smooth="yes"/>
			<point x="1012" y="0"/>
			<point x="995" y="5"/>
			<point x="995" y="38" type="curve" smooth="yes"/>
			<point x="995" y="62" type="line" smooth="yes"/>
			<point x="995" y="101"/>
			<point x="996" y="110"/>
			<point x="1035" y="110" type="curve" smooth="yes"/>
			<point x="1131" y="110" type="line" smooth="yes"/>
			<point x="1166" y="110"/>
			<point x="1171" y="120"/>
			<point x="1170" y="152" type="curve" smooth="yes"/>
			<point x="1155" y="709" type="line" smooth="yes"/>
			<point x="1153" y="761"/>
			<point x="1158" y="876"/>
			<point x="1149" y="876" type="curve" smooth="yes"/>
			<point x="1127" y="876"/>
			<point x="1104" y="770"/>
			<point x="1085" y="712" type="curve" smooth="yes"/>
			<point x="827" y="16" type="line" smooth="yes"/>
			<point x="819" y="-8"/>
			<point x="813" y="-20"/>
			<point x="779" y="-20" type="curve" smooth="yes"/>
			<point x="743" y="-20" type="line" smooth="yes"/>
			<point x="695" y="-20"/>
			<point x="690" y="0"/>
			<point x="679" y="34" type="curve" smooth="yes"/>
			<point x="433" y="768" type="line" smooth="yes"/>
			<point x="419" y="809"/>
			<point x="414" y="900"/>
			<point x="389" y="900" type="curve" smooth="yes"/>
			<point x="382" y="900"/>
			<point x="379" y="880"/>
			<point x="376" y="818" type="curve" smooth="yes"/>
			<point x="361" y="175" type="line" smooth="yes"/>
			<point x="359" y="120"/>
			<point x="370" y="110"/>
			<point x="427" y="110" type="curve" smooth="yes"/>
			<point x="509" y="110" type="line" smooth="yes"/>
			<point x="547" y="110"/>
			<point x="555" y="106"/>
			<point x="555" y="66" type="curve" smooth="yes"/>
			<point x="555" y="40" type="line" smooth="yes"/>
			<point x="555" y="5"/>
			<point x="539" y="0"/>
			<point x="503" y="0" type="curve" smooth="yes"/>
			<point x="109" y="0" type="line" smooth="yes"/>
			<point x="72" y="0"/>
			<point x="65" y="4"/>
			<point x="65" y="40" type="curve" smooth="yes"/>
			<point x="65" y="68" type="line" smooth="yes"/>
			<point x="65" y="105"/>
			<point x="71" y="110"/>
			<point x="107" y="110" type="curve" smooth="yes"/>
			<point x="185" y="110" type="line" smooth="yes"/>
			<point x="218" y="110"/>
			<point x="231" y="125"/>
			<point x="232" y="154" type="curve" smooth="yes"/>
			<point x="259" y="890" type="line" smooth="yes"/>
			<point x="260" y="917"/>
			<point x="253" y="930"/>
		</contour>
	</outline>
</glyph>
<glyph name="pe-cy" format="2">
	<advance width="1420" height="2310"/>
	<unicode hex="043F"/>
	<outline>
		<contour>
			<point x="455" y="151" type="line" smooth="yes"/>
			<point x="455" y="120"/>
			<point x="466" y="110"/>
			<point x="497" y="110" type="curve" smooth="yes"/>
			<point x="600" y="110" type="line" smooth="yes"/>
			<point x="627" y="110"/>
			<point x="635" y="105"/>
			<point x="635" y="76" type="curve" smooth="yes"/>
			<point x="635" y="30" type="line" smooth="yes"/>
			<point x="635" y="6"/>
			<point x="630" y="0"/>
			<point x="607" y="0" type="curve" smooth="yes"/>
			<point x="123" y="0" type="line" smooth="yes"/>
			<point x="99" y="0"/>
			<point x="95" y="7"/>
			<point x="95" y="32" type="curve" smooth="yes"/>
			<point x="95" y="78" type="line" smooth="yes"/>
			<point x="95" y="106"/>
			<point x="105" y="110"/>
			<point x="131" y="110" type="curve" smooth="yes"/>
			<point x="241" y="110" type="line" smooth="yes"/>
			<point x="267" y="110"/>
			<point x="275" y="113"/>
			<point x="275" y="138" type="curve" smooth="yes"/>
			<point x="275" y="885" type="line" smooth="yes"/>
			<point x="275" y="920"/>
			<point x="274" y="930"/>
			<point x="239" y="930" type="curve" smooth="yes"/>
			<point x="121" y="930" type="line" smooth="yes"/>
			<point x="99" y="930"/>
			<point x="95" y="937"/>
			<point x="95" y="960" type="curve" smooth="yes"/>
			<point x="95" y="1018" type="line" smooth="yes"/>
			<point x="95" y="1040"/>
			<point x="104" y="1040"/>
			<point x="126" y="1040" type="curve" smooth="yes"/>
			<point x="1297" y="1040" type="line" smooth="yes"/>
			<point x="1321" y="1040"/>
			<point x="1325" y="1033"/>
			<point x="1325" y="1008" type="curve" smooth="yes"/>
			<point x="1325" y="962" type="line" smooth="yes"/>
			<point x="1325" y="934"/>
			<point x="1315" y="930"/>
			<point x="1289" y="930" type="curve" smooth="yes"/>
			<point x="1179" y="930" type="line" smooth="yes"/>
			<point x="1153" y="930"/>
			<point x="1145" y="927"/>
			<point x="1145" y="902" type="curve" smooth="yes"/>
			<point x="1145" y="155" type="line" smooth="yes"/>
			<point x="1145" y="120"/>
			<point x="1146" y="110"/>
			<point x="1181" y="110" type="curve" smooth="yes"/>
			<point x="1299" y="110" type="line" smooth="yes"/>
			<point x="1321" y="110"/>
			<point x="1325" y="103"/>
			<point x="1325" y="80" type="curve" smooth="yes"/>
			<point x="1325" y="22" type="line" smooth="yes"/>
			<point x="1325" y="0"/>
			<point x="1316" y="0"/>
			<point x="1294" y="0" type="curve" smooth="yes"/>
			<point x="807" y="0" type="line" smooth="yes"/>
			<point x="786" y="0"/>
			<point x="785" y="9"/>
			<point x="785" y="31" type="curve" smooth="yes"/>
			<point x="785" y="81" type="line" smooth="yes"/>
			<point x="785" y="103"/>
			<point x="789" y="110"/>
			<point x="810" y="110" type="curve" smooth="yes"/>
			<point x="925" y="110" type="line" smooth="yes"/>
			<point x="957" y="110"/>
			<point x="965" y="114"/>
			<point x="965" y="149" type="curve" smooth="yes"/>
			<point x="965" y="889" type="line" smooth="yes"/>
			<point x="965" y="920"/>
			<point x="954" y="930"/>
			<point x="923" y="930" type="curve" smooth="yes"/>
			<point x="495" y="930" type="line" smooth="yes"/>
			<point x="463" y="930"/>
			<point x="455" y="926"/>
			<point x="455" y="891" type="curve" smooth="yes"/>
		</contour>
	</outline>
</glyph>
<glyph name="te-cy" format="2">
	<advance width="1120" height="2234"/>
	<unicode hex="0442"/>
	<outline>
		<contour>
			<point x="285" y="41" type="curve" smooth="yes"/>
			<point x="285" y="75" type="line" smooth="yes"/>
			<point x="285" y="107"/>
			<point x="297" y="110"/>
			<point x="327" y="110" type="curve" smooth="yes"/>
			<point x="421" y="110" type="line" smooth="yes"/>
			<point x="469" y="110"/>
			<point x="475" y="115"/>
			<point x="475" y="165" type="curve" smooth="yes"/>
			<point x="475" y="895" type="line" smooth="yes"/>
			<point x="475" y="933"/>
			<point x="468" y="940"/>
			<point x="431" y="940" type="curve" smooth="yes"/>
			<point x="395" y="940" type="line" smooth="yes"/>
			<point x="233" y="940"/>
			<point x="171" y="852"/>
			<point x="165" y="631" type="curve" smooth="yes"/>
			<point x="164.158" y="599.995"/>
			<point x="161" y="590"/>
			<point x="127" y="590" type="curve" smooth="yes"/>
			<point x="99" y="590" type="line" smooth="yes"/>
			<point x="65" y="590"/>
			<point x="65" y="611"/>
			<point x="65" y="641" type="curve" smooth="yes"/>
			<point x="65" y="987" type="line" smooth="yes"/>
			<point x="65" y="1033"/>
			<point x="68" y="1040"/>
			<point x="113" y="1040" type="curve" smooth="yes"/>
			<point x="1013" y="1040" type="line" smooth="yes"/>
			<point x="1052" y="1040"/>
			<point x="1055" y="1033"/>
			<point x="1055" y="993" type="curve" smooth="yes"/>
			<point x="1055" y="621" type="line" smooth="yes"/>
			<point x="1055" y="592"/>
			<point x="1047" y="590"/>
			<point x="1017" y="590" type="curve" smooth="yes"/>
			<point x="993" y="590" type="line" smooth="yes"/>
			<point x="956" y="590"/>
			<point x="955.032" y="605"/>
			<point x="954" y="637" type="curve" smooth="yes"/>
			<point x="947" y="854"/>
			<point x="895" y="940"/>
			<point x="735" y="940" type="curve" smooth="yes"/>
			<point x="693" y="940" type="line" smooth="yes"/>
			<point x="658" y="940"/>
			<point x="655" y="933"/>
			<point x="655" y="897" type="curve" smooth="yes"/>
			<point x="655" y="167" type="line" smooth="yes"/>
			<point x="655" y="116"/>
			<point x="660" y="110"/>
			<point x="709" y="110" type="curve" smooth="yes"/>
			<point x="793" y="110" type="line" smooth="yes"/>
			<point x="833" y="110"/>
			<point x="835" y="102"/>
			<point x="835" y="61" type="curve" smooth="yes"/>
			<point x="835" y="42" type="line" smooth="yes"/>
			<point x="835" y="2"/>
			<point x="813" y="0"/>
			<point x="777" y="0" type="curve" smooth="yes"/>
			<point x="331" y="0" type="line" smooth="yes"/>
			<point x="292" y="0"/>
			<point x="285" y="3"/>
		</contour>
	</outline>
</glyph>
<glyph name="yu-cy" format="2">
	<advance width="1711" height="2310"/>
	<unicode hex="044E"/>
	<outline>
		<contour>
			<point x="930" y="540" type="curve" smooth="yes"/>
			<point x="930" y="292"/>
			<point x="980" y="70"/>
			<point x="1198" y="70" type="curve" smooth="yes"/>
			<point x="1416" y="70"/>
			<point x="1466" y="292"/>
			<point x="1466" y="500" type="curve" smooth="yes"/>
			<point x="1466" y="748"/>
			<point x="1416" y="970"/>
			<point x="1198" y="970" type="curve" smooth="yes"/>
			<point x="980" y="970"/>
			<point x="930" y="748"/>
		</contour>
		<contour>
			<point x="270" y="149" type="curve" smooth="yes"/>
			<point x="270" y="889" type="line" smooth="yes"/>
			<point x="270" y="920"/>
			<point x="259" y="930"/>
			<point x="228" y="930" type="curve" smooth="yes"/>
			<point x="125" y="930" type="line" smooth="yes"/>
			<point x="98" y="930"/>
			<point x="90" y="935"/>
			<point x="90" y="964" type="curve" smooth="yes"/>
			<point x="90" y="1010" type="line" smooth="yes"/>
			<point x="90" y="1034"/>
			<point x="95" y="1040"/>
			<point x="118" y="1040" type="curve" smooth="yes"/>
			<point x="602" y="1040" type="line" smooth="yes"/>
			<point x="626" y="1040"/>
			<point x="630" y="1033"/>
			<point x="630" y="1008" type="curve" smooth="yes"/>
			<point x="630" y="962" type="line" smooth="yes"/>
			<point x="630" y="934"/>
			<point x="620" y="930"/>
			<point x="594" y="930" type="curve" smooth="yes"/>
			<point x="484" y="930" type="line" smooth="yes"/>
			<point x="458" y="930"/>
			<point x="450" y="927"/>
			<point x="450" y="902" type="curve" smooth="yes"/>
			<point x="450" y="638" type="line" smooth="yes"/>
			<point x="450" y="600.418"/>
			<point x="452.766" y="590"/>
			<point x="493" y="590" type="curve" smooth="yes"/>
			<point x="683" y="590" type="line" smooth="yes"/>
			<point x="727.186" y="590"/>
			<point x="726.434" y="615.324"/>
			<point x="732.582" y="650" type="curve" smooth="yes"/>
			<point x="775.515" y="892.136"/>
			<point x="928.704" y="1060"/>
			<point x="1198" y="1060" type="curve" smooth="yes"/>
			<point x="1520" y="1060"/>
			<point x="1676" y="820"/>
			<point x="1676" y="540" type="curve" smooth="yes"/>
			<point x="1676" y="220"/>
			<point x="1520" y="-20"/>
			<point x="1198" y="-20" type="curve" smooth="yes"/>
			<point x="898.483" y="-20"/>
			<point x="742.595" y="187.654"/>
			<point x="722.285" y="442" type="curve" smooth="yes"/>
			<point x="719.938" y="471.383"/>
			<point x="716.522" y="480"/>
			<point x="683" y="480" type="curve" smooth="yes"/>
			<point x="517" y="480" type="line" smooth="yes"/>
			<point x="470.387" y="480"/>
			<point x="450" y="477.711"/>
			<point x="450" y="428" type="curve" smooth="yes"/>
			<point x="450" y="155" type="line" smooth="yes"/>
			<point x="450" y="120"/>
			<point x="451" y="110"/>
			<point x="486" y="110" type="curve" smooth="yes"/>
			<point x="604" y="110" type="line" smooth="yes"/>
			<point x="626" y="110"/>
			<point x="630" y="103"/>
			<point x="630" y="80" type="curve" smooth="yes"/>
			<point x="630" y="22" type="line" smooth="yes"/>
			<point x="630" y="0"/>
			<point x="621" y="0"/>
			<point x="599" y="0" type="curve" smooth="yes"/>
			<point x="112" y="0" type="line" smooth="yes"/>
			<point x="91" y="0"/>
			<point x="90" y="9"/>
			<point x="90" y="31" type="curve" smooth="yes"/>
			<point x="90" y="81" type="line" smooth="yes"/>
			<point x="90" y="103"/>
			<point x="94" y="110"/>
			<point x="115" y="110" type="curve" smooth="yes"/>
			<point x="230" y="110" type="line" smooth="yes"/>
			<point x="262" y="110"/>
			<point x="270" y="114"/>
		</contour>
	</outline>
</glyph>
<glyph name="ya-cy" format="2">
	<advance width="1272" height="2234"/>
	<unicode hex="044F"/>
	<outline>
		<contour>
			<point x="792.081" y="570" type="line" smooth="yes"/>
			<point x="806" y="570"/>
			<point x="814" y="585.965"/>
			<point x="814" y="598" type="curve" smooth="yes"/>
			<point x="814" y="883" type="line" smooth="yes"/>
			<point x="814" y="930"/>
			<point x="814" y="930"/>
			<point x="767" y="930" type="curve" smooth="yes"/>
			<point x="631" y="930" type="line" smooth="yes"/>
			<point x="479" y="930"/>
			<point x="401" y="874"/>
			<point x="401" y="736" type="curve" smooth="yes"/>
			<point x="401" y="598"/>
			<point x="479" y="570"/>
			<point x="631" y="570" type="curve" smooth="yes"/>
		</contour>
		<contour>
			<point x="-41" y="190" type="curve" smooth="yes"/>
			<point x="-46" y="207"/>
			<point x="-36" y="211"/>
			<point x="-16" y="218" type="curve" smooth="yes"/>
			<point x="34" y="234" type="line" smooth="yes"/>
			<point x="54" y="241"/>
			<point x="58" y="228"/>
			<point x="65" y="212" type="curve" smooth="yes"/>
			<point x="95" y="143"/>
			<point x="125" y="105"/>
			<point x="182" y="105" type="curve" smooth="yes"/>
			<point x="360.036" y="105"/>
			<point x="151.739" y="355.238"/>
			<point x="375.738" y="497" type="curve" smooth="yes"/>
			<point x="411.54" y="519.658"/>
			<point x="431.97" y="516.94"/>
			<point x="375" y="529.729" type="curve" smooth="yes"/>
			<point x="252.847" y="557.148"/>
			<point x="191" y="620.229"/>
			<point x="191" y="760" type="curve" smooth="yes"/>
			<point x="191" y="970"/>
			<point x="359" y="1040"/>
			<point x="631" y="1040" type="curve" smooth="yes"/>
			<point x="1146" y="1040" type="line" smooth="yes"/>
			<point x="1171" y="1040"/>
			<point x="1174" y="1032"/>
			<point x="1174" y="1006" type="curve" smooth="yes"/>
			<point x="1174" y="975" type="line" smooth="yes"/>
			<point x="1174" y="939"/>
			<point x="1173" y="930"/>
			<point x="1138" y="930" type="curve" smooth="yes"/>
			<point x="1033" y="930" type="line" smooth="yes"/>
			<point x="991" y="930"/>
			<point x="994" y="925"/>
			<point x="994" y="882" type="curve" smooth="yes"/>
			<point x="994" y="153" type="line" smooth="yes"/>
			<point x="994" y="113"/>
			<point x="991" y="110"/>
			<point x="1032" y="110" type="curve" smooth="yes"/>
			<point x="1138" y="110" type="line" smooth="yes"/>
			<point x="1166" y="110"/>
			<point x="1174" y="105"/>
			<point x="1174" y="75" type="curve" smooth="yes"/>
			<point x="1174" y="32" type="line" smooth="yes"/>
			<point x="1174" y="6"/>
			<point x="1168" y="0"/>
			<point x="1143" y="0" type="curve" smooth="yes"/>
			<point x="677" y="0" type="line" smooth="yes"/>
			<point x="651" y="0"/>
			<point x="644" y="4"/>
			<point x="644" y="29" type="curve" smooth="yes"/>
			<point x="644" y="74" type="line" smooth="yes"/>
			<point x="644" y="103"/>
			<point x="647" y="110"/>
			<point x="675" y="110" type="curve" smooth="yes"/>
			<point x="734" y="110" type="line" smooth="yes"/>
			<point x="766" y="110"/>
			<point x="814" y="113"/>
			<point x="814" y="144" type="curve" smooth="yes"/>
			<point x="814" y="408" type="line" smooth="yes"/>
			<point x="814" y="452"/>
			<point x="812" y="460"/>
			<point x="768" y="460" type="curve" smooth="yes"/>
			<point x="604" y="460" type="line" smooth="yes"/>
			<point x="251" y="460"/>
			<point x="680" y="-20"/>
			<point x="204" y="-20" type="curve" smooth="yes"/>
			<point x="80" y="-20"/>
			<point x="-5" y="69"/>
		</contour>
	</outline>
</glyph>
<glyph name="dje-cy" format="2">
	<advance width="1345" height="2310"/>
	<unicode hex="0452"/>
	<outline>
		<contour>
			<point x="116" y="1330" type="curve" smooth="yes"/>
			<point x="775" y="1330" type="line" smooth="yes"/>
			<point x="802" y="1330"/>
			<point x="810" y="1325"/>
			<point x="810" y="1296" type="curve" smooth="yes"/>
			<point x="810" y="1250" type="line" smooth="yes"/>
			<point x="810" y="1226"/>
			<point x="805" y="1220"/>
			<point x="782" y="1220" type="curve" smooth="yes"/>
			<point x="108" y="1220" type="line" smooth="yes"/>
			<point x="84" y="1220"/>
			<point x="80" y="1227"/>
			<point x="80" y="1252" type="curve" smooth="yes"/>
			<point x="80" y="1298" type="line" smooth="yes"/>
			<point x="80" y="1326"/>
			<point x="90" y="1330"/>
		</contour>
		<contour>
			<point x="236" y="1450" type="curve" smooth="yes"/>
			<point x="101" y="1450" type="line" smooth="yes"/>
			<point x="84" y="1450"/>
			<point x="80" y="1457"/>
			<point x="80" y="1475" type="curve" smooth="yes"/>
			<point x="80" y="1537" type="line" smooth="yes"/>
			<point x="80" y="1553"/>
			<point x="84" y="1560"/>
			<point x="99" y="1560" type="curve" smooth="yes"/>
			<point x="409" y="1560" type="line" smooth="yes"/>
			<point x="431" y="1560"/>
			<point x="440" y="1543"/>
			<point x="440" y="1525" type="curve" smooth="yes"/>
			<point x="440" y="888" type="line" smooth="yes"/>
			<point x="440" y="836"/>
			<point x="447" y="849"/>
			<point x="460" y="871" type="curve" smooth="yes"/>
			<point x="524" y="978"/>
			<point x="633" y="1060"/>
			<point x="806" y="1060" type="curve" smooth="yes"/>
			<point x="1060" y="1060"/>
			<point x="1130" y="952"/>
			<point x="1130" y="738" type="curve" smooth="yes"/>
			<point x="1130" y="22" type="line" smooth="yes"/>
			<point x="1130" y="-278"/>
			<point x="1088" y="-520"/>
			<point x="806" y="-520" type="curve" smooth="yes"/>
			<point x="628" y="-520"/>
			<point x="524" y="-404"/>
			<point x="524" y="-280" type="curve" smooth="yes"/>
			<point x="524" y="-204"/>
			<point x="572" y="-138"/>
			<point x="642" y="-138" type="curve" smooth="yes"/>
			<point x="710" y="-138"/>
			<point x="758" y="-184"/>
			<point x="758" y="-250" type="curve" smooth="yes"/>
			<point x="758" y="-320"/>
			<point x="720" y="-318"/>
			<point x="720" y="-358" type="curve" smooth="yes"/>
			<point x="720" y="-384"/>
			<point x="732" y="-432"/>
			<point x="806" y="-432" type="curve" smooth="yes"/>
			<point x="1028" y="-432"/>
			<point x="950" y="-20"/>
			<point x="950" y="208" type="curve" smooth="yes"/>
			<point x="950" y="716" type="line" smooth="yes"/>
			<point x="950" y="864"/>
			<point x="892" y="946"/>
			<point x="760" y="946" type="curve" smooth="yes"/>
			<point x="564" y="946"/>
			<point x="440" y="772"/>
			<point x="440" y="566" type="curve" smooth="yes"/>
			<point x="440" y="151" type="line" smooth="yes"/>
			<point x="440" y="120"/>
			<point x="451" y="110"/>
			<point x="482" y="110" type="curve" smooth="yes"/>
			<point x="585" y="110" type="line" smooth="yes"/>
			<point x="612" y="110"/>
			<point x="620" y="105"/>
			<point x="620" y="76" type="curve" smooth="yes"/>
			<point x="620" y="30" type="line" smooth="yes"/>
			<point x="620" y="6"/>
			<point x="615" y="0"/>
			<point x="592" y="0" type="curve" smooth="yes"/>
			<point x="108" y="0" type="line" smooth="yes"/>
			<point x="84" y="0"/>
			<point x="80" y="7"/>
			<point x="80" y="32" type="curve" smooth="yes"/>
			<point x="80" y="78" type="line" smooth="yes"/>
			<point x="80" y="106"/>
			<point x="90" y="110"/>
			<point x="116" y="110" type="curve" smooth="yes"/>
			<point x="226" y="110" type="line" smooth="yes"/>
			<point x="252" y="110"/>
			<point x="260" y="113"/>
			<point x="260" y="138" type="curve" smooth="yes"/>
			<point x="260" y="1433" type="line" smooth="yes"/>
			<point x="260" y="1448"/>
			<point x="252" y="1450"/>
		</contour>
	</outline>
</glyph>
<glyph name="ushort-cy" format="2">
	<advance width="1266" height="2310"/>
	<unicode hex="045E"/>
	<outline>
		<contour>
			<point x="893" y="1521" type="curve" smooth="yes"/>
			<point x="964" y="1521"/>
			<point x="1016" y="1472"/>
			<point x="1016" y="1401" type="curve" smooth="yes"/>
			<point x="1016" y="1276"/>
			<point x="881" y="1197"/>
			<point x="669" y="1197" type="curve" smooth="yes"/>
			<point x="455" y="1197"/>
			<point x="321" y="1276"/>
			<point x="321" y="1403" type="curve" smooth="yes"/>
			<point x="321" y="1472"/>
			<point x="373" y="1521"/>
			<point x="444" y="1521" type="curve" smooth="yes"/>
			<point x="504" y="1521"/>
			<point x="550" y="1480"/>
			<point x="550" y="1426" type="curve" smooth="yes"/>
			<point x="550" y="1377"/>
			<point x="483" y="1369"/>
			<point x="483" y="1337" type="curve" smooth="yes"/>
			<point x="483" y="1304"/>
			<point x="550" y="1280"/>
			<point x="677" y="1280" type="curve" smooth="yes"/>
			<point x="791" y="1280"/>
			<point x="854" y="1306"/>
			<point x="854" y="1337" type="curve" smooth="yes"/>
			<point x="854" y="1370"/>
			<point x="787" y="1376"/>
			<point x="787" y="1426" type="curve" smooth="yes"/>
			<point x="787" y="1480"/>
			<point x="833" y="1521"/>
		</contour>
		<component base="y"/>
	</outline>
</glyph>
<glyph name="Geupturn-cy" format="2">
	<advance width="1285" height="0"/>
	<unicode hex="0490"/>
	<anchor x="764" y="1500" name="Anchor-0"/>
	<anchor x="396" y="0" name="Anchor-1"/>
	<anchor x="396" y="0" name="Anchor-2"/>
	<outline>
		<contour>
			<point x="266" y="1390" type="curve" smooth="yes"/>
			<point x="99" y="1390" type="line" smooth="yes"/>
			<point x="80" y="1390"/>
			<point x="75" y="1392"/>
			<point x="75" y="1412" type="curve" smooth="yes"/>
			<point x="75" y="1481" type="line" smooth="yes"/>
			<point x="75" y="1495"/>
			<point x="76" y="1500"/>
			<point x="90" y="1500" type="curve" smooth="yes"/>
			<point x="885" y="1500" type="line" smooth="yes"/>
			<point x="1114" y="1500"/>
			<point x="1182" y="1577"/>
			<point x="1185" y="1836" type="curve" smooth="yes"/>
			<point x="1185" y="1855"/>
			<point x="1185" y="1860"/>
			<point x="1205" y="1860" type="curve" smooth="yes"/>
			<point x="1257" y="1860" type="line" smooth="yes"/>
			<point x="1276" y="1860"/>
			<point x="1285" y="1859"/>
			<point x="1285" y="1840" type="curve" smooth="yes"/>
			<point x="1285" y="1419" type="line" smooth="yes"/>
			<point x="1285" y="1397"/>
			<point x="1282" y="1390"/>
			<point x="1261" y="1390" type="curve" smooth="yes"/>
			<point x="519" y="1390" type="line" smooth="yes"/>
			<point x="494" y="1390"/>
			<point x="485" y="1376"/>
			<point x="485" y="1353" type="curve" smooth="yes"/>
			<point x="485" y="150" type="line" smooth="yes"/>
			<point x="485" y="118"/>
			<point x="489" y="110"/>
			<point x="523" y="110" type="curve" smooth="yes"/>
			<point x="697" y="110" type="line" smooth="yes"/>
			<point x="716" y="110"/>
			<point x="725" y="109"/>
			<point x="725" y="90" type="curve" smooth="yes"/>
			<point x="725" y="30" type="line" smooth="yes"/>
			<point x="725" y="4"/>
			<point x="716" y="0"/>
			<point x="692" y="0" type="curve" smooth="yes"/>
			<point x="100" y="0" type="line" smooth="yes"/>
			<point x="80" y="0"/>
			<point x="75" y="0"/>
			<point x="75" y="20" type="curve" smooth="yes"/>
			<point x="75" y="92" type="line" smooth="yes"/>
			<point x="75" y="109"/>
			<point x="84" y="110"/>
			<point x="102" y="110" type="curve" smooth="yes"/>
			<point x="268" y="110" type="line" smooth="yes"/>
			<point x="290" y="110"/>
			<point x="295" y="117"/>
			<point x="295" y="140" type="curve" smooth="yes"/>
			<point x="295" y="1360" type="line" smooth="yes"/>
			<point x="295" y="1387"/>
			<point x="292" y="1390"/>
		</contour>
	</outline>
</glyph>
<glyph name="Germandbls" format="2">
	<advance width="1892" height="2309"/>
	<unicode hex="1E9E"/>
	<outline>
		<contour>
			<point x="915" y="271" type="line"/>
			<point x="915" y="151"/>
			<point x="1127" y="97"/>
			<point x="1273" y="97" type="curve" smooth="yes"/>
			<point x="1471" y="97"/>
			<point x="1602" y="192"/>
			<point x="1602" y="380" type="curve" smooth="yes"/>
			<point x="1602" y="528"/>
			<point x="1575" y="735"/>
			<point x="1137" y="735" type="curve"/>
			<point x="1137" y="848" type="line"/>
			<point x="1719" y="848"/>
			<point x="1812" y="601"/>
			<point x="1812" y="380" type="curve" smooth="yes"/>
			<point x="1812" y="120"/>
			<point x="1594" y="-20"/>
			<point x="1312" y="-20" type="curve" smooth="yes"/>
			<point x="1028" y="-20"/>
			<point x="780" y="126"/>
			<point x="780" y="271" type="curve" smooth="yes"/>
			<point x="780" y="353"/>
			<point x="831" y="412"/>
			<point x="911" y="412" type="curve" smooth="yes"/>
			<point x="982" y="412"/>
			<point x="1029" y="362"/>
			<point x="1029" y="290" type="curve" smooth="yes"/>
			<point x="1029" y="226"/>
			<point x="975" y="180"/>
			<point x="916" y="180" type="curve" smooth="yes"/>
			<point x="855" y="180"/>
			<point x="782" y="221"/>
			<point x="782" y="271" type="curve"/>
		</contour>
		<contour>
			<point x="50" y="110" type="line"/>
			<point x="611" y="110" type="line"/>
			<point x="611" y="0" type="line"/>
			<point x="50" y="0" type="line"/>
		</contour>
		<contour>
			<point x="1337" y="820" type="line"/>
			<point x="1296" y="831"/>
			<point x="1204" y="838"/>
			<point x="1137" y="848" type="curve"/>
			<point x="1520" y="1298" type="line"/>
			<point x="1440" y="1363"/>
			<point x="1245" y="1407"/>
			<point x="1097" y="1407" type="curve" smooth="yes"/>
			<point x="619" y="1407"/>
			<point x="431" y="1205"/>
			<point x="431" y="861" type="curve" smooth="yes"/>
			<point x="431" y="0" type="line"/>
			<point x="231" y="0" type="line"/>
			<point x="231" y="882" type="line" smooth="yes"/>
			<point x="231" y="1288"/>
			<point x="561" y="1520"/>
			<point x="1097" y="1520" type="curve" smooth="yes"/>
			<point x="1404" y="1520"/>
			<point x="1692" y="1388"/>
			<point x="1753" y="1322" type="curve"/>
		</contour>
	</outline>
</glyph>
<glyph name="quoteleft" format="2">
	<advance width="478" height="0"/>
	<unicode hex="2018"/>
	<outline>
		<contour>
			<point x="374" y="1190" type="curve" smooth="yes"/>
			<point x="374" y="1124"/>
			<point x="316" y="1072"/>
			<point x="240" y="1072" type="curve" smooth="yes"/>
			<point x="162" y="1072"/>
			<point x="100" y="1134"/>
			<point x="100" y="1280" type="curve" smooth="yes"/>
			<point x="100" y="1414"/>
			<point x="190" y="1584"/>
			<point x="355" y="1599" type="curve" smooth="yes"/>
			<point x="370" y="1600"/>
			<point x="378" y="1601"/>
			<point x="378" y="1584" type="curve" smooth="yes"/>
			<point x="378" y="1541" type="line" smooth="yes"/>
			<point x="378" y="1523"/>
			<point x="368" y="1520"/>
			<point x="353" y="1518" type="curve" smooth="yes"/>
			<point x="262" y="1504"/>
			<point x="184" y="1412"/>
			<point x="195" y="1297" type="curve" smooth="yes"/>
			<point x="197" y="1281"/>
			<point x="206" y="1289"/>
			<point x="217" y="1296" type="curve" smooth="yes"/>
			<point x="233" y="1307"/>
			<point x="247" y="1308"/>
			<point x="268" y="1308" type="curve" smooth="yes"/>
			<point x="334" y="1308"/>
			<point x="374" y="1256"/>
		</contour>
	</outline>
</glyph>
<glyph name="pertenthousand" format="2">
	<advance width="3800" height="0"/>
	<unicode hex="2031"/>
	<outline>
		<contour>
			<point x="2930" y="420" type="curve" smooth="yes"/>
			<point x="2930" y="706"/>
			<point x="3104" y="860"/>
			<point x="3330" y="860" type="curve" smooth="yes"/>
			<point x="3556" y="860"/>
			<point x="3730" y="706"/>
			<point x="3730" y="420" type="curve" smooth="yes"/>
			<point x="3730" y="134"/>
			<point x="3516" y="-20"/>
			<point x="3330" y="-20" type="curve" smooth="yes"/>
			<point x="3104" y="-20"/>
			<point x="2930" y="134"/>
		</contour>
		<contour>
			<point x="3150" y="420" type="curve" smooth="yes"/>
			<point x="3150" y="216"/>
			<point x="3182" y="80"/>
			<point x="3330" y="80" type="curve" smooth="yes"/>
			<point x="3478" y="80"/>
			<point x="3510" y="216"/>
			<point x="3510" y="420" type="curve" smooth="yes"/>
			<point x="3510" y="624"/>
			<point x="3478" y="760"/>
			<point x="3330" y="760" type="curve" smooth="yes"/>
			<point x="3182" y="760"/>
			<point x="3150" y="624"/>
		</contour>
		<contour>
			<point x="2030" y="420" type="curve" smooth="yes"/>
			<point x="2030" y="706"/>
			<point x="2204" y="860"/>
			<point x="2430" y="860" type="curve" smooth="yes"/>
			<point x="2656" y="860"/>
			<point x="2830" y="706"/>
			<point x="2830" y="420" type="curve" smooth="yes"/>
			<point x="2830" y="134"/>
			<point x="2616" y="-20"/>
			<point x="2430" y="-20" type="curve" smooth="yes"/>
			<point x="2204" y="-20"/>
			<point x="2030" y="134"/>
		</contour>
		<contour>
			<point x="2250" y="420" type="curve" smooth="yes"/>
			<point x="2250" y="216"/>
			<point x="2282" y="80"/>
			<point x="2430" y="80" type="curve" smooth="yes"/>
			<point x="2578" y="80"/>
			<point x="2610" y="216"/>
			<point x="2610" y="420" type="curve" smooth="yes"/>
			<point x="2610" y="624"/>
			<point x="2578" y="760"/>
			<point x="2430" y="760" type="curve" smooth="yes"/>
			<point x="2282" y="760"/>
			<point x="2250" y="624"/>
		</contour>
		<contour>
			<point x="70" y="1080" type="curve" smooth="yes"/>
			<point x="70" y="1366"/>
			<point x="244" y="1520"/>
			<point x="470" y="1520" type="curve" smooth="yes"/>
			<point x="696" y="1520"/>
			<point x="870" y="1366"/>
			<point x="870" y="1080" type="curve" smooth="yes"/>
			<point x="870" y="794"/>
			<point x="656" y="640"/>
			<point x="470" y="640" type="curve" smooth="yes"/>
			<point x="244" y="640"/>
			<point x="70" y="794"/>
		</contour>
		<contour>
			<point x="290" y="1080" type="curve" smooth="yes"/>
			<point x="290" y="876"/>
			<point x="322" y="740"/>
			<point x="470" y="740" type="curve" smooth="yes"/>
			<point x="618" y="740"/>
			<point x="650" y="876"/>
			<point x="650" y="1080" type="curve" smooth="yes"/>
			<point x="650" y="1284"/>
			<point x="618" y="1420"/>
			<point x="470" y="1420" type="curve" smooth="yes"/>
			<point x="322" y="1420"/>
			<point x="290" y="1284"/>
		</contour>
		<contour>
			<point x="1430" y="1500" type="curve" smooth="yes"/>
			<point x="1487" y="1500" type="line" smooth="yes"/>
			<point x="1522" y="1500"/>
			<point x="1520" y="1490"/>
			<point x="1506" y="1468" type="curve" smooth="yes"/>
			<point x="625" y="28" type="line" smooth="yes"/>
			<point x="612" y="7"/>
			<point x="602" y="0"/>
			<point x="567" y="0" type="curve" smooth="yes"/>
			<point x="514" y="0" type="line" smooth="yes"/>
			<point x="475" y="0"/>
			<point x="484" y="23"/>
			<point x="495" y="41" type="curve" smooth="yes"/>
			<point x="1388" y="1478" type="line" smooth="yes"/>
			<point x="1396" y="1492"/>
			<point x="1407" y="1500"/>
		</contour>
		<contour>
			<point x="1130" y="420" type="curve" smooth="yes"/>
			<point x="1130" y="706"/>
			<point x="1304" y="860"/>
			<point x="1530" y="860" type="curve" smooth="yes"/>
			<point x="1756" y="860"/>
			<point x="1930" y="706"/>
			<point x="1930" y="420" type="curve" smooth="yes"/>
			<point x="1930" y="134"/>
			<point x="1716" y="-20"/>
			<point x="1530" y="-20" type="curve" smooth="yes"/>
			<point x="1304" y="-20"/>
			<point x="1130" y="134"/>
		</contour>
		<contour>
			<point x="1350" y="420" type="curve" smooth="yes"/>
			<point x="1350" y="216"/>
			<point x="1382" y="80"/>
			<point x="1530" y="80" type="curve" smooth="yes"/>
			<point x="1678" y="80"/>
			<point x="1710" y="216"/>
			<point x="1710" y="420" type="curve" smooth="yes"/>
			<point x="1710" y="624"/>
			<point x="1678" y="760"/>
			<point x="1530" y="760" type="curve" smooth="yes"/>
			<point x="1382" y="760"/>
			<point x="1350" y="624"/>
		</contour>
	</outline>
</glyph>
<glyph name="Euro" format="2">
	<advance width="1629" height="0"/>
	<unicode hex="20AC"/>
	<outline>
		<contour>
			<point x="1040" y="1404" type="curve" smooth="yes"/>
			<point x="692" y="1404"/>
			<point x="500" y="1114"/>
			<point x="500" y="750" type="curve" smooth="yes"/>
			<point x="500" y="386"/>
			<point x="682" y="98"/>
			<point x="980" y="98" type="curve" smooth="yes"/>
			<point x="1281" y="98"/>
			<point x="1431" y="325"/>
			<point x="1438" y="464" type="curve" smooth="yes"/>
			<point x="1439" y="476"/>
			<point x="1444" y="480"/>
			<point x="1458" y="480" type="curve" smooth="yes"/>
			<point x="1528" y="480" type="line" smooth="yes"/>
			<point x="1542" y="480"/>
			<point x="1549" y="479"/>
			<point x="1549" y="466" type="curve" smooth="yes"/>
			<point x="1544" y="266"/>
			<point x="1341" y="-20"/>
			<point x="960" y="-20" type="curve" smooth="yes"/>
			<point x="584" y="-20"/>
			<point x="270" y="304"/>
			<point x="270" y="750" type="curve" smooth="yes"/>
			<point x="270" y="1196"/>
			<point x="624" y="1520"/>
			<point x="1030" y="1520" type="curve" smooth="yes"/>
			<point x="1324" y="1520"/>
			<point x="1512" y="1356"/>
			<point x="1512" y="1152" type="curve" smooth="yes"/>
			<point x="1512" y="1056"/>
			<point x="1442" y="1020"/>
			<point x="1384" y="1020" type="curve" smooth="yes"/>
			<point x="1330" y="1020"/>
			<point x="1270" y="1062"/>
			<point x="1270" y="1136" type="curve" smooth="yes"/>
			<point x="1270" y="1208"/>
			<point x="1334" y="1218"/>
			<point x="1334" y="1264" type="curve" smooth="yes"/>
			<point x="1334" y="1318"/>
			<point x="1258" y="1404"/>
		</contour>
		<component base="equal" xOffset="-70" yOffset="-30"/>
	</outline>
</glyph>
<glyph name="hammerAndSickle" format="2">
	<advance width="2000" height="0"/>
	<unicode hex="262D"/>
	<outline>
		<contour>
			<point x="420" y="939" type="curve" smooth="yes"/>
			<point x="717" y="1236" type="line" smooth="yes"/>
			<point x="749.792" y="1268.792"/>
			<point x="758.474" y="1273.579"/>
			<point x="819" y="1266.242" type="curve" smooth="yes"/>
			<point x="1035" y="1240.061" type="line" smooth="yes"/>
			<point x="1107.227" y="1231.306"/>
			<point x="1066.661" y="1215.661"/>
			<point x="1035" y="1184" type="curve" smooth="yes"/>
			<point x="919" y="1068" type="line" smooth="yes"/>
			<point x="862.959" y="1011.959"/>
			<point x="858.067" y="1011.757"/>
			<point x="916" y="956.621" type="curve" smooth="yes"/>
			<point x="1290" y="581.159" type="line" smooth="yes"/>
			<point x="1353.476" y="520.747"/>
			<point x="1364.516" y="514.715"/>
			<point x="1397.627" y="612" type="curve" smooth="yes"/>
			<point x="1415.528" y="664.594"/>
			<point x="1425" y="722.267"/>
			<point x="1425" y="782" type="curve" smooth="yes"/>
			<point x="1425" y="1037.902"/>
			<point x="1230.913" y="1278.157"/>
			<point x="1024.413" y="1431" type="curve" smooth="yes"/>
			<point x="1002.084" y="1447.527"/>
			<point x="991.312" y="1447.46"/>
			<point x="1008.448" y="1472" type="curve" smooth="yes"/>
			<point x="1033.586" y="1508" type="line" smooth="yes"/>
			<point x="1046.807" y="1526.933"/>
			<point x="1059.102" y="1519.542"/>
			<point x="1077.874" y="1507" type="curve" smooth="yes"/>
			<point x="1400.676" y="1291.327"/>
			<point x="1617" y="1050.312"/>
			<point x="1617" y="742" type="curve" smooth="yes"/>
			<point x="1617" y="626.868"/>
			<point x="1588.133" y="519.099"/>
			<point x="1534.354" y="430" type="curve" smooth="yes"/>
			<point x="1511.681" y="392.435"/>
			<point x="1493.38" y="387.597"/>
			<point x="1527" y="355.6" type="curve" smooth="yes"/>
			<point x="1666" y="223.31" type="line" smooth="yes"/>
			<point x="1687.255" y="203.082"/>
			<point x="1706.142" y="198.858"/>
			<point x="1683" y="175" type="curve" smooth="yes"/>
			<point x="1586" y="75" type="line" smooth="yes"/>
			<point x="1563.508" y="51.813"/>
			<point x="1559.242" y="46.842"/>
			<point x="1535.86" y="71" type="curve" smooth="yes"/>
			<point x="1381.002" y="231" type="line" smooth="yes"/>
			<point x="1360.071" y="252.825"/>
			<point x="1359.736" y="256.708"/>
			<point x="1331" y="242.794" type="curve" smooth="yes"/>
			<point x="1263.783" y="210.246"/>
			<point x="1185.989" y="192"/>
			<point x="1099" y="192" type="curve" smooth="yes"/>
			<point x="955.045" y="192"/>
			<point x="820.073" y="256.177"/>
			<point x="736" y="342.085" type="curve" smooth="yes"/>
			<point x="712.016" y="366.593"/>
			<point x="713.148" y="364.201"/>
			<point x="689.21" y="340" type="curve" smooth="yes"/>
			<point x="332.122" y="-21" type="line" smooth="yes"/>
			<point x="310.787" y="-42.569"/>
			<point x="310.668" y="-38.668"/>
			<point x="290.705" y="-17" type="curve" smooth="yes"/>
			<point x="186.6" y="96" type="line" smooth="yes"/>
			<point x="172.398" y="111.415"/>
			<point x="175.563" y="111.465"/>
			<point x="191" y="124.719" type="curve" smooth="yes"/>
			<point x="649" y="516.535" type="line" smooth="yes"/>
			<point x="674.201" y="538.173"/>
			<point x="684.05" y="547.227"/>
			<point x="706" y="523.178" type="curve" smooth="yes"/>
			<point x="843.75" y="372.254"/>
			<point x="957.864" y="356"/>
			<point x="1069" y="356" type="curve" smooth="yes"/>
			<point x="1106.076" y="356"/>
			<point x="1140.838" y="361.727"/>
			<point x="1173" y="372.355" type="curve" smooth="yes"/>
			<point x="1242.742" y="395.4"/>
			<point x="1208.756" y="410.6"/>
			<point x="1170.97" y="450" type="curve" smooth="yes"/>
			<point x="779.677" y="858" type="line" smooth="yes"/>
			<point x="744.246" y="894.944"/>
			<point x="744.194" y="893.194"/>
			<point x="708" y="857" type="curve" smooth="yes"/>
			<point x="621" y="770" type="line" smooth="yes"/>
			<point x="580.952" y="729.952"/>
			<point x="579.69" y="719.556"/>
			<point x="537" y="760" type="curve" smooth="yes"/>
			<point x="420" y="870.842" type="line" smooth="yes"/>
			<point x="384.543" y="904.433"/>
			<point x="385.421" y="904.421"/>
		</contour>
	</outline>
</glyph>
<glyph name="fi" format="2">
	<advance width="1290" height="2310"/>
	<unicode hex="FB01"/>
	<anchor x="645" y="0" name="caret_1"/>
	<outline>
		<contour>
			<point x="420" y="874" type="curve" smooth="yes"/>
			<point x="420" y="158" type="line" smooth="yes"/>
			<point x="420" y="113"/>
			<point x="427" y="110"/>
			<point x="473" y="110" type="curve" smooth="yes"/>
			<point x="619" y="110" type="line" smooth="yes"/>
			<point x="651" y="110"/>
			<point x="660" y="108"/>
			<point x="660" y="76" type="curve" smooth="yes"/>
			<point x="660" y="35" type="line" smooth="yes"/>
			<point x="660" y="4"/>
			<point x="643" y="0"/>
			<point x="615" y="0" type="curve" smooth="yes"/>
			<point x="97" y="0" type="line" smooth="yes"/>
			<point x="65" y="0"/>
			<point x="60" y="6"/>
			<point x="60" y="40" type="curve" smooth="yes"/>
			<point x="60" y="72" type="line" smooth="yes"/>
			<point x="60" y="104"/>
			<point x="64" y="110"/>
			<point x="95" y="110" type="curve" smooth="yes"/>
			<point x="187" y="110" type="line" smooth="yes"/>
			<point x="233" y="110"/>
			<point x="240" y="113"/>
			<point x="240" y="158" type="curve" smooth="yes"/>
			<point x="240" y="884" type="line" smooth="yes"/>
			<point x="240" y="927"/>
			<point x="233" y="930"/>
			<point x="189" y="930" type="curve" smooth="yes"/>
			<point x="107" y="930" type="line" smooth="yes"/>
			<point x="69" y="930"/>
			<point x="60" y="932"/>
			<point x="60" y="970" type="curve" smooth="yes"/>
			<point x="60" y="1004" type="line" smooth="yes"/>
			<point x="60" y="1038"/>
			<point x="74" y="1040"/>
			<point x="105" y="1040" type="curve" smooth="yes"/>
			<point x="193" y="1040" type="line" smooth="yes"/>
			<point x="233" y="1040"/>
			<point x="240" y="1045"/>
			<point x="240" y="1086" type="curve" smooth="yes"/>
			<point x="240" y="1144" type="line" smooth="yes"/>
			<point x="240" y="1406"/>
			<point x="374" y="1580"/>
			<point x="674" y="1580" type="curve" smooth="yes"/>
			<point x="916" y="1580"/>
			<point x="1050" y="1472"/>
			<point x="1050" y="1358" type="curve" smooth="yes"/>
			<point x="1050" y="1272"/>
			<point x="1002" y="1226"/>
			<point x="932" y="1226" type="curve" smooth="yes"/>
			<point x="862" y="1226"/>
			<point x="816" y="1266"/>
			<point x="816" y="1322" type="curve" smooth="yes"/>
			<point x="816" y="1382"/>
			<point x="858" y="1396"/>
			<point x="858" y="1436" type="curve" smooth="yes"/>
			<point x="858" y="1460"/>
			<point x="822" y="1490"/>
			<point x="698" y="1490" type="curve" smooth="yes"/>
			<point x="498" y="1490"/>
			<point x="420" y="1374"/>
			<point x="420" y="1100" type="curve" smooth="yes"/>
			<point x="420" y="1088" type="line" smooth="yes"/>
			<point x="420" y="1047"/>
			<point x="423" y="1040"/>
			<point x="463" y="1040" type="curve" smooth="yes"/>
			<point x="1041" y="1040" type="line" smooth="yes"/>
			<point x="1078" y="1040"/>
			<point x="1080" y="1032"/>
			<point x="1080" y="994" type="curve" smooth="yes"/>
			<point x="1080" y="152" type="line" smooth="yes"/>
			<point x="1080" y="111"/>
			<point x="1089" y="110"/>
			<point x="1131" y="110" type="curve" smooth="yes"/>
			<point x="1233" y="110" type="line" smooth="yes"/>
			<point x="1258" y="110"/>
			<point x="1260" y="102"/>
			<point x="1260" y="76" type="curve" smooth="yes"/>
			<point x="1260" y="38" type="line" smooth="yes"/>
			<point x="1260" y="8"/>
			<point x="1255" y="0"/>
			<point x="1223" y="0" type="curve" smooth="yes"/>
			<point x="759" y="0" type="line" smooth="yes"/>
			<point x="721" y="0"/>
			<point x="720" y="9"/>
			<point x="720" y="48" type="curve" smooth="yes"/>
			<point x="720" y="72" type="line" smooth="yes"/>
			<point x="720" y="104"/>
			<point x="724" y="110"/>
			<point x="755" y="110" type="curve" smooth="yes"/>
			<point x="859" y="110" type="line" smooth="yes"/>
			<point x="895" y="110"/>
			<point x="900" y="116"/>
			<point x="900" y="154" type="curve" smooth="yes"/>
			<point x="900" y="884" type="line" smooth="yes"/>
			<point x="900" y="920"/>
			<point x="899" y="930"/>
			<point x="863" y="930" type="curve" smooth="yes"/>
			<point x="473" y="930" type="line" smooth="yes"/>
			<point x="425" y="930"/>
			<point x="420" y="924"/>
		</contour>
	</outline>
</glyph>
<glyph name="b.sc" format="2">
	<advance width="1152" height="0"/>
	<anchor x="516" y="1040" name="Anchor-0"/>
	<anchor x="539" y="0" name="Anchor-1"/>
	<outline>
		<contour>
			<point x="683" y="0" type="curve" smooth="yes"/>
			<point x="81" y="0" type="line" smooth="yes"/>
			<point x="57" y="0"/>
			<point x="52" y="3"/>
			<point x="52" y="30" type="curve" smooth="yes"/>
			<point x="52" y="72" type="line" smooth="yes"/>
			<point x="52" y="97"/>
			<point x="56" y="104"/>
			<point x="78" y="104" type="curve" smooth="yes"/>
			<point x="177" y="104" type="line" smooth="yes"/>
			<point x="195" y="104"/>
			<point x="205" y="106"/>
			<point x="205" y="124" type="curve" smooth="yes"/>
			<point x="205" y="911" type="line" smooth="yes"/>
			<point x="205" y="935"/>
			<point x="199" y="936"/>
			<point x="174" y="936" type="curve" smooth="yes"/>
			<point x="81" y="936" type="line" smooth="yes"/>
			<point x="55" y="936"/>
			<point x="52" y="941"/>
			<point x="52" y="970" type="curve" smooth="yes"/>
			<point x="52" y="1010" type="line" smooth="yes"/>
			<point x="52" y="1033"/>
			<point x="55" y="1040"/>
			<point x="75" y="1040" type="curve" smooth="yes"/>
			<point x="646" y="1040" type="line" smooth="yes"/>
			<point x="765" y="1040"/>
			<point x="860" y="1017"/>
			<point x="932" y="972" type="curve" smooth="yes"/>
			<point x="1004" y="927"/>
			<point x="1040" y="860"/>
			<point x="1040" y="770" type="curve" smooth="yes"/>
			<point x="1040" y="653"/>
			<point x="971" y="579"/>
			<point x="833" y="550" type="curve" smooth="yes"/>
			<point x="820" y="547"/>
			<point x="814" y="544"/>
			<point x="814" y="540" type="curve" smooth="yes"/>
			<point x="814" y="536"/>
			<point x="820" y="533"/>
			<point x="831" y="531" type="curve" smooth="yes"/>
			<point x="916" y="514"/>
			<point x="982" y="487"/>
			<point x="1028" y="448" type="curve" smooth="yes"/>
			<point x="1074" y="409"/>
			<point x="1097" y="357"/>
			<point x="1097" y="291" type="curve" smooth="yes"/>
			<point x="1097" y="187"/>
			<point x="1060" y="113"/>
			<point x="986" y="68" type="curve" smooth="yes"/>
			<point x="912" y="23"/>
			<point x="811" y="0"/>
		</contour>
		<contour>
			<point x="429" y="588" type="curve" smooth="yes"/>
			<point x="642" y="588" type="line" smooth="yes"/>
			<point x="695" y="588"/>
			<point x="743" y="602"/>
			<point x="786" y="629" type="curve" smooth="yes"/>
			<point x="829" y="656"/>
			<point x="851" y="701"/>
			<point x="851" y="762" type="curve" smooth="yes"/>
			<point x="851" y="823"/>
			<point x="829" y="868"/>
			<point x="786" y="895" type="curve" smooth="yes"/>
			<point x="743" y="922"/>
			<point x="695" y="936"/>
			<point x="642" y="936" type="curve" smooth="yes"/>
			<point x="419" y="936" type="line" smooth="yes"/>
			<point x="397" y="936"/>
			<point x="395" y="929"/>
			<point x="395" y="908" type="curve" smooth="yes"/>
			<point x="395" y="613" type="line" smooth="yes"/>
			<point x="395" y="588"/>
			<point x="402" y="588"/>
		</contour>
		<contour>
			<point x="662" y="104" type="line" smooth="yes"/>
			<point x="723" y="104"/>
			<point x="777" y="120"/>
			<point x="822" y="154" type="curve" smooth="yes"/>
			<point x="867" y="188"/>
			<point x="889" y="236"/>
			<point x="889" y="297" type="curve" smooth="yes"/>
			<point x="889" y="358"/>
			<point x="867" y="405"/>
			<point x="822" y="436" type="curve" smooth="yes"/>
			<point x="777" y="467"/>
			<point x="723" y="483"/>
			<point x="662" y="483" type="curve" smooth="yes"/>
			<point x="430" y="483" type="line" smooth="yes"/>
			<point x="400" y="483"/>
			<point x="395" y="478"/>
			<point x="395" y="449" type="curve" smooth="yes"/>
			<point x="395" y="128" type="line" smooth="yes"/>
			<point x="395" y="105"/>
			<point x="404" y="104"/>
			<point x="428" y="104" type="curve" smooth="yes"/>
		</contour>
	</outline>
</glyph>
<glyph name="f_f.liga" format="2">
	<advance width="1500" height="2310"/>
	<anchor x="375" y="0" name="bottom_1"/>
	<anchor x="1125" y="0" name="bottom_2"/>
	<anchor x="750" y="0" name="caret_1"/>
	<anchor x="375" y="1600" name="top_1"/>
	<anchor x="1125" y="1600" name="top_2"/>
	<outline>
		<contour>
			<point x="60" y="29" type="curve" smooth="yes"/>
			<point x="60" y="75" type="line" smooth="yes"/>
			<point x="60" y="105"/>
			<point x="67" y="110"/>
			<point x="95" y="110" type="curve" smooth="yes"/>
			<point x="212" y="110" type="line" smooth="yes"/>
			<point x="240" y="110"/>
			<point x="240" y="111"/>
			<point x="240" y="139" type="curve" smooth="yes"/>
			<point x="240" y="898" type="line" smooth="yes"/>
			<point x="240" y="923"/>
			<point x="235" y="930"/>
			<point x="211" y="930" type="curve" smooth="yes"/>
			<point x="82" y="930" type="line" smooth="yes"/>
			<point x="63" y="930"/>
			<point x="60" y="938"/>
			<point x="60" y="958" type="curve" smooth="yes"/>
			<point x="60" y="1003" type="line" smooth="yes"/>
			<point x="60" y="1032"/>
			<point x="63" y="1040"/>
			<point x="91" y="1040" type="curve" smooth="yes"/>
			<point x="212" y="1040" type="line" smooth="yes"/>
			<point x="233" y="1040"/>
			<point x="240" y="1044"/>
			<point x="240" y="1064" type="curve" smooth="yes"/>
			<point x="240" y="1104" type="line" smooth="yes"/>
			<point x="240" y="1366"/>
			<point x="414" y="1540"/>
			<point x="674" y="1540" type="curve" smooth="yes"/>
			<point x="804" y="1540"/>
			<point x="907" y="1494"/>
			<point x="963" y="1431" type="curve" smooth="yes"/>
			<point x="973" y="1419"/>
			<point x="975" y="1412"/>
			<point x="982" y="1412" type="curve" smooth="yes"/>
			<point x="990" y="1412"/>
			<point x="990" y="1420"/>
			<point x="1001" y="1438" type="curve" smooth="yes"/>
			<point x="1064" y="1542"/>
			<point x="1175" y="1600"/>
			<point x="1334" y="1600" type="curve" smooth="yes"/>
			<point x="1536" y="1600"/>
			<point x="1670" y="1512"/>
			<point x="1670" y="1398" type="curve" smooth="yes"/>
			<point x="1670" y="1312"/>
			<point x="1622" y="1266"/>
			<point x="1552" y="1266" type="curve" smooth="yes"/>
			<point x="1482" y="1266"/>
			<point x="1436" y="1306"/>
			<point x="1436" y="1362" type="curve" smooth="yes"/>
			<point x="1436" y="1422"/>
			<point x="1478" y="1436"/>
			<point x="1478" y="1476" type="curve" smooth="yes"/>
			<point x="1478" y="1500"/>
			<point x="1442" y="1530"/>
			<point x="1358" y="1530" type="curve" smooth="yes"/>
			<point x="1178" y="1530"/>
			<point x="1120" y="1394"/>
			<point x="1120" y="1140" type="curve" smooth="yes"/>
			<point x="1120" y="1060" type="line" smooth="yes"/>
			<point x="1120" y="1031"/>
			<point x="1139" y="1040"/>
			<point x="1165" y="1040" type="curve" smooth="yes"/>
			<point x="1371" y="1040" type="line" smooth="yes"/>
			<point x="1392" y="1040"/>
			<point x="1400" y="1037"/>
			<point x="1400" y="1017" type="curve" smooth="yes"/>
			<point x="1400" y="959" type="line" smooth="yes"/>
			<point x="1400" y="934"/>
			<point x="1388" y="930"/>
			<point x="1365" y="930" type="curve" smooth="yes"/>
			<point x="1155" y="930" type="line" smooth="yes"/>
			<point x="1127" y="930"/>
			<point x="1120" y="925"/>
			<point x="1120" y="895" type="curve" smooth="yes"/>
			<point x="1120" y="146" type="line" smooth="yes"/>
			<point x="1120" y="115"/>
			<point x="1127" y="110"/>
			<point x="1156" y="110" type="curve" smooth="yes"/>
			<point x="1331" y="110" type="line" smooth="yes"/>
			<point x="1357" y="110"/>
			<point x="1360" y="103"/>
			<point x="1360" y="76" type="curve" smooth="yes"/>
			<point x="1360" y="36" type="line" smooth="yes"/>
			<point x="1360" y="7"/>
			<point x="1356" y="0"/>
			<point x="1327" y="0" type="curve" smooth="yes"/>
			<point x="792" y="0" type="line" smooth="yes"/>
			<point x="766" y="0"/>
			<point x="760" y="5"/>
			<point x="760" y="33" type="curve" smooth="yes"/>
			<point x="760" y="83" type="line" smooth="yes"/>
			<point x="760" y="103"/>
			<point x="765" y="110"/>
			<point x="784" y="110" type="curve" smooth="yes"/>
			<point x="915" y="110" type="line" smooth="yes"/>
			<point x="938" y="110"/>
			<point x="940" y="118"/>
			<point x="940" y="142" type="curve" smooth="yes"/>
			<point x="940" y="908" type="line" smooth="yes"/>
			<point x="940" y="927"/>
			<point x="932" y="930"/>
			<point x="912" y="930" type="curve" smooth="yes"/>
			<point x="455" y="930" type="line" smooth="yes"/>
			<point x="425" y="930"/>
			<point x="420" y="924"/>
			<point x="420" y="892" type="curve" smooth="yes"/>
			<point x="420" y="140" type="line" smooth="yes"/>
			<point x="420" y="116"/>
			<point x="426" y="110"/>
			<point x="451" y="110" type="curve" smooth="yes"/>
			<point x="631" y="110" type="line" smooth="yes"/>
			<point x="657" y="110"/>
			<point x="660" y="103"/>
			<point x="660" y="76" type="curve" smooth="yes"/>
			<point x="660" y="25" type="line" smooth="yes"/>
			<point x="660" y="0"/>
			<point x="660" y="0"/>
			<point x="635" y="0" type="curve" smooth="yes"/>
			<point x="83" y="0" type="line" smooth="yes"/>
			<point x="63" y="0"/>
			<point x="60" y="8"/>
		</contour>
		<contour>
			<point x="447" y="1040" type="curve" smooth="yes"/>
			<point x="906" y="1040" type="line" smooth="yes"/>
			<point x="940" y="1040"/>
			<point x="940" y="1041"/>
			<point x="940" y="1075" type="curve" smooth="yes"/>
			<point x="940" y="1170" type="line" smooth="yes"/>
			<point x="940" y="1205"/>
			<point x="929" y="1188"/>
			<point x="905" y="1185" type="curve" smooth="yes"/>
			<point x="837" y="1176"/>
			<point x="776" y="1224"/>
			<point x="776" y="1282" type="curve" smooth="yes"/>
			<point x="776" y="1342"/>
			<point x="818" y="1356"/>
			<point x="818" y="1396" type="curve" smooth="yes"/>
			<point x="818" y="1420"/>
			<point x="762" y="1450"/>
			<point x="678" y="1450" type="curve" smooth="yes"/>
			<point x="498" y="1450"/>
			<point x="420" y="1314"/>
			<point x="420" y="1070" type="curve" smooth="yes"/>
			<point x="420" y="1047"/>
			<point x="425" y="1040"/>
		</contour>
	</outline>
</glyph>
<glyph name="four.tosf" format="2">
	<advance width="1100" height="2310"/>
	<outline>
		<contour>
			<point x="1040" y="-376" type="curve" smooth="yes"/>
			<point x="1040" y="-434" type="line" smooth="yes"/>
			<point x="1040" y="-457"/>
			<point x="1033" y="-460"/>
			<point x="1009" y="-460" type="curve" smooth="yes"/>
			<point x="542" y="-460" type="line" smooth="yes"/>
			<point x="517" y="-460"/>
			<point x="510" y="-455"/>
			<point x="510" y="-428" type="curve" smooth="yes"/>
			<point x="510" y="-383" type="line" smooth="yes"/>
			<point x="510" y="-357"/>
			<point x="515" y="-350"/>
			<point x="540" y="-350" type="curve" smooth="yes"/>
			<point x="672" y="-350" type="line" smooth="yes"/>
			<point x="693" y="-350"/>
			<point x="700" y="-345"/>
			<point x="700" y="-325" type="curve" smooth="yes"/>
			<point x="700" y="-38" type="line" smooth="yes"/>
			<point x="700" y="-7"/>
			<point x="697" y="0"/>
			<point x="667" y="0" type="curve" smooth="yes"/>
			<point x="164" y="0" type="line" smooth="yes"/>
			<point x="134" y="0"/>
			<point x="127" y="3"/>
			<point x="113" y="17" type="curve" smooth="yes"/>
			<point x="87" y="43" type="line" smooth="yes"/>
			<point x="68" y="62"/>
			<point x="73" y="68"/>
			<point x="84" y="95" type="curve" smooth="yes"/>
			<point x="224" y="426"/>
			<point x="636" y="590"/>
			<point x="738" y="987" type="curve" smooth="yes"/>
			<point x="746" y="1017"/>
			<point x="738" y="1040"/>
			<point x="779" y="1040" type="curve" smooth="yes"/>
			<point x="888" y="1040" type="line" smooth="yes"/>
			<point x="929" y="1040"/>
			<point x="937" y="1036"/>
			<point x="932" y="999" type="curve" smooth="yes"/>
			<point x="877" y="587"/>
			<point x="402" y="414"/>
			<point x="244" y="158" type="curve" smooth="yes"/>
			<point x="225" y="127"/>
			<point x="233" y="110"/>
			<point x="290" y="110" type="curve" smooth="yes"/>
			<point x="682" y="110" type="line" smooth="yes"/>
			<point x="703" y="110"/>
			<point x="700" y="115"/>
			<point x="700" y="135" type="curve" smooth="yes"/>
			<point x="700" y="260" type="line" smooth="yes"/>
			<point x="700" y="293"/>
			<point x="708" y="292"/>
			<point x="725" y="305" type="curve" smooth="yes"/>
			<point x="772" y="341"/>
			<point x="800" y="388"/>
			<point x="830" y="478" type="curve" smooth="yes"/>
			<point x="836" y="495"/>
			<point x="833" y="510"/>
			<point x="858" y="510" type="curve" smooth="yes"/>
			<point x="864" y="510" type="line" smooth="yes"/>
			<point x="890" y="510"/>
			<point x="890" y="503"/>
			<point x="890" y="479" type="curve" smooth="yes"/>
			<point x="890" y="154" type="line" smooth="yes"/>
			<point x="890" y="116"/>
			<point x="895" y="110"/>
			<point x="932" y="110" type="curve" smooth="yes"/>
			<point x="1039" y="110" type="line" smooth="yes"/>
			<point x="1066" y="110"/>
			<point x="1070" y="103"/>
			<point x="1070" y="75" type="curve" smooth="yes"/>
			<point x="1070" y="30" type="line" smooth="yes"/>
			<point x="1070" y="3"/>
			<point x="1062" y="0"/>
			<point x="1034" y="0" type="curve" smooth="yes"/>
			<point x="925" y="0" type="line" smooth="yes"/>
			<point x="894" y="0"/>
			<point x="890" y="-10"/>
			<point x="890" y="-39" type="curve" smooth="yes"/>
			<point x="890" y="-314" type="line" smooth="yes"/>
			<point x="890" y="-345"/>
			<point x="896" y="-350"/>
			<point x="928" y="-350" type="curve" smooth="yes"/>
			<point x="1005" y="-350" type="line" smooth="yes"/>
			<point x="1030" y="-350"/>
			<point x="1040" y="-351"/>
		</contour>
	</outline>
</glyph>
<glyph name="j.sc" format="2">
	<advance width="915" height="0"/>
	<anchor x="570" y="1040" name="Anchor-0"/>
	<anchor x="362" y="5" name="Anchor-1"/>
	<outline>
		<contour>
			<point x="14" y="208" type="curve" smooth="yes"/>
			<point x="14" y="253"/>
			<point x="28" y="287"/>
			<point x="56" y="310" type="curve" smooth="yes"/>
			<point x="84" y="333"/>
			<point x="116" y="344"/>
			<point x="151" y="344" type="curve" smooth="yes"/>
			<point x="182" y="344"/>
			<point x="208" y="337"/>
			<point x="230" y="323" type="curve" smooth="yes"/>
			<point x="252" y="309"/>
			<point x="263" y="290"/>
			<point x="263" y="267" type="curve" smooth="yes"/>
			<point x="263" y="239"/>
			<point x="258" y="220"/>
			<point x="248" y="210" type="curve" smooth="yes"/>
			<point x="238" y="200"/>
			<point x="228" y="192"/>
			<point x="218" y="186" type="curve" smooth="yes"/>
			<point x="208" y="180"/>
			<point x="202" y="168"/>
			<point x="202" y="149" type="curve" smooth="yes"/>
			<point x="202" y="138"/>
			<point x="210" y="126"/>
			<point x="227" y="112" type="curve" smooth="yes"/>
			<point x="244" y="98"/>
			<point x="280" y="90"/>
			<point x="337" y="90" type="curve" smooth="yes"/>
			<point x="400" y="90"/>
			<point x="450" y="110"/>
			<point x="485" y="149" type="curve" smooth="yes"/>
			<point x="520" y="188"/>
			<point x="538" y="253"/>
			<point x="538" y="344" type="curve" smooth="yes"/>
			<point x="538" y="898" type="line" smooth="yes"/>
			<point x="538" y="928"/>
			<point x="536" y="936"/>
			<point x="505" y="936" type="curve" smooth="yes"/>
			<point x="375" y="936" type="line" smooth="yes"/>
			<point x="342" y="936"/>
			<point x="343" y="946"/>
			<point x="343" y="983" type="curve" smooth="yes"/>
			<point x="343" y="1002" type="line" smooth="yes"/>
			<point x="343" y="1036"/>
			<point x="348" y="1040"/>
			<point x="378" y="1040" type="curve" smooth="yes"/>
			<point x="856" y="1040" type="line" smooth="yes"/>
			<point x="876" y="1040"/>
			<point x="884" y="1037"/>
			<point x="884" y="1014" type="curve" smooth="yes"/>
			<point x="884" y="968" type="line" smooth="yes"/>
			<point x="884" y="945"/>
			<point x="885" y="936"/>
			<point x="864" y="936" type="curve" smooth="yes"/>
			<point x="749" y="936" type="line" smooth="yes"/>
			<point x="719" y="936"/>
			<point x="718" y="931"/>
			<point x="718" y="901" type="curve" smooth="yes"/>
			<point x="718" y="363" type="line" smooth="yes"/>
			<point x="718" y="255"/>
			<point x="686" y="166"/>
			<point x="622" y="94" type="curve" smooth="yes"/>
			<point x="558" y="22"/>
			<point x="460" y="-14"/>
			<point x="330" y="-14" type="curve" smooth="yes"/>
			<point x="256" y="-14"/>
			<point x="196" y="-3"/>
			<point x="150" y="20" type="curve" smooth="yes"/>
			<point x="104" y="43"/>
			<point x="69" y="72"/>
			<point x="47" y="106" type="curve" smooth="yes"/>
			<point x="25" y="140"/>
			<point x="14" y="175"/>
		</contour>
	</outline>
</glyph>
